# Blender v3.6.22 OBJ File: ''
# www.blender.org
mtllib basket1.mtl
o box
v 0.338200 0.157283 0.468011
v 0.329970 0.157283 0.468011
v 0.329970 0.169429 0.468011
v 0.338199 0.169429 0.468011
v 0.329970 0.157283 0.468011
v -0.028555 0.157283 0.468011
v -0.028555 0.169429 0.468011
v 0.329970 0.169429 0.468011
v -0.028555 0.157283 0.468011
v -0.387080 0.157283 0.468011
v -0.387080 0.169429 0.468011
v -0.028555 0.169429 0.468011
v -0.387080 0.157283 0.468011
v -0.395309 0.157283 0.468011
v -0.395309 0.169429 0.468011
v -0.387080 0.169429 0.468011
v 0.338199 0.169429 0.468011
v 0.329970 0.169429 0.468011
v 0.329970 0.466184 0.468011
v 0.338200 0.466184 0.468011
v -0.387080 0.169429 0.468011
v -0.395309 0.169429 0.468011
v -0.395309 0.466184 0.468011
v -0.387080 0.466184 0.468011
v -0.028555 0.466184 0.457389
v 0.329970 0.466184 0.457390
v 0.329970 0.466184 0.468011
v -0.028555 0.466184 0.468011
v -0.387080 0.466184 0.468011
v -0.387080 0.466184 0.457390
v 0.329970 0.169429 0.468011
v -0.028555 0.169429 0.468011
v -0.028555 0.466184 0.468011
v 0.329970 0.466184 0.468011
v -0.028555 0.169429 0.468011
v -0.387080 0.169429 0.468011
v -0.387080 0.466184 0.468011
v -0.028555 0.466184 0.468011
v 0.159718 0.224948 0.457390
v 0.151498 0.229451 0.457390
v 0.143909 0.234954 0.457390
v 0.137074 0.241368 0.457390
v 0.131101 0.248591 0.457390
v 0.126084 0.256509 0.457390
v 0.122103 0.264995 0.457390
v 0.079642 0.372710 0.457390
v 0.077092 0.382750 0.457390
v 0.077140 0.393110 0.457390
v 0.079786 0.403126 0.457390
v 0.084858 0.412159 0.457390
v 0.092034 0.419631 0.457390
v 0.100854 0.425065 0.457390
v 0.110755 0.428114 0.457390
v 0.329970 0.466184 0.457390
v -0.028555 0.466184 0.457389
v -0.028555 0.169429 0.457390
v 0.329970 0.169429 0.457390
v 0.168440 0.221514 0.457390
v -0.161516 0.425120 0.457390
v -0.152718 0.419792 0.457390
v -0.145488 0.412476 0.457390
v -0.140263 0.403616 0.457390
v -0.137360 0.393749 0.457390
v -0.136955 0.383471 0.457390
v -0.139071 0.373405 0.457390
v -0.175887 0.266131 0.457390
v -0.179528 0.257455 0.457390
v -0.184291 0.249341 0.457390
v -0.190092 0.241932 0.457390
v -0.196827 0.235362 0.457390
v -0.204377 0.229746 0.457390
v -0.212607 0.225185 0.457390
v -0.221370 0.221759 0.457390
v -0.387080 0.169429 0.457390
v -0.028555 0.169429 0.457390
v -0.028555 0.466184 0.457389
v -0.387080 0.466184 0.457390
v -0.171348 0.428139 0.457390
vt 0.375000 0.500000
vt 0.437500 0.500000
vt 0.437500 0.750000
vt 0.400000 0.750000
vt 0.437500 0.500000
vt 0.500000 0.500000
vt 0.500000 0.750000
vt 0.437500 0.750000
vt 0.500000 0.500000
vt 0.562500 0.500000
vt 0.562500 0.750000
vt 0.500000 0.750000
vt 0.562500 0.500000
vt 0.625000 0.500000
vt 0.625000 0.750000
vt 0.562500 0.750000
vt 0.375000 0.750000
vt 0.458333 0.750000
vt 0.437500 0.750000
vt 0.375000 0.750000
vt 0.583333 0.750000
vt 0.625000 0.764286
vt 0.625000 0.750000
vt 0.562500 0.750000
vt 0.500000 0.800000
vt 0.437500 0.800000
vt 0.437500 0.750000
vt 0.500000 0.750000
vt 0.562500 0.750000
vt 0.562500 0.800000
vt 0.458333 0.750000
vt 0.520833 0.750000
vt 0.500000 0.750000
vt 0.437500 0.750000
vt 0.520833 0.750000
vt 0.583333 0.750000
vt 0.562500 0.750000
vt 0.500000 0.750000
vt 0.437500 0.800000
vt 0.437500 0.800000
vt 0.437500 0.800000
vt 0.437500 0.800000
vt 0.437500 0.800000
vt 0.437500 0.800000
vt 0.437500 0.800000
vt 0.437500 0.800000
vt 0.437500 0.800000
vt 0.437500 0.800000
vt 0.437500 0.800000
vt 0.437500 0.800000
vt 0.437500 0.800000
vt 0.437500 0.800000
vt 0.437500 0.800000
vt 0.437500 0.800000
vt 0.500000 0.800000
vt 0.482143 0.800000
vt 0.437500 0.800000
vt 0.437500 0.800000
vt 0.562256 0.800000
vt 0.561827 0.800000
vt 0.561237 0.800000
vt 0.560523 0.800000
vt 0.559728 0.800000
vt 0.558899 0.800000
vt 0.558088 0.800000
vt 0.547854 0.800000
vt 0.546948 0.800000
vt 0.546102 0.800000
vt 0.545329 0.800000
vt 0.544643 0.800000
vt 0.544643 0.800000
vt 0.544643 0.800000
vt 0.544643 0.800000
vt 0.544643 0.800000
vt 0.482143 0.800000
vt 0.500000 0.800000
vt 0.562500 0.800000
vt 0.562500 0.800000
vn -0.0000 0.0001 1.0000
vn 0.0000 -0.0000 1.0000
vn 0.0000 0.0003 1.0000
vn 0.0003 0.0000 1.0000
vn -0.0003 0.0000 1.0000
vn -0.0000 1.0000 -0.0000
vn -0.0000 0.0000 -1.0000
vn 0.0002 0.0003 -1.0000
vn 0.0001 0.0003 -1.0000
usemtl initialShadingGroup
s 1
f 1/1/1 2/2/2 3/3/2 4/4/2
f 5/5/2 6/6/2 7/7/2 8/8/2
f 9/9/2 10/10/2 11/11/2 12/12/2
f 13/13/2 14/14/1 15/15/2 16/16/2
f 17/17/2 18/18/2 19/19/2 20/20/2
f 21/21/3 22/22/4 23/23/3 24/24/5
f 25/25/6 26/26/6 27/27/6 28/28/6 29/29/6 30/30/6
f 31/31/2 32/32/2 33/33/2 34/34/2
f 35/35/2 36/36/2 37/37/2 38/38/2
f 39/39/7 40/40/7 41/41/7 42/42/7 43/43/7 44/44/7 45/45/7 46/46/7 47/47/7 48/48/7 49/49/7 50/50/7 51/51/7 52/52/7 53/53/7 54/54/7 55/55/7 56/56/7 57/57/7 58/58/7
f 59/59/8 60/60/8 61/61/8 62/62/8 63/63/8 64/64/8 65/65/8 66/66/8 67/67/9 68/68/9 69/69/9 70/70/9 71/71/9 72/72/9 73/73/9 74/74/9 75/75/8 76/76/9 77/77/9 78/78/9
o box.002
v 0.329970 0.466184 0.457390
v 0.110755 0.428114 0.457390
v 0.110755 0.428114 0.452550
v 0.329970 0.466184 0.452550
v 0.079642 0.372710 0.452550
v 0.079642 0.372710 0.457390
v 0.122103 0.264995 0.457390
v 0.122103 0.264995 0.452550
v 0.168440 0.221514 0.452550
v 0.168440 0.221514 0.457390
v 0.329970 0.169429 0.457390
v 0.329970 0.169429 0.452550
v -0.387080 0.169429 0.457390
v -0.221370 0.221759 0.457390
v -0.221370 0.221759 0.452550
v -0.387080 0.169429 0.452550
v -0.175887 0.266131 0.452550
v -0.175887 0.266131 0.457390
v -0.139071 0.373405 0.457390
v -0.139071 0.373405 0.452550
v -0.171348 0.428139 0.452550
v -0.171348 0.428139 0.457390
v -0.387080 0.466184 0.457390
v -0.387080 0.466184 0.452550
v 0.100854 0.425065 0.457390
v 0.100854 0.425065 0.452550
v 0.092034 0.419631 0.457390
v 0.092034 0.419631 0.452550
v 0.084858 0.412159 0.457390
v 0.084858 0.412159 0.452550
v 0.079786 0.403126 0.457390
v 0.079786 0.403126 0.452550
v 0.077140 0.393110 0.457390
v 0.077140 0.393110 0.452550
v 0.077092 0.382750 0.457390
v 0.077092 0.382750 0.452550
v 0.126084 0.256509 0.457390
v 0.126084 0.256509 0.452550
v 0.131101 0.248591 0.457390
v 0.131101 0.248591 0.452550
v 0.137074 0.241368 0.457390
v 0.137074 0.241368 0.452550
v 0.143909 0.234954 0.457390
v 0.143909 0.234954 0.452550
v 0.151498 0.229451 0.457390
v 0.151498 0.229451 0.452550
v 0.159718 0.224948 0.457390
v 0.159718 0.224948 0.452550
v -0.212607 0.225185 0.457390
v -0.212607 0.225185 0.452550
v -0.204377 0.229746 0.457390
v -0.204377 0.229746 0.452550
v -0.196827 0.235362 0.457390
v -0.196827 0.235362 0.452550
v -0.190092 0.241932 0.457390
v -0.190092 0.241932 0.452550
v -0.184291 0.249341 0.457390
v -0.184291 0.249341 0.452550
v -0.179528 0.257455 0.457390
v -0.179528 0.257455 0.452550
v -0.136955 0.383471 0.457390
v -0.136955 0.383471 0.452550
v -0.137360 0.393749 0.457390
v -0.137360 0.393749 0.452550
v -0.140263 0.403616 0.457390
v -0.140263 0.403616 0.452550
v -0.145488 0.412476 0.457390
v -0.145488 0.412476 0.452550
v -0.152718 0.419792 0.457390
v -0.152718 0.419792 0.452550
v -0.161516 0.425120 0.457390
v -0.161516 0.425120 0.452550
v 0.079786 0.403126 0.457390
v 0.077140 0.393110 0.457390
v 0.077092 0.382750 0.457390
v -0.140263 0.403616 0.457390
v -0.145488 0.412476 0.457390
v 0.079642 0.372710 0.457390
v 0.122103 0.264995 0.457390
v 0.126084 0.256509 0.457390
v -0.152718 0.419792 0.457390
v -0.161516 0.425120 0.457390
v -0.171348 0.428139 0.457390
v 0.122103 0.264995 0.457390
v 0.126084 0.256509 0.457390
v 0.077092 0.382750 0.457390
v 0.079642 0.372710 0.457390
v 0.077140 0.393110 0.457390
vt 0.437500 0.800000
vt 0.437500 0.800000
vt 0.437500 0.800000
vt 0.437500 0.800000
vt 0.437500 0.800000
vt 0.437500 0.800000
vt 0.437500 0.800000
vt 0.437500 0.800000
vt 0.437500 0.800000
vt 0.437500 0.800000
vt 0.437500 0.800000
vt 0.437500 0.800000
vt 0.544643 0.800000
vt 0.544643 0.800000
vt 0.544643 0.800000
vt 0.544643 0.800000
vt 0.547854 0.800000
vt 0.547854 0.800000
vt 0.558088 0.800000
vt 0.558088 0.800000
vt 0.562500 0.800000
vt 0.562500 0.800000
vt 0.562500 0.800000
vt 0.562500 0.800000
vt 0.437500 0.800000
vt 0.437500 0.800000
vt 0.437500 0.800000
vt 0.437500 0.800000
vt 0.437500 0.800000
vt 0.437500 0.800000
vt 0.437500 0.800000
vt 0.437500 0.800000
vt 0.437500 0.800000
vt 0.437500 0.800000
vt 0.437500 0.800000
vt 0.437500 0.800000
vt 0.437500 0.800000
vt 0.437500 0.800000
vt 0.437500 0.800000
vt 0.437500 0.800000
vt 0.437500 0.800000
vt 0.437500 0.800000
vt 0.437500 0.800000
vt 0.437500 0.800000
vt 0.437500 0.800000
vt 0.437500 0.800000
vt 0.437500 0.800000
vt 0.437500 0.800000
vt 0.544643 0.800000
vt 0.544708 0.800000
vt 0.544643 0.800000
vt 0.544795 0.800000
vt 0.544643 0.800000
vt 0.544902 0.800000
vt 0.545329 0.800000
vt 0.545027 0.800000
vt 0.546102 0.800000
vt 0.545892 0.800000
vt 0.546948 0.800000
vt 0.546840 0.800000
vt 0.558899 0.800000
vt 0.558899 0.800000
vt 0.559728 0.800000
vt 0.559728 0.800000
vt 0.560523 0.800000
vt 0.560523 0.800000
vt 0.561237 0.800000
vt 0.561237 0.800000
vt 0.561827 0.800000
vt 0.561827 0.800000
vt 0.562256 0.800000
vt 0.562256 0.800000
vt 0.437500 0.800000
vt 0.437500 0.800000
vt 0.437500 0.800000
vt 0.560523 0.800000
vt 0.561237 0.800000
vt 0.437500 0.800000
vt 0.437500 0.800000
vt 0.437500 0.800000
vt 0.561827 0.800000
vt 0.562256 0.800000
vt 0.562500 0.800000
vt 0.437500 0.800000
vt 0.437500 0.800000
vt 0.437500 0.800000
vt 0.437500 0.800000
vt 0.437500 0.800000
vn -0.1712 0.9852 -0.0000
vn -0.1766 0.9843 0.0000
vn -0.9341 -0.3571 -0.0000
vn -0.9286 -0.3712 -0.0000
vn -0.3100 -0.9507 -0.0000
vn -0.3069 -0.9517 -0.0000
vn 0.3011 -0.9536 -0.0000
vn 0.3044 -0.9525 -0.0000
vn 0.9442 -0.3294 -0.0000
vn 0.9491 -0.3149 0.0000
vn 0.1791 0.9838 0.0000
vn 0.1736 0.9848 -0.0000
vn -0.4127 0.9109 -0.0000
vn -0.6279 0.7783 -0.0000
vn -0.8030 0.5959 -0.0000
vn -0.9267 0.3758 -0.0001
vn -0.9267 0.3758 0.0001
vn -0.9914 0.1311 -0.0000
vn -0.9926 -0.1217 -0.0000
vn -0.8768 -0.4809 -0.0000
vn -0.8095 -0.5871 -0.0001
vn -0.8095 -0.5871 0.0001
vn -0.7289 -0.6846 -0.0000
vn -0.6370 -0.7709 -0.0000
vn -0.5348 -0.8450 0.0000
vn -0.4248 -0.9053 -0.0003
vn -0.4248 -0.9053 0.0003
vn 0.4254 -0.9050 0.0000
vn 0.5421 -0.8403 0.0000
vn 0.6494 -0.7605 -0.0002
vn 0.6494 -0.7605 0.0002
vn 0.7445 -0.6677 -0.0000
vn 0.8269 -0.5623 0.0000
vn 0.8941 -0.4479 -0.0000
vn 0.9965 -0.0838 -0.0000
vn 0.9868 0.1621 0.0000
vn 0.9173 0.3981 -0.0000
vn 0.9173 0.3982 -0.0000
vn 0.7923 0.6101 0.0000
vn 0.6194 0.7851 -0.0000
vn 0.6193 0.7851 -0.0000
vn 0.4089 0.9126 -0.0000
vn -0.0129 -0.0539 -0.9985
vn 0.0000 0.0000 -1.0000
vn -0.0515 0.0192 -0.9985
vn 0.0000 0.0000 -0.9985
vn 0.0003 0.0001 -1.0000
vn 0.0003 -0.0000 -1.0000
vn 0.0003 -0.0001 -1.0000
vn -0.0065 0.0549 -0.9985
vn -0.0008 0.0552 -0.9985
vn -0.0064 -0.0549 -0.9985
vn -0.0291 0.0453 -0.9986
vn 0.0278 -0.0461 -0.9986
vn -0.0061 0.0239 -0.9997
vn 0.0128 -0.0245 -0.9996
vn -0.0501 0.0199 -0.9985
vn 0.0469 -0.0267 -0.9985
vn 0.0532 -0.0083 -0.9986
vn 0.0273 -0.0084 -0.9996
usemtl initialShadingGroup
s 1
f 79/79/10 80/80/11 81/81/11 82/82/10
f 83/83/12 84/84/12 85/85/13 86/86/13
f 87/87/14 88/88/14 89/89/15 90/90/15
f 91/91/16 92/92/17 93/93/17 94/94/16
f 95/95/18 96/96/18 97/97/19 98/98/19
f 99/99/20 100/100/20 101/101/21 102/102/21
f 80/80/11 103/103/22 104/104/22 81/81/11
f 103/103/22 105/105/23 106/106/23 104/104/22
f 105/105/23 107/107/24 108/108/24 106/106/23
f 107/107/24 109/109/25 110/110/26 108/108/24
f 109/109/25 111/111/27 112/112/27 110/110/26
f 111/111/27 113/113/28 114/114/28 112/112/27
f 113/113/28 84/84/12 83/83/12 114/114/28
f 85/85/13 115/115/29 116/116/29 86/86/13
f 115/115/29 117/117/30 118/118/31 116/116/29
f 117/117/30 119/119/32 120/120/32 118/118/31
f 119/119/32 121/121/33 122/122/33 120/120/32
f 121/121/33 123/123/34 124/124/34 122/122/33
f 123/123/34 125/125/35 126/126/36 124/124/34
f 125/125/35 88/88/14 87/87/14 126/126/36
f 92/92/17 127/127/37 128/128/37 93/93/17
f 127/127/37 129/129/38 130/130/38 128/128/37
f 129/129/38 131/131/39 132/132/40 130/130/38
f 131/131/39 133/133/41 134/134/41 132/132/40
f 133/133/41 135/135/42 136/136/42 134/134/41
f 135/135/42 137/137/43 138/138/43 136/136/42
f 137/137/43 96/96/18 95/95/18 138/138/43
f 97/97/19 139/139/44 140/140/44 98/98/19
f 139/139/44 141/141/45 142/142/45 140/140/44
f 141/141/45 143/143/46 144/144/46 142/142/45
f 143/143/47 145/145/48 146/146/48 144/144/47
f 145/145/48 147/147/49 148/148/49 146/146/48
f 147/147/50 149/149/51 150/150/51 148/148/50
f 149/149/51 100/100/20 99/99/20 150/150/51
f 111/111/52 109/109/53 151/151/54 152/152/55
f 87/87/53 90/90/53 82/82/53 81/81/53 104/104/53 106/106/53 108/108/53 110/110/53 112/112/53 114/114/53 83/83/53 86/86/53 116/116/53 118/118/53 120/120/53 122/122/53 124/124/53 126/126/53
f 99/99/56 102/102/57 94/94/58 93/93/58 128/128/57 130/130/57 132/132/57 134/134/57 136/136/57 138/138/57 95/95/57 98/98/57 140/140/57 142/142/57 144/144/57 146/146/57 148/148/57 150/150/56
f 113/113/59 111/111/55 152/152/60 153/153/61
f 145/145/62 143/143/53 154/154/63 155/155/53
f 84/84/64 113/113/59 153/153/61 156/156/53
f 115/115/65 85/85/53 157/157/53 158/158/53
f 149/149/66 147/147/53 159/159/67 160/160/68
f 100/100/69 149/149/66 160/160/68 161/161/53
f 157/157/53 162/162/53 163/163/53 158/158/53
f 153/153/53 164/164/53 165/165/53 156/156/53
f 152/152/53 166/166/53 164/164/53 153/153/53
o box.003
v -0.387080 0.466184 0.468011
v -0.395309 0.466184 0.468011
v -0.395309 0.466184 0.457389
v -0.387080 0.466184 0.457390
v -0.410318 0.466779 0.191899
v -0.402177 0.465579 0.191899
v -0.402177 0.465579 -0.304018
v -0.410318 0.466779 -0.304018
v -0.395309 0.466184 -0.569508
v -0.387080 0.466184 -0.569508
v -0.395309 0.466184 -0.580130
v -0.387080 0.466184 -0.580130
v -0.395309 0.169429 0.457390
v -0.395309 0.169429 0.468011
v -0.395309 0.157283 0.468011
v -0.395309 0.157283 0.457390
v -0.395309 0.169429 0.191899
v -0.395309 0.157283 0.191899
v -0.395309 0.169428 -0.304018
v -0.395309 0.157282 -0.304018
v -0.395309 0.169428 -0.569508
v -0.395309 0.157282 -0.569508
v -0.387080 0.169429 0.191899
v -0.387080 0.169429 0.457390
v -0.387080 0.169428 -0.304018
v -0.387080 0.169428 -0.569508
v -0.395309 0.169428 -0.580130
v -0.410327 0.466720 -0.247805
v -0.410452 0.465871 0.135686
v -0.402311 0.464670 0.135686
v -0.402186 0.465519 -0.247805
v -0.387080 0.169429 0.452550
v -0.387080 0.466184 0.452550
vt 0.562500 0.750000
vt 0.625000 0.750000
vt 0.625000 0.800000
vt 0.562500 0.800000
vt 0.625000 0.864286
vt 0.562500 0.850000
vt 0.562500 0.885714
vt 0.625000 0.900000
vt 0.625000 0.950000
vt 0.562500 0.950000
vt 0.625000 1.000000
vt 0.562500 1.000000
vt 0.825000 0.000000
vt 0.875000 0.000000
vt 0.875000 0.250000
vt 0.825000 0.250000
vt 0.775000 0.000000
vt 0.775000 0.250000
vt 0.725000 0.000000
vt 0.725000 0.250000
vt 0.675000 0.000000
vt 0.675000 0.250000
vt 0.625000 0.764286
vt 0.625000 0.816667
vt 0.625000 0.866667
vt 0.562500 0.835714
vt 0.544643 0.800000
vt 0.625000 0.916667
vt 0.562500 0.885714
vt 0.625000 0.962500
vt 0.562500 0.925000
vt 0.604167 1.000000
vt 0.625000 0.900000
vt 0.625000 0.850000
vt 0.562500 0.850000
vt 0.562500 0.900000
vt 0.544643 0.800000
vt 0.562500 0.800000
vn 0.0000 1.0000 -0.0000
vn 0.0731 0.9973 -0.0042
vn 0.0731 0.9973 0.0042
vn -1.0000 0.0000 -0.0000
vn -0.9993 -0.0253 0.0282
vn -0.9993 -0.0252 0.0282
vn 0.9993 0.0255 -0.0284
vn 0.9993 0.0254 -0.0285
vn -0.9987 -0.0504 0.0000
vn 0.9987 0.0510 -0.0000
vn -0.9993 -0.0249 -0.0281
vn -0.9993 -0.0256 -0.0281
vn 0.9993 0.0254 0.0285
vn 0.9993 0.0255 0.0284
vn 0.9893 -0.1458 0.0000
vn -0.9893 0.1458 -0.0000
vn 0.1458 0.9893 0.0023
usemtl initialShadingGroup
s 1
f 167/167/70 168/168/70 169/169/70 170/170/70
f 170/170/71 169/169/71 171/171/71 172/172/71
f 173/173/72 174/174/72 175/175/72 176/176/72
f 176/176/70 175/175/70 177/177/70 178/178/70
f 179/179/73 180/180/73 181/181/73 182/182/73
f 183/183/73 179/179/73 182/182/73 184/184/73
f 185/185/73 183/183/73 184/184/73 186/186/73
f 187/187/73 185/185/73 186/186/73 188/188/73
f 180/189/73 179/190/73 169/169/73 168/168/73
f 179/190/74 183/191/74 171/171/75 169/169/75
f 189/192/76 190/193/77 170/170/77 172/172/77
f 183/191/78 185/194/78 174/174/78 171/171/78
f 191/195/79 189/192/79 172/172/79 173/173/79
f 185/194/80 187/196/80 175/175/81 174/174/80
f 192/197/82 191/195/83 173/173/82 176/176/82
f 187/196/73 193/198/73 177/177/73 175/175/73
f 171/171/84 174/174/84 194/199/84 195/200/84
f 173/173/85 172/172/85 196/201/85 197/202/85
f 195/200/86 194/199/86 197/202/86 196/201/86
f 170/170/73 190/193/73 198/203/73 199/204/73
o box.004
v -0.398516 0.687840 0.126350
v -0.406377 0.688295 0.126350
v -0.406377 0.688295 -0.238468
v -0.398516 0.687840 -0.238468
v -0.402177 0.465579 0.191899
v -0.410318 0.466779 0.191899
v -0.409236 0.638898 0.173401
v -0.401375 0.638444 0.173401
v -0.410318 0.466779 -0.304018
v -0.402177 0.465579 -0.304018
v -0.401375 0.638444 -0.285519
v -0.409236 0.638898 -0.285519
v -0.407638 0.666512 -0.259512
v -0.407638 0.666507 -0.259507
v -0.411757 0.595327 -0.233500
v -0.410327 0.466720 -0.247805
v -0.399777 0.666057 0.147394
v -0.399777 0.666052 0.147388
v -0.403896 0.594872 0.121381
v -0.402311 0.464670 0.135686
v -0.403896 0.594872 -0.233500
v -0.402186 0.465519 -0.247805
v -0.411757 0.595327 0.121381
v -0.410452 0.465871 0.135686
v -0.401037 0.644269 -0.186449
v -0.408899 0.644724 -0.186449
v -0.408899 0.644724 0.074330
v -0.401037 0.644269 0.074330
v -0.399777 0.666057 -0.259512
v -0.399777 0.666052 -0.259507
v -0.407638 0.666512 0.147394
v -0.407638 0.666507 0.147388
v -0.398571 0.686891 0.135529
v -0.406432 0.687346 0.135529
v -0.398734 0.684080 0.144355
v -0.406595 0.684535 0.144355
v -0.398998 0.679515 0.152490
v -0.406859 0.679970 0.152490
v -0.399353 0.673372 0.159620
v -0.407215 0.673827 0.159620
v -0.399786 0.665887 0.165471
v -0.407648 0.666342 0.165471
v -0.400281 0.657347 0.169819
v -0.408142 0.657802 0.169819
v -0.400817 0.648080 0.172497
v -0.408678 0.648535 0.172497
v -0.406432 0.687346 -0.247648
v -0.398571 0.686891 -0.247648
v -0.406595 0.684535 -0.256474
v -0.398734 0.684080 -0.256474
v -0.406859 0.679970 -0.264609
v -0.398998 0.679515 -0.264609
v -0.407215 0.673827 -0.271739
v -0.399353 0.673372 -0.271739
v -0.407648 0.666342 -0.277590
v -0.399786 0.665887 -0.277590
v -0.408142 0.657802 -0.281938
v -0.400281 0.657347 -0.281938
v -0.408678 0.648535 -0.284615
v -0.400817 0.648080 -0.284615
v -0.411200 0.604964 -0.232596
v -0.403338 0.604509 -0.232596
v -0.410664 0.614230 -0.229919
v -0.402802 0.613775 -0.229919
v -0.410169 0.622770 -0.225571
v -0.402308 0.622315 -0.225571
v -0.409736 0.630256 -0.219719
v -0.401875 0.629801 -0.219719
v -0.409381 0.636399 -0.212589
v -0.401519 0.635944 -0.212589
v -0.409117 0.640963 -0.204455
v -0.401255 0.640509 -0.204455
v -0.408954 0.643774 -0.195628
v -0.401092 0.643319 -0.195628
v -0.408954 0.643774 0.083509
v -0.401092 0.643319 0.083509
v -0.409117 0.640963 0.092336
v -0.401255 0.640509 0.092336
v -0.409381 0.636399 0.100470
v -0.401519 0.635944 0.100470
v -0.409736 0.630256 0.107600
v -0.401875 0.629801 0.107600
v -0.410169 0.622770 0.113452
v -0.402308 0.622315 0.113452
v -0.410664 0.614230 0.117800
v -0.402802 0.613775 0.117800
v -0.411200 0.604964 0.120477
v -0.403338 0.604509 0.120477
vt 0.562500 0.865096
vt 0.625000 0.853987
vt 0.625000 0.884902
vt 0.562500 0.896013
vt 0.562500 0.850000
vt 0.625000 0.864286
vt 0.625000 0.852765
vt 0.562500 0.850000
vt 0.625000 0.900000
vt 0.562500 0.885714
vt 0.562500 0.897235
vt 0.625000 0.900000
vt 0.625000 0.891011
vt 0.625000 0.894445
vt 0.625000 0.894445
vt 0.625000 0.900000
vt 0.625000 0.900000
vt 0.562500 0.859028
vt 0.562500 0.855556
vt 0.562500 0.855618
vt 0.562500 0.850000
vt 0.562500 0.850000
vt 0.562500 0.900000
vt 0.562500 0.900000
vt 0.625000 0.850000
vt 0.625000 0.850000
vt 0.562500 0.893371
vt 0.625000 0.893371
vt 0.625000 0.856629
vt 0.562500 0.856629
vt 0.562500 0.900000
vt 0.562500 0.900000
vt 0.625000 0.850000
vt 0.625000 0.850000
vt 0.562500 0.864833
vt 0.606849 0.856846
vt 0.562500 0.864058
vt 0.596218 0.858028
vt 0.562500 0.862802
vt 0.595377 0.857079
vt 0.562500 0.861111
vt 0.625000 0.850000
vt 0.562500 0.850000
vt 0.562500 0.850000
vt 0.625000 0.850593
vt 0.562500 0.850000
vt 0.625000 0.851269
vt 0.562500 0.850000
vt 0.625000 0.852002
vt 0.606850 0.888205
vt 0.562500 0.896276
vt 0.596221 0.890987
vt 0.562500 0.897051
vt 0.595382 0.892676
vt 0.562500 0.898308
vt 0.625000 0.888889
vt 0.562500 0.900000
vt 0.625000 0.900000
vt 0.625000 0.900000
vt 0.562500 0.899408
vt 0.625000 0.900000
vt 0.562500 0.898732
vt 0.625000 0.900000
vt 0.562500 0.897998
vt 0.617792 0.899620
vt 0.570426 0.899927
vt 0.611351 0.899377
vt 0.576695 0.899840
vt 0.611060 0.899445
vt 0.576775 0.899838
vt 0.625000 0.900000
vt 0.562500 0.900000
vt 0.609632 0.898452
vt 0.577890 0.898721
vt 0.606609 0.896740
vt 0.580904 0.897081
vt 0.613098 0.894910
vt 0.574409 0.895184
vt 0.613095 0.854817
vt 0.574405 0.855094
vt 0.606605 0.852920
vt 0.580895 0.853265
vt 0.609627 0.851280
vt 0.577873 0.851553
vt 0.625000 0.850000
vt 0.562500 0.850000
vt 0.610967 0.850162
vt 0.576533 0.850560
vt 0.611236 0.850158
vt 0.576264 0.850629
vt 0.617720 0.850068
vt 0.569780 0.850384
vt 0.562500 0.859603
vt 0.562500 0.860155
vt 0.562500 0.860665
vt 0.625000 0.890426
vt 0.625000 0.889863
vt 0.625000 0.889344
vn 0.0578 0.9983 0.0044
vn 0.0578 0.9983 0.0005
vn 0.0578 0.9983 -0.0005
vn 0.0578 0.9983 -0.0044
vn 0.0110 0.1066 0.9942
vn 0.0110 0.1065 0.9942
vn 0.0091 0.1020 0.9947
vn 0.0110 0.1064 0.9943
vn 0.0114 0.1067 -0.9942
vn 0.0107 0.1065 -0.9943
vn 0.0110 0.1064 -0.9943
vn 0.0091 0.1020 -0.9947
vn -0.9998 0.0088 -0.0198
vn -0.9983 0.0576 -0.0000
vn -0.9992 0.0387 -0.0078
vn -0.9998 0.0087 -0.0198
vn 0.9997 -0.0075 -0.0220
vn 0.9997 -0.0077 -0.0213
vn 0.9983 -0.0574 -0.0001
vn 0.9992 -0.0384 -0.0083
vn 0.9997 -0.0076 -0.0213
vn 0.9997 -0.0073 -0.0219
vn -0.0114 -0.1103 0.9938
vn -0.0090 -0.1034 0.9946
vn -0.0113 -0.1102 0.9938
vn -0.0114 -0.1104 0.9938
vn -0.0113 -0.1095 -0.9939
vn -0.0089 -0.1030 -0.9946
vn -0.0113 -0.1096 -0.9939
vn -0.0114 -0.1096 -0.9939
vn -0.0578 -0.9983 0.0062
vn -0.0578 -0.9983 0.0008
vn -0.0578 -0.9983 -0.0008
vn -0.0578 -0.9983 -0.0062
vn 0.9983 -0.0578 -0.0000
vn 0.9983 -0.0575 0.0001
vn 0.9992 -0.0382 0.0080
vn -0.9983 0.0575 0.0001
vn -0.9997 0.0091 0.0207
vn -0.9997 0.0092 0.0206
vn -0.9992 0.0387 0.0081
vn -0.9983 0.0578 0.0000
vn -0.9983 0.0577 0.0000
vn 0.9998 -0.0072 0.0205
vn 0.9998 -0.0073 0.0207
vn 0.9998 -0.0074 0.0208
vn 0.9998 -0.0072 0.0204
vn 0.0554 0.9572 0.2840
vn 0.0573 0.9907 0.1230
vn 0.0509 0.8797 0.4728
vn 0.0547 0.9449 0.3227
vn 0.0445 0.7681 0.6387
vn 0.0498 0.8606 0.5069
vn 0.0364 0.6289 0.7766
vn 0.0430 0.7432 0.6677
vn 0.0271 0.4687 0.8830
vn 0.0347 0.5994 0.7997
vn 0.0170 0.2941 0.9556
vn 0.0252 0.4358 0.8997
vn 0.0064 0.1110 0.9938
vn 0.0150 0.2592 0.9657
vn 0.0573 0.9907 -0.1230
vn 0.0554 0.9572 -0.2840
vn 0.0547 0.9449 -0.3227
vn 0.0510 0.8797 -0.4728
vn 0.0498 0.8606 -0.5069
vn 0.0445 0.7681 -0.6387
vn 0.0430 0.7432 -0.6677
vn 0.0364 0.6289 -0.7766
vn 0.0347 0.5993 -0.7998
vn 0.0271 0.4687 -0.8830
vn 0.0252 0.4358 -0.8997
vn 0.0170 0.2941 -0.9556
vn 0.0150 0.2592 -0.9657
vn 0.0064 0.1110 -0.9938
vn -0.0150 -0.2591 0.9657
vn -0.0065 -0.1111 0.9938
vn -0.0253 -0.4358 0.8997
vn -0.0170 -0.2942 0.9556
vn -0.0347 -0.5993 0.7998
vn -0.0271 -0.4687 0.8829
vn -0.0430 -0.7431 0.6678
vn -0.0364 -0.6290 0.7766
vn -0.0498 -0.8605 0.5070
vn -0.0445 -0.7682 0.6386
vn -0.0547 -0.9449 0.3228
vn -0.0509 -0.8798 0.4727
vn -0.0573 -0.9907 0.1232
vn -0.0554 -0.9573 0.2838
vn -0.0573 -0.9907 -0.1232
vn -0.0554 -0.9573 -0.2838
vn -0.0547 -0.9449 -0.3228
vn -0.0509 -0.8798 -0.4727
vn -0.0498 -0.8605 -0.5070
vn -0.0445 -0.7682 -0.6386
vn -0.0430 -0.7431 -0.6678
vn -0.0364 -0.6290 -0.7766
vn -0.0347 -0.5993 -0.7998
vn -0.0271 -0.4687 -0.8829
vn -0.0252 -0.4358 -0.8997
vn -0.0170 -0.2942 -0.9556
vn -0.0150 -0.2591 -0.9657
vn -0.0064 -0.1111 -0.9938
vn 0.9983 -0.0577 0.0000
vn -0.9983 0.0581 0.0000
vn 0.9983 -0.0581 0.0000
vn 0.9983 -0.0574 0.0000
usemtl initialShadingGroup
s 1
f 200/205/87 201/206/88 202/207/89 203/208/90
f 204/209/91 205/210/92 206/211/93 207/212/94
f 208/213/95 209/214/96 210/215/97 211/216/98
f 208/213/99 211/217/99 212/218/100 213/219/101 214/220/99 215/221/102
f 204/209/103 207/222/104 216/223/105 217/224/106 218/225/107 219/226/108
f 215/221/109 214/220/110 220/227/111 221/228/112
f 218/225/113 222/229/114 223/230/115 219/226/116
f 224/231/117 225/232/118 226/233/119 227/234/120
f 216/223/105 200/205/121 203/208/121 228/235/122 229/236/123 224/231/121 227/234/121 217/224/106
f 230/237/124 206/211/125 205/210/126 223/230/126 222/229/125 231/238/127
f 212/218/100 202/207/128 201/206/128 230/237/124 231/238/127 226/233/129 225/232/129 213/219/101
f 228/235/122 210/215/130 209/214/131 221/228/132 220/227/133 229/236/123
f 200/205/87 232/239/134 233/240/135 201/206/88
f 232/239/134 234/241/136 235/242/137 233/240/135
f 234/241/136 236/243/138 237/244/139 235/242/137
f 236/243/138 238/245/140 239/246/141 237/244/139
f 238/247/140 240/248/142 241/249/143 239/246/141
f 240/248/142 242/250/144 243/251/145 241/249/143
f 242/250/144 244/252/146 245/253/147 243/251/145
f 244/252/146 207/212/94 206/211/93 245/253/147
f 202/207/89 246/254/148 247/255/149 203/208/90
f 246/254/148 248/256/150 249/257/151 247/255/149
f 248/256/150 250/258/152 251/259/153 249/257/151
f 250/258/152 252/260/154 253/261/155 251/259/153
f 252/262/154 254/263/156 255/264/157 253/261/155
f 254/263/156 256/265/158 257/266/159 255/264/157
f 256/265/158 258/267/160 259/268/161 257/266/159
f 258/267/160 211/216/98 210/215/97 259/268/161
f 214/220/110 260/269/162 261/270/163 220/227/111
f 260/269/162 262/271/164 263/272/165 261/270/163
f 262/271/164 264/273/166 265/274/167 263/272/165
f 264/273/166 266/275/168 267/276/169 265/274/167
f 266/275/168 268/277/170 269/278/171 267/276/169
f 268/277/170 270/279/172 271/280/173 269/278/171
f 270/279/172 272/281/174 273/282/175 271/280/173
f 272/281/174 225/232/118 224/231/117 273/282/175
f 226/233/119 274/283/176 275/284/177 227/234/120
f 274/283/176 276/285/178 277/286/179 275/284/177
f 276/285/178 278/287/180 279/288/181 277/286/179
f 278/287/180 280/289/182 281/290/183 279/288/181
f 280/289/182 282/291/184 283/292/185 281/290/183
f 282/291/184 284/293/186 285/294/187 283/292/185
f 284/293/186 286/295/188 287/296/189 285/294/187
f 286/295/188 222/229/114 218/225/113 287/296/189
f 216/223/105 207/222/104 244/297/190
f 216/223/105 244/297/190 242/298/190
f 216/223/105 242/298/190 240/299/121
f 216/223/105 240/299/121 238/245/190
f 216/223/105 238/245/190 236/243/190
f 216/223/105 236/243/190 234/241/190
f 216/223/105 234/241/190 232/239/121
f 216/223/105 232/239/121 200/205/121
f 230/237/124 201/206/128 233/240/128
f 230/237/124 233/240/128 235/242/129
f 230/237/124 235/242/129 237/244/191
f 230/237/124 237/244/191 239/246/128
f 230/237/124 239/246/128 241/249/128
f 230/237/124 241/249/128 243/251/129
f 230/237/124 243/251/129 245/253/129
f 230/237/124 245/253/129 206/211/125
f 212/218/100 211/217/99 258/300/128
f 212/218/100 258/300/128 256/301/129
f 212/218/100 256/301/129 254/302/128
f 212/218/100 254/302/128 252/260/129
f 212/218/100 252/260/129 250/258/128
f 212/218/100 250/258/128 248/256/129
f 212/218/100 248/256/129 246/254/128
f 212/218/100 246/254/128 202/207/128
f 228/235/122 203/208/121 247/255/121
f 228/235/122 247/255/121 249/257/190
f 228/235/122 249/257/190 251/259/121
f 228/235/122 251/259/121 253/261/190
f 228/235/122 253/261/190 255/264/121
f 228/235/122 255/264/121 257/266/190
f 228/235/122 257/266/190 259/268/190
f 228/235/122 259/268/190 210/215/130
f 213/219/101 225/232/129 272/281/129
f 213/219/101 272/281/129 270/279/128
f 213/219/101 270/279/128 268/277/129
f 213/219/101 268/277/129 266/275/129
f 213/219/101 266/275/129 264/273/129
f 213/219/101 264/273/129 262/271/128
f 213/219/101 262/271/128 260/269/129
f 213/219/101 260/269/129 214/220/99
f 229/236/123 220/227/133 261/270/121
f 229/236/123 261/270/121 263/272/192
f 229/236/123 263/272/192 265/274/190
f 229/236/123 265/274/190 267/276/190
f 229/236/123 267/276/190 269/278/121
f 229/236/123 269/278/121 271/280/193
f 229/236/123 271/280/193 273/282/121
f 229/236/123 273/282/121 224/231/121
f 231/238/127 222/229/125 286/295/128
f 231/238/127 286/295/128 284/293/128
f 231/238/127 284/293/128 282/291/129
f 231/238/127 282/291/129 280/289/129
f 231/238/127 280/289/129 278/287/191
f 231/238/127 278/287/191 276/285/128
f 231/238/127 276/285/128 274/283/129
f 231/238/127 274/283/129 226/233/129
f 217/224/106 227/234/121 275/284/121
f 217/224/106 275/284/121 277/286/190
f 217/224/106 277/286/190 279/288/121
f 217/224/106 279/288/121 281/290/190
f 217/224/106 281/290/190 283/292/121
f 217/224/106 283/292/121 285/294/121
f 217/224/106 285/294/121 287/296/121
f 217/224/106 287/296/121 218/225/107
o box.005
v 0.338199 0.169428 -0.580130
v 0.329970 0.169428 -0.580130
v 0.329970 0.157282 -0.580130
v 0.338200 0.157282 -0.580130
v -0.028555 0.169428 -0.580130
v -0.028555 0.157282 -0.580130
v -0.387080 0.169428 -0.580130
v -0.387080 0.157282 -0.580130
v -0.395309 0.169428 -0.580130
v -0.395309 0.157282 -0.580130
v 0.338200 0.466184 -0.569508
v 0.329970 0.466184 -0.569508
v 0.329970 0.466184 -0.580130
v 0.338200 0.466184 -0.580130
v -0.028555 0.466184 -0.580130
v -0.028555 0.466184 -0.569509
v -0.387080 0.466184 -0.569508
v -0.387080 0.466184 -0.580130
v -0.395309 0.169428 -0.569508
v -0.395309 0.157282 -0.569508
v -0.395309 0.466184 -0.580130
v 0.100854 0.425065 -0.569508
v 0.092034 0.419631 -0.569508
v 0.084858 0.412159 -0.569508
v 0.079786 0.403126 -0.569508
v 0.077140 0.393110 -0.569508
v 0.077092 0.382750 -0.569508
v 0.079642 0.372710 -0.569508
v 0.122103 0.264995 -0.569508
v 0.126084 0.256508 -0.569508
v 0.131101 0.248591 -0.569508
v 0.137074 0.241368 -0.569508
v 0.143909 0.234954 -0.569508
v 0.151498 0.229451 -0.569508
v 0.159718 0.224947 -0.569508
v 0.168440 0.221514 -0.569508
v 0.329970 0.169428 -0.569508
v -0.028555 0.169428 -0.569508
v 0.110755 0.428114 -0.569508
v -0.212607 0.225184 -0.569508
v -0.204377 0.229746 -0.569508
v -0.196827 0.235362 -0.569508
v -0.190092 0.241932 -0.569508
v -0.184291 0.249341 -0.569508
v -0.179528 0.257455 -0.569508
v -0.175887 0.266131 -0.569508
v -0.139071 0.373405 -0.569508
v -0.136955 0.383471 -0.569508
v -0.137360 0.393748 -0.569508
v -0.140263 0.403616 -0.569508
v -0.145488 0.412476 -0.569508
v -0.152718 0.419791 -0.569508
v -0.161516 0.425120 -0.569508
v -0.171348 0.428139 -0.569508
v -0.387080 0.169428 -0.569508
v -0.221370 0.221759 -0.569508
vt 0.375000 0.000000
vt 0.437500 0.000000
vt 0.437500 0.250000
vt 0.375000 0.250000
vt 0.500000 0.000000
vt 0.500000 0.250000
vt 0.562500 0.000000
vt 0.562500 0.250000
vt 0.625000 0.000000
vt 0.625000 0.250000
vt 0.375000 0.950000
vt 0.437500 0.950000
vt 0.437500 1.000000
vt 0.375000 1.000000
vt 0.500000 1.000000
vt 0.500000 0.950000
vt 0.562500 0.950000
vt 0.562500 1.000000
vt 0.675000 0.000000
vt 0.675000 0.250000
vt 0.437500 1.000000
vt 0.375000 0.983333
vt 0.479167 1.000000
vt 0.541667 1.000000
vt 0.604167 1.000000
vt 0.625000 1.000000
vt 0.437746 0.950000
vt 0.438184 0.950000
vt 0.438786 0.950000
vt 0.439514 0.950000
vt 0.440321 0.950000
vt 0.441155 0.950000
vt 0.441964 0.950000
vt 0.452238 0.950000
vt 0.452847 0.950000
vt 0.453415 0.950000
vt 0.453933 0.950000
vt 0.454393 0.950000
vt 0.454788 0.950000
vt 0.455111 0.950000
vt 0.455357 0.950000
vt 0.455357 0.950000
vt 0.500000 0.950000
vt 0.437500 0.950000
vt 0.562500 0.940139
vt 0.562500 0.940324
vt 0.562500 0.940552
vt 0.562500 0.940818
vt 0.562500 0.941118
vt 0.562500 0.941447
vt 0.562500 0.941798
vt 0.562500 0.947529
vt 0.562500 0.947984
vt 0.562500 0.948448
vt 0.562500 0.948893
vt 0.562500 0.949293
vt 0.562500 0.949623
vt 0.562500 0.949864
vt 0.562500 0.950000
vt 0.525000 0.950000
vt 0.562500 0.940000
vt 0.562500 0.940000
vn -0.0000 0.0000 -1.0000
vn 0.0000 1.0000 -0.0000
vn -1.0000 0.0000 0.0000
vn -0.0000 0.0003 -1.0000
vn -0.0000 -0.0000 1.0000
usemtl initialShadingGroup
s 1
f 288/303/194 289/304/194 290/305/194 291/306/194
f 289/304/194 292/307/194 293/308/194 290/305/194
f 292/307/194 294/309/194 295/310/194 293/308/194
f 294/309/194 296/311/194 297/312/194 295/310/194
f 298/313/195 299/314/195 300/315/195 301/316/195
f 302/317/195 300/315/195 299/314/195 303/318/195 304/319/195 305/320/195
f 296/311/196 306/321/196 307/322/196 297/312/196
f 289/323/194 288/324/194 301/316/197 300/315/194
f 292/325/194 289/323/194 300/315/194 302/317/194
f 294/326/194 292/325/194 302/317/194 305/320/194
f 296/327/194 294/326/194 305/320/194 308/328/194
f 309/329/198 310/330/198 311/331/198 312/332/198 313/333/198 314/334/198 315/335/198 316/336/198 317/337/198 318/338/198 319/339/198 320/340/198 321/341/198 322/342/198 323/343/198 324/344/198 325/345/198 303/318/198 299/314/198 326/346/198
f 327/347/198 328/348/198 329/349/198 330/350/198 331/351/198 332/352/198 333/353/198 334/354/198 335/355/198 336/356/198 337/357/198 338/358/198 339/359/198 340/360/198 341/361/198 304/319/198 303/318/198 325/362/198 342/363/198 343/364/198
o box.006
v 0.329970 0.169428 -0.569508
v 0.168440 0.221514 -0.569508
v 0.168440 0.221514 -0.564669
v 0.329970 0.169428 -0.564669
v 0.122103 0.264995 -0.564669
v 0.122103 0.264995 -0.569508
v 0.079642 0.372710 -0.569508
v 0.079642 0.372710 -0.564669
v 0.110755 0.428114 -0.564669
v 0.110755 0.428114 -0.569508
v 0.329970 0.466184 -0.569508
v 0.329970 0.466184 -0.564669
v -0.387080 0.169428 -0.569508
v -0.387080 0.466184 -0.569508
v -0.387080 0.466184 -0.564669
v -0.387080 0.169428 -0.564669
v -0.171348 0.428139 -0.569508
v -0.171348 0.428139 -0.564669
v -0.139071 0.373405 -0.564669
v -0.139071 0.373405 -0.569508
v -0.175887 0.266131 -0.569508
v -0.175887 0.266131 -0.564669
v -0.221370 0.221759 -0.564669
v -0.221370 0.221759 -0.569508
v 0.159718 0.224947 -0.569508
v 0.159718 0.224947 -0.564669
v 0.151498 0.229451 -0.569508
v 0.151498 0.229451 -0.564669
v 0.143909 0.234954 -0.569508
v 0.143909 0.234954 -0.564669
v 0.137074 0.241368 -0.569508
v 0.137074 0.241368 -0.564669
v 0.131101 0.248591 -0.569508
v 0.131101 0.248591 -0.564669
v 0.126084 0.256508 -0.569508
v 0.126084 0.256508 -0.564669
v 0.077092 0.382750 -0.569508
v 0.077092 0.382750 -0.564669
v 0.077140 0.393110 -0.569508
v 0.077140 0.393110 -0.564669
v 0.079786 0.403126 -0.569508
v 0.079786 0.403126 -0.564669
v 0.084858 0.412159 -0.569508
v 0.084858 0.412159 -0.564669
v 0.092034 0.419631 -0.569508
v 0.092034 0.419631 -0.564669
v 0.100854 0.425065 -0.569508
v 0.100854 0.425065 -0.564669
v -0.161516 0.425120 -0.569508
v -0.161516 0.425120 -0.564669
v -0.152718 0.419791 -0.569508
v -0.152718 0.419791 -0.564669
v -0.145488 0.412476 -0.569508
v -0.145488 0.412476 -0.564669
v -0.140263 0.403616 -0.569508
v -0.140263 0.403616 -0.564669
v -0.137360 0.393748 -0.569508
v -0.137360 0.393748 -0.564669
v -0.136955 0.383471 -0.569508
v -0.136955 0.383471 -0.564669
v -0.179528 0.257455 -0.569508
v -0.179528 0.257455 -0.564669
v -0.184291 0.249341 -0.569508
v -0.184291 0.249341 -0.564669
v -0.190092 0.241932 -0.569508
v -0.190092 0.241932 -0.564669
v -0.196827 0.235362 -0.569508
v -0.196827 0.235362 -0.564669
v -0.204377 0.229746 -0.569508
v -0.204377 0.229746 -0.564669
v -0.212607 0.225184 -0.569508
v -0.212607 0.225184 -0.564669
vt 0.455357 0.950000
vt 0.455357 0.950000
vt 0.455357 0.950000
vt 0.455357 0.950000
vt 0.452238 0.950000
vt 0.452238 0.950000
vt 0.441964 0.950000
vt 0.441964 0.950000
vt 0.437500 0.950000
vt 0.437500 0.950000
vt 0.437500 0.950000
vt 0.437500 0.950000
vt 0.562500 0.940000
vt 0.562500 0.950000
vt 0.562500 0.950000
vt 0.562500 0.940000
vt 0.562500 0.950000
vt 0.562500 0.950000
vt 0.562500 0.947529
vt 0.562500 0.947529
vt 0.562500 0.941798
vt 0.562500 0.941798
vt 0.562500 0.940000
vt 0.562500 0.940000
vt 0.455111 0.950000
vt 0.455111 0.950000
vt 0.454788 0.950000
vt 0.454788 0.950000
vt 0.454393 0.950000
vt 0.454393 0.950000
vt 0.453933 0.950000
vt 0.453933 0.950000
vt 0.453415 0.950000
vt 0.453415 0.950000
vt 0.452847 0.950000
vt 0.452847 0.950000
vt 0.441155 0.950000
vt 0.441155 0.950000
vt 0.440321 0.950000
vt 0.440320 0.950000
vt 0.439514 0.950000
vt 0.439514 0.950000
vt 0.438786 0.950000
vt 0.438786 0.950000
vt 0.438184 0.950000
vt 0.438184 0.950000
vt 0.437746 0.950000
vt 0.437746 0.950000
vt 0.562500 0.949864
vt 0.562500 0.949864
vt 0.562500 0.949623
vt 0.562500 0.949623
vt 0.562500 0.949293
vt 0.562500 0.949293
vt 0.562500 0.948893
vt 0.562500 0.948893
vt 0.562500 0.948448
vt 0.562500 0.948448
vt 0.562500 0.947984
vt 0.562500 0.947984
vt 0.562500 0.941447
vt 0.562500 0.941447
vt 0.562500 0.941118
vt 0.562500 0.941118
vt 0.562500 0.940818
vt 0.562500 0.940818
vt 0.562500 0.940552
vt 0.562500 0.940551
vt 0.562500 0.940324
vt 0.562500 0.940324
vt 0.562500 0.940139
vt 0.562500 0.940139
vn -0.3068 -0.9518 0.0000
vn -0.3101 -0.9507 -0.0000
vn -0.9286 -0.3712 0.0000
vn -0.9341 -0.3571 0.0000
vn -0.1766 0.9843 -0.0000
vn -0.1712 0.9852 -0.0000
vn -1.0000 0.0000 0.0000
vn 0.1736 0.9848 0.0000
vn 0.1791 0.9838 0.0000
vn 0.9491 -0.3149 0.0000
vn 0.9442 -0.3294 -0.0000
vn 0.3044 -0.9525 -0.0000
vn 0.3012 -0.9536 -0.0000
vn -0.4248 -0.9053 0.0003
vn -0.4248 -0.9053 -0.0003
vn -0.5349 -0.8449 -0.0000
vn -0.6365 -0.7713 0.0000
vn -0.7289 -0.6846 -0.0000
vn -0.8095 -0.5871 0.0001
vn -0.8095 -0.5871 -0.0001
vn -0.8768 -0.4809 -0.0000
vn -0.9926 -0.1217 0.0000
vn -0.9914 0.1311 0.0000
vn -0.9268 0.3755 0.0000
vn -0.8030 0.5959 0.0000
vn -0.6279 0.7783 0.0000
vn -0.4127 0.9109 0.0000
vn 0.4089 0.9126 -0.0000
vn 0.6194 0.7851 -0.0000
vn 0.7923 0.6101 -0.0000
vn 0.9173 0.3981 -0.0000
vn 0.9867 0.1624 -0.0000
vn 0.9868 0.1621 -0.0000
vn 0.9965 -0.0835 0.0000
vn 0.8942 -0.4476 0.0001
vn 0.8942 -0.4476 -0.0001
vn 0.8267 -0.5627 -0.0000
vn 0.7445 -0.6676 -0.0000
vn 0.6491 -0.7607 -0.0000
vn 0.5420 -0.8404 0.0000
vn 0.4254 -0.9050 -0.0000
vn 0.0000 0.0000 1.0000
usemtl initialShadingGroup
s 1
f 344/365/199 345/366/200 346/367/200 347/368/199
f 348/369/201 349/370/201 350/371/202 351/372/202
f 352/373/203 353/374/203 354/375/204 355/376/204
f 356/377/205 357/378/205 358/379/205 359/380/205
f 357/378/206 360/381/207 361/382/207 358/379/206
f 362/383/208 363/384/208 364/385/209 365/386/209
f 366/387/210 367/388/210 356/377/211 359/380/211
f 345/366/200 368/389/212 369/390/213 346/367/200
f 368/389/212 370/391/214 371/392/214 369/390/213
f 370/391/214 372/393/215 373/394/215 371/392/214
f 372/393/215 374/395/216 375/396/216 373/394/215
f 374/395/216 376/397/217 377/398/218 375/396/216
f 376/397/217 378/399/219 379/400/219 377/398/218
f 378/399/219 349/370/201 348/369/201 379/400/219
f 350/371/202 380/401/220 381/402/220 351/372/202
f 380/401/220 382/403/221 383/404/221 381/402/220
f 382/403/221 384/405/222 385/406/222 383/404/221
f 384/405/222 386/407/223 387/408/223 385/406/222
f 386/407/223 388/409/224 389/410/224 387/408/223
f 388/409/224 390/411/225 391/412/225 389/410/224
f 390/411/225 353/374/203 352/373/203 391/412/225
f 360/381/207 392/413/226 393/414/226 361/382/207
f 392/413/226 394/415/227 395/416/227 393/414/226
f 394/415/227 396/417/228 397/418/228 395/416/227
f 396/417/228 398/419/229 399/420/229 397/418/228
f 398/419/229 400/421/230 401/422/231 399/420/229
f 400/421/230 402/423/232 403/424/232 401/422/231
f 402/423/232 363/384/208 362/383/208 403/424/232
f 364/385/209 404/425/233 405/426/234 365/386/209
f 404/425/233 406/427/235 407/428/235 405/426/234
f 406/427/235 408/429/236 409/430/236 407/428/235
f 408/429/236 410/431/237 411/432/237 409/430/236
f 410/431/237 412/433/238 413/434/238 411/432/237
f 412/433/238 414/435/239 415/436/239 413/434/238
f 414/435/239 367/388/210 366/387/210 415/436/239
f 352/373/240 355/376/240 347/368/240 346/367/240 369/390/240 371/392/240 373/394/240 375/396/240 377/398/240 379/400/240 348/369/240 351/372/240 381/402/240 383/404/240 385/406/240 387/408/240 389/410/240 391/412/240
f 366/387/240 359/380/240 358/379/240 361/382/240 393/414/240 395/416/240 397/418/240 399/420/240 401/422/240 403/424/240 362/383/240 365/386/240 405/426/240 407/428/240 409/430/240 411/432/240 413/434/240 415/436/240
o box.007
v 0.338200 0.157282 -0.580130
v 0.329970 0.157282 -0.580130
v 0.329970 0.157282 -0.569508
v 0.338200 0.157282 -0.569508
v -0.028555 0.157282 -0.580130
v -0.028555 0.157282 -0.569508
v -0.387080 0.157282 -0.580130
v -0.387080 0.157282 -0.569508
v -0.395309 0.157282 -0.580130
v -0.395309 0.157282 -0.569508
v 0.329970 0.157282 -0.304018
v 0.338200 0.157282 -0.304018
v -0.028555 0.157282 -0.304018
v -0.387080 0.157282 -0.304018
v -0.395309 0.157282 -0.304018
v 0.329970 0.157283 0.191899
v 0.338200 0.157283 0.191899
v -0.028555 0.157283 0.191899
v -0.387080 0.157283 0.191899
v -0.395309 0.157283 0.191899
v 0.329970 0.157283 0.457390
v 0.338200 0.157283 0.457390
v -0.028555 0.157283 0.457390
v -0.387080 0.157283 0.457390
v -0.395309 0.157283 0.457390
v 0.329970 0.157283 0.468011
v 0.338200 0.157283 0.468011
v -0.028555 0.157283 0.468011
v -0.387080 0.157283 0.468011
v -0.395309 0.157283 0.468011
v -0.387080 0.169428 -0.304018
v -0.387080 0.169428 -0.569508
v -0.028555 0.169428 -0.569508
v 0.329970 0.169428 -0.569508
v 0.329970 0.169428 -0.304018
v 0.329970 0.169429 0.191899
v 0.329970 0.169429 0.457390
v -0.028555 0.169429 0.457390
v -0.387080 0.169429 0.457390
v -0.387080 0.169429 0.191899
vt 0.375000 0.250000
vt 0.437500 0.250000
vt 0.437500 0.300000
vt 0.375000 0.300000
vt 0.500000 0.250000
vt 0.500000 0.300000
vt 0.562500 0.250000
vt 0.562500 0.300000
vt 0.625000 0.250000
vt 0.625000 0.300000
vt 0.437500 0.350000
vt 0.375000 0.350000
vt 0.500000 0.350000
vt 0.562500 0.350000
vt 0.625000 0.350000
vt 0.437500 0.400000
vt 0.375000 0.400000
vt 0.500000 0.400000
vt 0.562500 0.400000
vt 0.625000 0.400000
vt 0.437500 0.450000
vt 0.375000 0.450000
vt 0.500000 0.450000
vt 0.562500 0.450000
vt 0.625000 0.450000
vt 0.437500 0.500000
vt 0.375000 0.500000
vt 0.500000 0.500000
vt 0.562500 0.500000
vt 0.625000 0.500000
vt 0.562500 0.885714
vt 0.562500 0.940000
vt 0.525000 0.950000
vt 0.455357 0.950000
vt 0.437500 0.916667
vt 0.437500 0.850000
vt 0.437500 0.820000
vt 0.482143 0.800000
vt 0.544643 0.800000
vt 0.562500 0.835714
vn -0.0000 -1.0000 0.0000
vn -0.0000 1.0000 0.0000
usemtl initialShadingGroup
s 1
f 416/437/241 417/438/241 418/439/241 419/440/241
f 417/438/241 420/441/241 421/442/241 418/439/241
f 420/441/241 422/443/241 423/444/241 421/442/241
f 422/443/241 424/445/241 425/446/241 423/444/241
f 419/440/241 418/439/241 426/447/241 427/448/241
f 418/439/241 421/442/241 428/449/241 426/447/241
f 421/442/241 423/444/241 429/450/241 428/449/241
f 423/444/241 425/446/241 430/451/241 429/450/241
f 427/448/241 426/447/241 431/452/241 432/453/241
f 426/447/241 428/449/241 433/454/241 431/452/241
f 428/449/241 429/450/241 434/455/241 433/454/241
f 429/450/241 430/451/241 435/456/241 434/455/241
f 432/453/241 431/452/241 436/457/241 437/458/241
f 431/452/241 433/454/241 438/459/241 436/457/241
f 433/454/241 434/455/241 439/460/241 438/459/241
f 434/455/241 435/456/241 440/461/241 439/460/241
f 437/458/241 436/457/241 441/462/241 442/463/241
f 436/457/241 438/459/241 443/464/241 441/462/241
f 438/459/241 439/460/241 444/465/241 443/464/241
f 439/460/241 440/461/241 445/466/241 444/465/241
f 446/467/242 447/468/242 448/469/242 449/470/242 450/471/242 451/472/242 452/473/242 453/474/242 454/475/242 455/476/242
o box.008
v 0.338200 0.466184 0.468011
v 0.329970 0.466184 0.468011
v 0.329970 0.466184 0.457390
v 0.338200 0.466184 0.457389
v 0.349839 0.466184 0.191899
v 0.358069 0.466184 0.191899
v 0.358069 0.466184 -0.304018
v 0.349839 0.466184 -0.304018
v 0.329970 0.466184 -0.569508
v 0.338200 0.466184 -0.569508
v 0.338199 0.169429 0.468011
v 0.338199 0.169429 0.457390
v 0.338200 0.157283 0.457390
v 0.338200 0.157283 0.468011
v 0.338199 0.169429 0.191899
v 0.338200 0.157283 0.191899
v 0.338199 0.169428 -0.304018
v 0.338200 0.157282 -0.304018
v 0.338199 0.169428 -0.569508
v 0.338200 0.157282 -0.569508
v 0.338199 0.169428 -0.580130
v 0.338200 0.157282 -0.580130
v 0.329970 0.169429 0.457390
v 0.329970 0.169429 0.191899
v 0.329970 0.169428 -0.304018
v 0.329970 0.169428 -0.569508
v 0.338200 0.466184 -0.580130
v 0.349839 0.466124 -0.247805
v 0.349839 0.465265 0.135686
v 0.358069 0.465265 0.135686
v 0.358069 0.466124 -0.247805
v 0.329970 0.466184 0.452550
v 0.329970 0.169429 0.452550
v 0.329970 0.169428 -0.564669
v 0.329970 0.466184 -0.564669
vt 0.375000 0.750000
vt 0.437500 0.750000
vt 0.437500 0.800000
vt 0.375000 0.800000
vt 0.437500 0.850000
vt 0.375000 0.850000
vt 0.375000 0.900000
vt 0.437500 0.900000
vt 0.437500 0.950000
vt 0.375000 0.950000
vt 0.125000 0.000000
vt 0.175000 0.000000
vt 0.175000 0.250000
vt 0.125000 0.250000
vt 0.225000 0.000000
vt 0.225000 0.250000
vt 0.275000 0.000000
vt 0.275000 0.250000
vt 0.325000 0.000000
vt 0.325000 0.250000
vt 0.375000 0.000000
vt 0.375000 0.250000
vt 0.375000 0.783333
vt 0.375000 0.750000
vt 0.437500 0.800000
vt 0.437500 0.866667
vt 0.375000 0.833333
vt 0.437500 0.912500
vt 0.375000 0.883333
vt 0.455357 0.950000
vt 0.375000 0.933333
vt 0.375000 0.983333
vt 0.375000 1.000000
vt 0.437500 0.866667
vt 0.437500 0.900000
vt 0.437500 0.850000
vt 0.375000 0.883333
vt 0.375000 0.850000
vt 0.375000 0.900000
vt 0.437500 0.800000
vt 0.437500 0.800000
vt 0.455357 0.950000
vt 0.437500 0.950000
vn 0.0000 1.0000 -0.0000
vn 1.0000 -0.0000 -0.0000
vn 1.0000 0.0001 0.0000
vn -0.9987 0.0334 -0.0374
vn -0.9987 0.0335 -0.0373
vn 0.9987 -0.0334 0.0374
vn -0.9978 0.0669 -0.0000
vn 0.9978 -0.0665 0.0000
vn 0.9978 -0.0665 -0.0001
vn 0.9978 -0.0665 0.0001
vn -0.9987 0.0334 0.0374
vn -0.9987 0.0334 0.0373
vn 0.9987 -0.0334 -0.0374
vn 1.0000 0.0003 -0.0000
vn 1.0000 0.0003 0.0002
vn -1.0000 -0.0000 -0.0000
vn 0.0000 1.0000 0.0023
usemtl initialShadingGroup
s 1
f 456/477/243 457/478/243 458/479/243 459/480/243
f 459/480/243 458/479/243 460/481/243 461/482/243
f 462/483/243 463/484/243 464/485/243 465/486/243
f 466/487/244 467/488/244 468/489/244 469/490/244
f 467/488/244 470/491/244 471/492/244 468/489/244
f 470/491/244 472/493/244 473/494/244 471/492/244
f 472/493/244 474/495/244 475/496/244 473/494/244
f 474/495/244 476/497/244 477/498/245 475/496/244
f 467/499/244 466/500/244 456/477/244 459/480/244
f 478/501/246 479/502/246 460/481/247 458/479/246
f 470/503/248 467/499/248 459/480/248 461/482/248
f 479/502/249 480/504/249 463/484/249 460/481/249
f 472/505/250 470/503/251 461/482/250 462/483/252
f 480/504/253 481/506/253 464/485/253 463/484/254
f 474/507/255 472/505/255 462/483/255 465/486/255
f 476/508/244 474/507/244 465/486/256 482/509/257
f 460/510/244 463/484/244 483/511/244 484/512/244
f 462/513/258 461/482/258 485/514/258 486/515/258
f 484/512/259 483/511/259 486/515/259 485/514/259
f 478/501/244 458/479/244 487/516/244 488/517/244
f 464/485/244 481/506/244 489/518/244 490/519/244
o box.009
v 0.361750 0.688168 0.126350
v 0.353876 0.688121 0.126350
v 0.353876 0.688121 -0.238468
v 0.361750 0.688168 -0.238468
v 0.358069 0.466184 0.191899
v 0.349839 0.466184 0.191899
v 0.354171 0.638643 0.173401
v 0.362045 0.638690 0.173401
v 0.349839 0.466184 -0.304018
v 0.358069 0.466184 -0.304018
v 0.362045 0.638690 -0.285519
v 0.354171 0.638643 -0.285519
v 0.354006 0.666302 -0.259512
v 0.354006 0.666297 -0.259507
v 0.354432 0.594999 -0.233500
v 0.349839 0.466124 -0.247805
v 0.361880 0.666349 0.147394
v 0.361880 0.666344 0.147388
v 0.362306 0.595046 0.121381
v 0.358069 0.465265 0.135686
v 0.362306 0.595046 -0.233500
v 0.358069 0.466124 -0.247805
v 0.354432 0.594999 0.121381
v 0.349839 0.465265 0.135686
v 0.362011 0.644524 -0.186449
v 0.354136 0.644477 -0.186449
v 0.354136 0.644477 0.074330
v 0.362011 0.644524 0.074330
v 0.361880 0.666349 -0.259512
v 0.361880 0.666344 -0.259507
v 0.354006 0.666302 0.147394
v 0.354006 0.666297 0.147388
v 0.361756 0.687218 0.135529
v 0.353881 0.687171 0.135529
v 0.361772 0.684402 0.144355
v 0.353898 0.684355 0.144355
v 0.361800 0.679830 0.152490
v 0.353925 0.679783 0.152490
v 0.361837 0.673676 0.159620
v 0.353962 0.673629 0.159620
v 0.361881 0.666179 0.165471
v 0.354007 0.666132 0.165471
v 0.361932 0.657624 0.169819
v 0.354058 0.657577 0.169819
v 0.361988 0.648342 0.172497
v 0.354114 0.648296 0.172497
v 0.353881 0.687171 -0.247648
v 0.361756 0.687218 -0.247648
v 0.353898 0.684355 -0.256474
v 0.361772 0.684402 -0.256474
v 0.353925 0.679783 -0.264609
v 0.361800 0.679830 -0.264609
v 0.353962 0.673629 -0.271739
v 0.361837 0.673676 -0.271739
v 0.354007 0.666132 -0.277590
v 0.361881 0.666179 -0.277590
v 0.354058 0.657577 -0.281938
v 0.361932 0.657624 -0.281938
v 0.354114 0.648296 -0.284615
v 0.361988 0.648342 -0.284615
v 0.354374 0.604652 -0.232596
v 0.362249 0.604699 -0.232596
v 0.354319 0.613934 -0.229919
v 0.362193 0.613981 -0.229919
v 0.354268 0.622488 -0.225571
v 0.362142 0.622535 -0.225571
v 0.354223 0.629986 -0.219719
v 0.362097 0.630032 -0.219719
v 0.354186 0.636139 -0.212589
v 0.362061 0.636186 -0.212589
v 0.354159 0.640711 -0.204455
v 0.362033 0.640758 -0.204455
v 0.354142 0.643527 -0.195628
v 0.362016 0.643574 -0.195628
v 0.354142 0.643527 0.083509
v 0.362016 0.643574 0.083509
v 0.354159 0.640711 0.092336
v 0.362033 0.640758 0.092336
v 0.354186 0.636139 0.100470
v 0.362061 0.636186 0.100470
v 0.354223 0.629985 0.107600
v 0.362097 0.630032 0.107600
v 0.354268 0.622488 0.113452
v 0.362142 0.622535 0.113452
v 0.354319 0.613934 0.117800
v 0.362193 0.613981 0.117800
v 0.354374 0.604652 0.120477
v 0.362249 0.604699 0.120477
vt 0.384349 0.862603
vt 0.437500 0.853845
vt 0.437500 0.883655
vt 0.376068 0.895728
vt 0.375000 0.850000
vt 0.437500 0.850000
vt 0.437500 0.850000
vt 0.383464 0.856771
vt 0.437500 0.900000
vt 0.375000 0.900000
vt 0.375000 0.900000
vt 0.437500 0.900000
vt 0.437500 0.889888
vt 0.437500 0.893750
vt 0.437500 0.893751
vt 0.437500 0.900000
vt 0.437500 0.900000
vt 0.380208 0.854167
vt 0.380267 0.854214
vt 0.375000 0.850000
vt 0.375000 0.850000
vt 0.375000 0.900000
vt 0.375000 0.900000
vt 0.437500 0.850000
vt 0.437500 0.850000
vt 0.375000 0.893371
vt 0.437500 0.893371
vt 0.437500 0.856629
vt 0.375000 0.856629
vt 0.375000 0.900000
vt 0.375000 0.900000
vt 0.437500 0.850000
vt 0.437500 0.853225
vt 0.437500 0.866667
vt 0.437500 0.850000
vt 0.375000 0.896775
vt 0.375000 0.883333
vt 0.400069 0.859919
vt 0.437500 0.853591
vt 0.409043 0.857566
vt 0.437500 0.852844
vt 0.409572 0.855968
vt 0.437500 0.851632
vt 0.385417 0.858333
vt 0.437500 0.850000
vt 0.384998 0.857999
vt 0.437500 0.850000
vt 0.384521 0.857617
vt 0.437500 0.850000
vt 0.384002 0.857202
vt 0.437500 0.850000
vt 0.437500 0.883909
vt 0.393898 0.892580
vt 0.437500 0.884656
vt 0.404240 0.891252
vt 0.437500 0.885869
vt 0.404837 0.892241
vt 0.437500 0.887500
vt 0.375000 0.900000
vt 0.437500 0.900000
vt 0.437500 0.900000
vt 0.375000 0.900000
vt 0.437500 0.900000
vt 0.375000 0.900000
vt 0.437500 0.900000
vt 0.375000 0.900000
vt 0.429575 0.899535
vt 0.382208 0.899920
vt 0.423305 0.899276
vt 0.388649 0.899818
vt 0.423224 0.899363
vt 0.388940 0.899815
vt 0.437500 0.900000
vt 0.375000 0.900000
vt 0.422110 0.898399
vt 0.390368 0.898703
vt 0.419096 0.896673
vt 0.393391 0.897057
vt 0.425591 0.894862
vt 0.386903 0.895170
vt 0.425702 0.854789
vt 0.387271 0.854996
vt 0.419289 0.852871
vt 0.393903 0.853130
vt 0.422266 0.851243
vt 0.390768 0.851447
vt 0.437500 0.850000
vt 0.375000 0.850000
vt 0.423618 0.850121
vt 0.389558 0.850420
vt 0.423883 0.850118
vt 0.389354 0.850472
vt 0.430284 0.850051
vt 0.382640 0.850288
vt 0.437500 0.850691
vt 0.437500 0.851480
vt 0.437500 0.852336
vt 0.437500 0.889229
vt 0.437500 0.888596
vt 0.437500 0.888012
vt 0.375000 0.899309
vt 0.375000 0.898520
vt 0.375000 0.897664
vn -0.0060 1.0000 0.0021
vn -0.0060 1.0000 0.0030
vn -0.0060 1.0000 -0.0030
vn -0.0060 1.0000 -0.0021
vn -0.0003 0.1067 0.9943
vn -0.0003 0.1062 0.9943
vn -0.0003 0.1056 0.9944
vn -0.0003 0.1067 -0.9943
vn -0.0003 0.1056 -0.9944
vn -0.0003 0.1062 -0.9943
vn -0.9996 0.0236 0.0120
vn -0.9996 0.0237 0.0120
vn -1.0000 -0.0058 0.0000
vn -1.0000 0.0053 0.0045
vn 0.9997 -0.0215 0.0109
vn 0.9997 -0.0216 0.0113
vn 1.0000 0.0057 0.0001
vn 1.0000 -0.0045 0.0042
vn 0.9997 -0.0215 0.0108
vn 0.0004 -0.1104 0.9939
vn 0.0003 -0.1095 0.9940
vn 0.0002 -0.1086 0.9941
vn 0.0003 -0.1103 0.9939
vn 0.0003 -0.1080 -0.9942
vn 0.0003 -0.1088 -0.9941
vn 0.0004 -0.1096 -0.9940
vn 0.0003 -0.1096 -0.9940
vn 0.0060 -1.0000 0.0028
vn 0.0060 -1.0000 0.0043
vn 0.0060 -1.0000 -0.0043
vn 0.0060 -1.0000 -0.0028
vn 1.0000 0.0060 -0.0000
vn 1.0000 0.0057 -0.0001
vn 1.0000 -0.0052 -0.0045
vn 1.0000 0.0056 0.0000
vn -0.9996 0.0236 -0.0121
vn -0.9996 0.0235 -0.0121
vn -0.9997 0.0235 -0.0121
vn -1.0000 0.0052 -0.0046
vn -1.0000 -0.0060 0.0000
vn -1.0000 -0.0056 -0.0000
vn -1.0000 -0.0063 0.0000
vn 0.9997 -0.0217 -0.0112
vn 0.9997 -0.0216 -0.0111
vn -0.0059 0.9829 0.1843
vn -0.0058 0.9743 0.2250
vn -0.0055 0.9248 0.3803
vn -0.0054 0.9083 0.4182
vn -0.0050 0.8297 0.5582
vn -0.0048 0.8064 0.5914
vn -0.0042 0.7034 0.7108
vn -0.0040 0.6746 0.7382
vn -0.0033 0.5526 0.8334
vn -0.0031 0.5197 0.8543
vn -0.0023 0.3842 0.9232
vn -0.0021 0.3485 0.9373
vn -0.0012 0.2045 0.9789
vn -0.0010 0.1672 0.9859
vn -0.0058 0.9743 -0.2250
vn -0.0059 0.9829 -0.1843
vn -0.0054 0.9083 -0.4182
vn -0.0055 0.9248 -0.3803
vn -0.0048 0.8064 -0.5914
vn -0.0050 0.8297 -0.5582
vn -0.0040 0.6746 -0.7382
vn -0.0042 0.7034 -0.7108
vn -0.0031 0.5197 -0.8543
vn -0.0033 0.5526 -0.8334
vn -0.0021 0.3485 -0.9373
vn -0.0023 0.3842 -0.9232
vn -0.0010 0.1672 -0.9859
vn -0.0012 0.2045 -0.9789
vn 0.0010 -0.1672 0.9859
vn 0.0012 -0.2045 0.9789
vn 0.0021 -0.3487 0.9372
vn 0.0023 -0.3842 0.9232
vn 0.0031 -0.5198 0.8543
vn 0.0033 -0.5526 0.8335
vn 0.0040 -0.6746 0.7382
vn 0.0042 -0.7033 0.7109
vn 0.0048 -0.8064 0.5914
vn 0.0049 -0.8296 0.5583
vn 0.0054 -0.9084 0.4181
vn 0.0055 -0.9248 0.3804
vn 0.0058 -0.9743 0.2250
vn 0.0059 -0.9828 0.1844
vn 0.0058 -0.9743 -0.2250
vn 0.0059 -0.9828 -0.1844
vn 0.0054 -0.9084 -0.4181
vn 0.0055 -0.9248 -0.3804
vn 0.0048 -0.8064 -0.5914
vn 0.0050 -0.8297 -0.5582
vn 0.0040 -0.6746 -0.7382
vn 0.0042 -0.7033 -0.7109
vn 0.0031 -0.5198 -0.8543
vn 0.0033 -0.5526 -0.8335
vn 0.0021 -0.3485 -0.9373
vn 0.0023 -0.3842 -0.9232
vn 0.0010 -0.1672 -0.9859
vn 0.0012 -0.2045 -0.9789
vn 1.0000 0.0059 -0.0000
vn 1.0000 0.0057 0.0004
vn -1.0000 -0.0059 -0.0000
vn -1.0000 -0.0055 0.0000
vn 1.0000 0.0063 -0.0000
vn -1.0000 -0.0063 -0.0001
vn 1.0000 0.0062 0.0002
vn -1.0000 -0.0063 0.0001
vn 1.0000 0.0062 -0.0002
usemtl initialShadingGroup
s 1
f 491/520/260 492/521/261 493/522/262 494/523/263
f 495/524/264 496/525/264 497/526/265 498/527/266
f 499/528/267 500/529/267 501/530/268 502/531/269
f 499/528/270 502/532/271 503/533/272 504/534/273 505/535/270 506/536/270
f 495/524/274 498/527/275 507/537/276 508/538/277 509/539/275 510/540/278
f 506/536/279 505/535/280 511/541/281 512/542/282
f 509/539/283 513/543/284 514/544/285 510/540/286
f 515/545/287 516/546/288 517/547/289 518/548/290
f 507/537/276 491/520/291 494/523/291 519/549/292 520/550/293 515/545/294 518/548/294 508/538/277
f 521/551/272 497/552/295 496/553/296 514/544/295 513/543/297 522/554/298
f 503/533/272 493/522/299 492/521/299 521/551/272 522/554/298 517/547/300 516/546/301 504/534/273
f 519/549/292 501/555/302 500/556/303 512/542/302 511/541/302 520/550/293
f 491/520/260 523/557/304 524/558/305 492/521/261
f 523/557/304 525/559/306 526/560/307 524/558/305
f 525/559/306 527/561/308 528/562/309 526/560/307
f 527/561/308 529/563/310 530/564/311 528/562/309
f 529/563/310 531/565/312 532/566/313 530/564/311
f 531/565/312 533/567/314 534/568/315 532/566/313
f 533/567/314 535/569/316 536/570/317 534/568/315
f 535/569/316 498/527/266 497/526/265 536/570/317
f 493/522/262 537/571/318 538/572/319 494/523/263
f 537/571/318 539/573/320 540/574/321 538/572/319
f 539/573/320 541/575/322 542/576/323 540/574/321
f 541/575/322 543/577/324 544/578/325 542/576/323
f 543/579/324 545/580/326 546/581/327 544/578/325
f 545/580/326 547/582/328 548/583/329 546/581/327
f 547/582/328 549/584/330 550/585/331 548/583/329
f 549/584/330 502/531/269 501/530/268 550/585/331
f 505/535/280 551/586/332 552/587/333 511/541/281
f 551/586/332 553/588/334 554/589/335 552/587/333
f 553/588/334 555/590/336 556/591/337 554/589/335
f 555/590/336 557/592/338 558/593/339 556/591/337
f 557/592/338 559/594/340 560/595/341 558/593/339
f 559/594/340 561/596/342 562/597/343 560/595/341
f 561/596/342 563/598/344 564/599/345 562/597/343
f 563/598/344 516/546/288 515/545/287 564/599/345
f 517/547/289 565/600/346 566/601/347 518/548/290
f 565/600/346 567/602/348 568/603/349 566/601/347
f 567/602/348 569/604/350 570/605/351 568/603/349
f 569/604/350 571/606/352 572/607/353 570/605/351
f 571/606/352 573/608/354 574/609/355 572/607/353
f 573/608/354 575/610/356 576/611/357 574/609/355
f 575/610/356 577/612/358 578/613/359 576/611/357
f 577/612/358 513/543/284 509/539/283 578/613/359
f 507/537/276 498/527/275 535/569/291
f 507/537/276 535/569/291 533/567/360
f 507/537/276 533/567/360 531/565/291
f 507/537/276 531/565/291 529/563/291
f 507/537/276 529/563/291 527/561/361
f 507/537/276 527/561/361 525/559/291
f 507/537/276 525/559/291 523/557/294
f 507/537/276 523/557/294 491/520/291
f 521/551/272 492/521/299 524/558/299
f 521/551/272 524/558/299 526/560/362
f 521/551/272 526/560/362 528/562/362
f 521/551/272 528/562/362 530/564/362
f 521/551/272 530/564/362 532/614/362
f 521/551/272 532/614/362 534/615/362
f 521/551/272 534/615/362 536/616/299
f 521/551/272 536/616/299 497/552/295
f 503/533/272 502/532/271 549/617/299
f 503/533/272 549/617/299 547/618/299
f 503/533/272 547/618/299 545/619/362
f 503/533/272 545/619/362 543/577/362
f 503/533/272 543/577/362 541/575/363
f 503/533/272 541/575/363 539/573/362
f 503/533/272 539/573/362 537/571/301
f 503/533/272 537/571/301 493/522/299
f 519/549/292 494/523/291 538/572/294
f 519/549/292 538/572/294 540/574/291
f 519/549/292 540/574/291 542/576/360
f 519/549/292 542/576/360 544/578/291
f 519/549/292 544/578/291 546/620/364
f 519/549/292 546/620/364 548/621/291
f 519/549/292 548/621/291 550/622/291
f 519/549/292 550/622/291 501/555/302
f 504/534/273 516/546/301 563/598/301
f 504/534/273 563/598/301 561/596/362
f 504/534/273 561/596/362 559/594/362
f 504/534/273 559/594/362 557/592/365
f 504/534/273 557/592/365 555/590/300
f 504/534/273 555/590/300 553/588/362
f 504/534/273 553/588/362 551/586/299
f 504/534/273 551/586/299 505/535/270
f 520/550/293 511/541/302 552/587/291
f 520/550/293 552/587/291 554/589/360
f 520/550/293 554/589/360 556/591/360
f 520/550/293 556/591/360 558/593/366
f 520/550/293 558/593/366 560/595/360
f 520/550/293 560/595/360 562/597/291
f 520/550/293 562/597/291 564/599/360
f 520/550/293 564/599/360 515/545/294
f 522/554/298 513/543/297 577/612/362
f 522/554/298 577/612/362 575/610/362
f 522/554/298 575/610/362 573/608/301
f 522/554/298 573/608/301 571/606/367
f 522/554/298 571/606/367 569/604/362
f 522/554/298 569/604/362 567/602/299
f 522/554/298 567/602/299 565/600/362
f 522/554/298 565/600/362 517/547/300
f 508/538/277 518/548/294 566/601/294
f 508/538/277 566/601/294 568/603/291
f 508/538/277 568/603/291 570/605/360
f 508/538/277 570/605/360 572/607/368
f 508/538/277 572/607/368 574/609/360
f 508/538/277 574/609/360 576/611/291
f 508/538/277 576/611/291 578/613/291
f 508/538/277 578/613/291 509/539/275
