# Blender v3.6.22 OBJ File: ''
# www.blender.org
mtllib cakebox1.mtl
o dudu4_openedver.001
v 0.428052 0.160334 -0.596670
v 0.428052 0.160334 -0.626631
v 0.428052 0.560491 -0.626631
v 0.428052 0.560491 -0.596670
v 0.428052 0.160335 0.730183
v 0.428052 0.560492 0.730183
v 0.428052 0.160335 0.760145
v 0.428052 0.560492 0.760145
vt 0.791667 0.000000
vt 0.875000 0.000000
vt 0.875000 0.250000
vt 0.791667 0.250000
vt 0.708333 0.000000
vt 0.666667 0.291667
vt 0.625000 0.000000
vt 0.625000 0.250000
vn 1.0000 -0.0000 0.0000
usemtl initialShadingGroup.002
s 1
f 1/1/1 2/2/1 3/3/1 4/4/1
f 5/5/1 1/1/1 4/4/1 6/6/1
f 7/7/1 5/5/1 6/6/1 8/8/1
o dudu4_openedver.002
v -0.428052 0.160334 -0.626631
v -0.428052 0.160334 -0.596670
v -0.428052 0.560491 -0.596670
v -0.428052 0.560491 -0.626631
v -0.428052 0.160335 0.730183
v -0.428052 0.560492 0.730183
v -0.428052 0.160335 0.760145
v -0.428052 0.560492 0.760145
vt 0.125000 0.000000
vt 0.208333 0.000000
vt 0.291667 0.333333
vt 0.250000 0.375000
vt 0.291667 0.000000
vt 0.333333 0.291667
vt 0.375000 0.000000
vt 0.375000 0.250000
vn -1.0000 -0.0000 0.0000
usemtl initialShadingGroup.002
s 1
f 9/9/2 10/10/2 11/11/2 12/12/2
f 10/10/2 13/13/2 14/14/2 11/11/2
f 13/13/2 15/15/2 16/16/2 14/14/2
o dudu4_openedver.003
v 0.011796 0.560456 -0.628166
v 0.077053 0.560491 -0.627926
v 0.428052 0.560491 -0.626631
v 0.428052 0.160334 -0.626631
v 0.012263 0.160334 -0.626631
v -0.011796 0.560451 -0.628166
v -0.012263 0.160334 -0.626631
v -0.428052 0.560491 -0.626631
v -0.428052 0.160334 -0.626631
vt 0.541667 0.500022
vt 0.554731 0.500000
vt 0.625000 0.500000
vt 0.625000 0.750000
vt 0.541667 0.750000
vt 0.458333 0.500025
vt 0.458333 0.750000
vt 0.250000 0.375000
vt 0.375000 0.750000
vn 0.0017 -0.0020 -1.0000
vn 0.0018 -0.0019 -1.0000
vn 0.0018 -0.0020 -1.0000
vn -0.0017 -0.0020 -1.0000
vn -0.0018 -0.0020 -1.0000
vn -0.0018 -0.0019 -1.0000
usemtl initialShadingGroup.002
s 1
f 17/17/3 18/18/4 19/19/4 20/20/4 21/21/5
f 22/22/6 17/17/3 21/21/5 23/23/7
f 24/24/8 22/22/6 23/23/7 25/25/8
o dudu4_openedver.004
v -0.428052 0.160335 0.760145
v -0.012263 0.160335 0.760145
v -0.011796 0.560492 0.761679
v -0.428052 0.560492 0.760145
v 0.012263 0.160335 0.760145
v 0.011796 0.560492 0.761679
v 0.428052 0.160335 0.760145
v 0.428052 0.560492 0.760145
vt 0.375000 0.000000
vt 0.458333 0.000000
vt 0.458333 0.250000
vt 0.375000 0.250000
vt 0.541667 0.000000
vt 0.541667 0.250000
vt 0.625000 0.000000
vt 0.625000 0.250000
vn -0.0018 -0.0019 1.0000
vn -0.0018 -0.0020 1.0000
vn 0.0018 -0.0020 1.0000
vn 0.0018 -0.0019 1.0000
usemtl initialShadingGroup.002
s 1
f 26/26/9 27/27/10 28/28/10 29/29/9
f 27/27/10 30/30/11 31/31/11 28/28/10
f 30/30/11 32/32/12 33/33/12 31/31/11
o dudu4_openedver.005
v 0.012263 0.160334 -0.596670
v -0.012263 0.160334 -0.596670
v -0.428052 0.160334 -0.596670
v -0.428052 0.160334 -0.626631
v -0.012263 0.160334 -0.626631
v 0.012263 0.160334 -0.626631
v 0.428052 0.160334 -0.626631
v 0.428052 0.160334 -0.596670
v -0.012263 0.160335 0.730183
v -0.428052 0.160335 0.730183
v 0.012263 0.160335 0.730183
v 0.428052 0.160335 0.730183
v 0.012263 0.160335 0.760145
v -0.012263 0.160335 0.760145
v -0.428052 0.160335 0.760145
v 0.428052 0.160335 0.760145
vt 0.541667 0.833333
vt 0.458333 0.833333
vt 0.375000 0.833333
vt 0.375000 0.750000
vt 0.458333 0.750000
vt 0.541667 0.750000
vt 0.625000 0.750000
vt 0.625000 0.833333
vt 0.458333 0.916667
vt 0.375000 0.916667
vt 0.541667 0.916667
vt 0.625000 0.916667
vt 0.541667 1.000000
vt 0.458333 1.000000
vt 0.375000 1.000000
vt 0.625000 1.000000
vn 0.0000 -1.0000 0.0000
usemtl initialShadingGroup.002
s 1
f 34/34/13 35/35/13 36/36/13 37/37/13 38/38/13 39/39/13 40/40/13 41/41/13
f 36/36/13 35/35/13 42/42/13 43/43/13
f 35/35/13 34/34/13 44/44/13 42/42/13
f 34/34/13 41/41/13 45/45/13 44/44/13
f 46/46/13 47/47/13 48/48/13 43/43/13 42/42/13 44/44/13 45/45/13 49/49/13
o dudu4_openedver.006
v -0.428052 0.560492 0.730183
v -0.012263 0.560492 0.730183
v -0.012263 0.560491 -0.596670
v -0.428052 0.560491 -0.596670
v 0.012263 0.560492 0.730183
v 0.428052 0.560492 0.730183
v 0.428052 0.560491 -0.596670
v 0.012263 0.560491 -0.596670
v -0.428052 0.560492 0.760145
v -0.011796 0.560492 0.761679
v -0.011796 0.560451 -0.628166
v -0.428052 0.560491 -0.626631
v 0.011796 0.560492 0.761679
v 0.428052 0.560492 0.760145
v 0.012263 0.553312 0.398944
v 0.012263 0.553312 -0.265431
v 0.428052 0.560491 -0.626631
v 0.077053 0.560491 -0.627926
v 0.011796 0.560456 -0.628166
v -0.012263 0.553312 -0.265431
v -0.012263 0.553312 0.398944
vt 0.333333 0.291667
vt 0.458333 0.333333
vt 0.458333 0.416667
vt 0.291667 0.333333
vt 0.541667 0.333333
vt 0.666667 0.291667
vt 0.625000 0.416667
vt 0.541667 0.416667
vt 0.375000 0.250000
vt 0.458333 0.250000
vt 0.458333 0.500025
vt 0.250000 0.375000
vt 0.541667 0.250000
vt 0.625000 0.250000
vt 0.541667 0.333333
vt 0.541667 0.416667
vt 0.791667 0.250000
vt 0.625000 0.500000
vt 0.554731 0.500000
vt 0.541667 0.500022
vt 0.458333 0.416667
vt 0.458333 0.333333
vn 0.0000 1.0000 -0.0000
vn 0.0000 1.0000 -0.0002
vn 0.0000 1.0000 -0.0003
vn 0.0000 1.0000 -0.0007
usemtl initialShadingGroup.002
s 1
f 50/50/14 51/51/14 52/52/15 53/53/16
f 54/54/14 55/55/14 56/56/14 57/57/14
f 58/58/14 59/59/14 51/51/14 50/50/14
f 53/53/16 52/52/15 60/60/16 61/61/17
f 62/62/14 63/63/14 55/55/14 54/54/14
f 62/62/14 54/54/14 64/64/14 65/65/14 57/57/14 56/66/14 66/67/14 67/68/14 68/69/14 60/60/16 52/52/15 69/70/14 70/71/14 51/51/14 59/59/14
o dudu4_openedver.007
v 0.007913 1.111833 0.614210
v 0.007954 1.111833 0.614210
v 0.007766 1.111707 0.601822
v 0.007724 1.111706 0.601822
v -0.016802 1.111704 0.601871
v -0.016844 1.111704 0.601871
v -0.016656 1.111830 0.614259
v -0.016614 1.111830 0.614258
v -0.428709 0.560033 0.760243
v -0.429494 0.676815 0.729519
v -0.429682 0.676689 0.717132
v -0.428897 0.559907 0.747855
v -0.013092 0.559950 0.747030
v 0.011435 0.559952 0.746981
v 0.427240 0.559994 0.746156
v 0.426455 0.676776 0.715432
v 0.426643 0.676902 0.727820
v 0.427429 0.560120 0.758543
v -0.145179 1.090402 0.607727
v -0.144991 1.090528 0.620114
v -0.260665 1.028607 0.624211
v -0.260477 1.028733 0.636599
v -0.351998 0.932368 0.649710
v -0.351810 0.932494 0.662098
v -0.410237 0.811105 0.681728
v -0.410049 0.811231 0.694116
v 0.136575 1.090557 0.619556
v 0.136387 1.090431 0.607168
v 0.252893 1.028785 0.635580
v 0.252705 1.028659 0.623193
v 0.345520 0.932565 0.660714
v 0.345332 0.932439 0.648327
v 0.405390 0.811314 0.692498
v 0.405202 0.811188 0.680110
v -0.012427 0.560082 0.760051
v 0.011166 0.560084 0.760004
v -0.014936 0.980612 0.649188
v 0.008012 0.980614 0.649143
vt 0.541667 0.500000
vt 0.541672 0.500000
vt 0.541675 0.416667
vt 0.541667 0.416667
vt 0.458333 0.416667
vt 0.458325 0.416667
vt 0.458325 0.500000
vt 0.458333 0.500000
vt 0.375000 0.500000
vt 0.375000 0.500000
vt 0.375000 0.416667
vt 0.375000 0.416667
vt 0.458333 0.416667
vt 0.541667 0.416667
vt 0.625000 0.416667
vt 0.625000 0.416667
vt 0.625000 0.500000
vt 0.625000 0.500000
vt 0.450846 0.449777
vt 0.449973 0.464159
vt 0.439611 0.453586
vt 0.439227 0.455513
vt 0.423957 0.450086
vt 0.424616 0.451245
vt 0.402760 0.441016
vt 0.404588 0.447472
vt 0.549189 0.466836
vt 0.549952 0.452566
vt 0.560434 0.462839
vt 0.560630 0.460979
vt 0.576096 0.466058
vt 0.575191 0.464933
vt 0.597309 0.474836
vt 0.595178 0.468686
vt 0.458333 0.500000
vt 0.541667 0.500000
vt 0.458333 0.500000
vt 0.541667 0.500000
vn -0.0001 0.9999 -0.0102
vn 0.1388 0.9902 -0.0122
vn 0.1369 0.9905 -0.0122
vn -0.1381 0.9904 -0.0080
vn -0.1384 0.9903 -0.0080
vn -0.9999 -0.0027 0.0152
vn -0.9977 0.0663 0.0145
vn -0.9959 0.0891 0.0142
vn -0.0019 -0.2544 -0.9671
vn 0.9999 0.0027 -0.0152
vn 0.9954 0.0946 -0.0161
vn 0.9973 0.0716 -0.0159
vn -0.3166 0.9485 -0.0048
vn -0.3289 0.9444 -0.0046
vn -0.5960 0.8030 0.0009
vn -0.6172 0.7868 0.0014
vn -0.8122 0.5834 0.0064
vn -0.8335 0.5525 0.0071
vn -0.9492 0.3146 0.0112
vn -0.9620 0.2729 0.0118
vn 0.3308 0.9436 -0.0146
vn 0.3131 0.9496 -0.0144
vn 0.6175 0.7864 -0.0174
vn 0.5923 0.8055 -0.0172
vn 0.8321 0.5543 -0.0183
vn 0.8090 0.5875 -0.0183
vn 0.9607 0.2769 -0.0174
vn 0.9473 0.3198 -0.0176
vn 0.0010 0.2551 0.9669
vn 0.0028 0.2551 0.9669
vn 0.0019 0.2573 0.9663
usemtl initialShadingGroup.002
s 1
f 71/72/18 72/73/19 73/74/20 74/75/18 75/76/18 76/77/21 77/78/22 78/79/18
f 79/80/23 80/81/24 81/82/25 82/83/23
f 83/84/26 75/76/26 74/75/26 84/85/26
f 85/86/27 86/87/28 87/88/29 88/89/27
f 77/78/22 76/77/21 89/90/30 90/91/31
f 90/91/31 89/90/30 91/92/32 92/93/33
f 92/93/33 91/92/32 93/94/34 94/95/35
f 94/95/35 93/94/34 95/96/36 96/97/37
f 96/97/37 95/96/36 81/82/25 80/81/24
f 73/74/20 72/73/19 97/98/38 98/99/39
f 98/99/39 97/98/38 99/100/40 100/101/41
f 100/101/41 99/100/40 101/102/42 102/103/43
f 102/103/43 101/102/42 103/104/44 104/105/45
f 104/105/45 103/104/44 87/88/29 86/87/28
f 96/97/46 80/81/46 79/80/46 105/106/46 78/79/46 77/78/46 90/91/46 92/93/46 94/95/46
f 82/83/26 81/82/26 95/96/26 93/94/26 91/92/26 89/90/26 76/77/26 75/76/26 83/84/26
f 104/105/26 86/87/26 85/86/26 84/85/26 74/75/26 73/74/26 98/99/26 100/101/26 102/103/26
f 88/89/47 87/88/47 103/104/47 101/102/47 99/100/47 97/98/47 72/73/47 71/72/47 106/107/47
f 78/79/48 107/108/48 108/109/48 71/72/48
o dudu4_openedver.008
v 0.012263 1.112424 -0.481304
v -0.012263 1.112424 -0.481304
v -0.012304 1.112424 -0.481304
v -0.012304 1.112298 -0.468915
v -0.012263 1.112298 -0.468915
v 0.012263 1.112298 -0.468915
v 0.012304 1.112298 -0.468915
v 0.012304 1.112424 -0.481304
v -0.428052 0.560669 -0.626480
v -0.428052 0.560543 -0.614092
v -0.428052 0.677325 -0.583364
v -0.428052 0.677451 -0.595753
v -0.012263 0.560543 -0.614092
v 0.012263 0.560543 -0.614092
v 0.428052 0.560543 -0.614092
v 0.428052 0.560669 -0.626480
v 0.428052 0.677451 -0.595753
v 0.428052 0.677325 -0.583364
v -0.140777 1.091135 -0.486905
v -0.140777 1.091009 -0.474517
v -0.256675 1.029351 -0.503161
v -0.256675 1.029226 -0.490773
v -0.348651 0.933122 -0.528481
v -0.348651 0.932996 -0.516093
v -0.407704 0.811865 -0.560386
v -0.407704 0.811739 -0.547998
v 0.140777 1.091009 -0.474517
v 0.140777 1.091135 -0.486905
v 0.256675 1.029226 -0.490773
v 0.256675 1.029351 -0.503161
v 0.348651 0.932996 -0.516093
v 0.348651 0.933122 -0.528481
v 0.407704 0.811739 -0.547998
v 0.407704 0.811865 -0.560386
v -0.011796 0.560675 -0.627115
v 0.011796 0.560675 -0.627115
v 0.011474 0.981206 -0.516239
v -0.011474 0.981206 -0.516239
vt 0.541667 0.500000
vt 0.458333 0.500000
vt 0.458325 0.500000
vt 0.458325 0.416667
vt 0.458333 0.416667
vt 0.541667 0.416667
vt 0.541675 0.416667
vt 0.541672 0.500000
vt 0.375000 0.500000
vt 0.375000 0.416667
vt 0.375000 0.416667
vt 0.375000 0.500000
vt 0.458333 0.416667
vt 0.541667 0.416667
vt 0.625000 0.416667
vt 0.625000 0.500000
vt 0.625000 0.500000
vt 0.625000 0.416667
vt 0.449973 0.464159
vt 0.450846 0.449777
vt 0.439227 0.455513
vt 0.439611 0.453586
vt 0.424616 0.451245
vt 0.423957 0.450086
vt 0.404588 0.447472
vt 0.402760 0.441016
vt 0.549952 0.452566
vt 0.549189 0.466836
vt 0.560630 0.460979
vt 0.560434 0.462839
vt 0.575191 0.464933
vt 0.576096 0.466058
vt 0.595178 0.468686
vt 0.597309 0.474836
vt 0.458333 0.500000
vt 0.541667 0.500000
vt 0.541667 0.500000
vt 0.458333 0.500000
vn -0.0000 0.9999 0.0102
vn -0.1386 0.9903 0.0101
vn -0.1375 0.9905 0.0101
vn 0.1375 0.9905 0.0101
vn 0.1386 0.9903 0.0101
vn -1.0000 -0.0000 0.0000
vn -0.9958 0.0919 0.0009
vn -0.9976 0.0689 0.0007
vn 0.0000 -0.2545 0.9671
vn 1.0000 -0.0000 0.0000
vn 0.9976 0.0689 0.0007
vn 0.9958 0.0919 0.0009
vn -0.3301 0.9439 0.0096
vn -0.3149 0.9491 0.0096
vn -0.6174 0.7866 0.0080
vn -0.5942 0.8043 0.0082
vn -0.8328 0.5536 0.0056
vn -0.8106 0.5856 0.0059
vn -0.9616 0.2746 0.0028
vn -0.9483 0.3172 0.0032
vn 0.3148 0.9491 0.0096
vn 0.3301 0.9439 0.0096
vn 0.5942 0.8043 0.0082
vn 0.6174 0.7866 0.0080
vn 0.8106 0.5856 0.0059
vn 0.8328 0.5536 0.0056
vn 0.9484 0.3172 0.0032
vn 0.9616 0.2744 0.0028
vn -0.0009 0.2551 -0.9669
vn 0.0009 0.2551 -0.9669
vn 0.0000 0.2573 -0.9663
usemtl initialShadingGroup.002
s 1
f 109/110/49 110/111/49 111/112/50 112/113/51 113/114/49 114/115/49 115/116/52 116/117/53
f 117/118/54 118/119/54 119/120/55 120/121/56
f 121/122/57 122/123/57 114/115/57 113/114/57
f 123/124/58 124/125/58 125/126/59 126/127/60
f 111/112/50 127/128/61 128/129/62 112/113/51
f 127/128/61 129/130/63 130/131/64 128/129/62
f 129/130/63 131/132/65 132/133/66 130/131/64
f 131/132/65 133/134/67 134/135/68 132/133/66
f 133/134/67 120/121/56 119/120/55 134/135/68
f 115/116/52 135/136/69 136/137/70 116/117/53
f 135/136/69 137/138/71 138/139/72 136/137/70
f 137/138/71 139/140/73 140/141/74 138/139/72
f 139/140/73 141/142/75 142/143/76 140/141/74
f 141/142/75 126/127/60 125/126/59 142/143/76
f 133/134/77 131/132/77 129/130/77 127/128/77 111/112/77 110/111/77 143/144/77 117/118/77 120/121/77
f 118/119/57 121/122/57 113/114/57 112/113/57 128/129/57 130/131/57 132/133/57 134/135/57 119/120/57
f 141/142/57 139/140/57 137/138/57 135/136/57 115/116/57 114/115/57 122/123/57 123/124/57 126/127/57
f 124/125/78 144/145/78 109/110/78 116/117/78 136/137/78 138/139/78 140/141/78 142/143/78 125/126/78
f 110/111/79 109/110/79 145/146/79 146/147/79
o dudu4_openedver.009
v -0.006964 0.966813 0.684138
v 0.006964 0.966813 0.684138
v 0.006964 0.966813 -0.550626
v -0.006964 0.966813 -0.550626
v -0.006205 0.560492 0.759335
v 0.006205 0.560492 0.759335
v 0.006964 0.917606 0.734086
v -0.006964 0.917606 0.734086
v 0.006205 0.560491 -0.625822
v -0.006205 0.560491 -0.625822
v -0.006964 0.917606 -0.600573
v 0.006964 0.917606 -0.600573
v 0.006964 0.560491 -0.596670
v 0.006964 0.812014 -0.331113
v 0.006964 0.667389 -0.265431
v 0.006964 0.553312 -0.265431
v 0.006964 0.812014 0.464626
v 0.006964 0.773727 0.291018
v 0.006964 0.773727 -0.157505
v 0.006964 0.560492 0.730183
v 0.006964 0.553312 0.398944
v 0.006964 0.667389 0.398944
v -0.006964 0.560492 0.730183
v -0.006964 0.812014 0.464626
v -0.006964 0.667389 0.398944
v -0.006964 0.553312 0.398944
v -0.006964 0.812014 -0.331112
v -0.006964 0.773727 -0.157504
v -0.006964 0.773727 0.291018
v -0.006964 0.560491 -0.596670
v -0.006964 0.553312 -0.265431
v -0.006964 0.667389 -0.265431
v -0.005571 0.663946 0.400868
v 0.005571 0.663946 0.400868
v 0.005571 0.564720 0.401301
v -0.005571 0.564720 0.401301
v 0.005571 0.564720 -0.267788
v 0.005571 0.663946 -0.267355
v -0.005571 0.663946 -0.267355
v -0.005571 0.564720 -0.267788
v -0.006731 0.776970 -0.150029
v 0.006731 0.776970 -0.150030
v 0.006731 0.776970 0.283542
v -0.006731 0.776970 0.283542
v 0.005571 0.775195 0.295608
v 0.005571 0.766989 0.332889
v -0.005571 0.766989 0.332889
v -0.005571 0.775195 0.295608
v 0.005571 0.743620 0.368387
v -0.005571 0.743620 0.368387
v 0.005571 0.708644 0.392105
v -0.005571 0.708644 0.392105
v 0.005571 0.708644 -0.258592
v -0.005571 0.708644 -0.258592
v 0.005571 0.743619 -0.234874
v -0.005571 0.743619 -0.234874
v 0.005571 0.766989 -0.199376
v -0.005571 0.766989 -0.199376
v 0.005571 0.775195 -0.162095
v -0.005571 0.775195 -0.162094
v 0.006964 0.708083 0.390729
v 0.006964 0.742581 0.367333
v 0.006964 0.765633 0.332319
v -0.006964 0.765633 0.332319
v -0.006964 0.742581 0.367333
v -0.006964 0.708083 0.390729
v 0.006964 0.765633 -0.198806
v 0.006964 0.742581 -0.233820
v 0.006964 0.708083 -0.257216
v -0.006964 0.708083 -0.257216
v -0.006964 0.742581 -0.233820
v -0.006964 0.765633 -0.198806
v 0.006964 0.924029 0.733659
v -0.006964 0.924029 0.733659
v 0.006964 0.930342 0.732384
v -0.006964 0.930342 0.732384
v 0.006964 0.936437 0.730284
v -0.006964 0.936437 0.730284
v 0.006964 0.942210 0.727395
v -0.006964 0.942210 0.727395
v 0.006964 0.947562 0.723766
v -0.006964 0.947562 0.723766
v 0.006964 0.952401 0.719458
v -0.006964 0.952401 0.719458
v 0.006964 0.956645 0.714547
v -0.006964 0.956645 0.714547
v 0.006964 0.960221 0.709115
v -0.006964 0.960221 0.709115
v 0.006964 0.963068 0.703256
v -0.006964 0.963068 0.703256
v 0.006964 0.965137 0.697070
v -0.006964 0.965137 0.697070
v 0.006964 0.966392 0.690663
v -0.006964 0.966392 0.690663
v 0.006964 0.966813 0.684144
v -0.006964 0.966813 0.684144
v -0.006964 0.924029 -0.600146
v 0.006964 0.924029 -0.600146
v -0.006964 0.930342 -0.598871
v 0.006964 0.930342 -0.598871
v -0.006964 0.936437 -0.596771
v 0.006964 0.936437 -0.596771
v -0.006964 0.942210 -0.593882
v 0.006964 0.942210 -0.593882
v -0.006964 0.947561 -0.590253
v 0.006964 0.947561 -0.590253
v -0.006964 0.952401 -0.585945
v 0.006964 0.952401 -0.585945
v -0.006964 0.956645 -0.581034
v 0.006964 0.956645 -0.581034
v -0.006964 0.960221 -0.575602
v 0.006964 0.960221 -0.575602
v -0.006964 0.963067 -0.569743
v 0.006964 0.963067 -0.569743
v -0.006964 0.965136 -0.563557
v 0.006964 0.965136 -0.563557
v -0.006964 0.966392 -0.557150
v 0.006964 0.966392 -0.557150
v -0.006964 0.966813 -0.550631
v 0.006964 0.966813 -0.550631
v -0.006964 0.553312 0.398944
v 0.006964 0.553312 0.398944
v 0.006964 0.553312 -0.265431
v -0.006964 0.553312 -0.265431
v 0.012263 0.560492 0.730183
v 0.012263 0.560491 -0.596670
v 0.012263 0.553312 -0.265431
v 0.012263 0.553312 0.398944
v -0.012263 0.560491 -0.596670
v -0.012263 0.560492 0.730183
v -0.012263 0.553312 0.398944
v -0.012263 0.553312 -0.265431
vt 0.458333 0.333333
vt 0.541667 0.333333
vt 0.541667 0.416667
vt 0.458333 0.416667
vt 0.458333 0.333333
vt 0.541667 0.333333
vt 0.541667 0.333333
vt 0.458333 0.333333
vt 0.541667 0.416667
vt 0.458333 0.416667
vt 0.458333 0.416667
vt 0.541667 0.416667
vt 0.541667 0.416667
vt 0.541667 0.416667
vt 0.541667 0.416667
vt 0.541667 0.416667
vt 0.541667 0.333333
vt 0.541667 0.346871
vt 0.541667 0.403129
vt 0.541667 0.333333
vt 0.541667 0.333333
vt 0.541667 0.333333
vt 0.458333 0.333333
vt 0.458333 0.333333
vt 0.458333 0.333333
vt 0.458333 0.333333
vt 0.458333 0.416667
vt 0.458333 0.403129
vt 0.458333 0.346871
vt 0.458333 0.416667
vt 0.458333 0.416667
vt 0.458333 0.416667
vt 0.458333 0.333333
vt 0.541667 0.333333
vt 0.541667 0.333333
vt 0.458333 0.333333
vt 0.541667 0.416667
vt 0.541667 0.416667
vt 0.458333 0.416667
vt 0.458333 0.416667
vt 0.458333 0.403129
vt 0.541667 0.403129
vt 0.541667 0.346871
vt 0.458333 0.346871
vt 0.541667 0.346871
vt 0.529886 0.340315
vt 0.470114 0.340315
vt 0.458333 0.346871
vt 0.541667 0.333333
vt 0.458333 0.333333
vt 0.531082 0.333333
vt 0.468918 0.333333
vt 0.531082 0.416667
vt 0.468918 0.416667
vt 0.541667 0.416667
vt 0.458333 0.416667
vt 0.529886 0.409685
vt 0.470114 0.409685
vt 0.541667 0.403129
vt 0.458333 0.403129
vt 0.531082 0.333333
vt 0.541667 0.333333
vt 0.529886 0.340315
vt 0.470114 0.340315
vt 0.458333 0.333333
vt 0.468918 0.333333
vt 0.529886 0.409685
vt 0.541667 0.416667
vt 0.531082 0.416667
vt 0.468918 0.416667
vt 0.458333 0.416667
vt 0.470114 0.409685
vt 0.541667 0.333333
vt 0.458333 0.333333
vt 0.541667 0.333333
vt 0.458333 0.333333
vt 0.541357 0.333333
vt 0.458643 0.333333
vt 0.541213 0.333333
vt 0.458787 0.333333
vt 0.541302 0.333333
vt 0.458698 0.333333
vt 0.541667 0.333333
vt 0.458333 0.333333
vt 0.541179 0.333333
vt 0.458821 0.333333
vt 0.540904 0.333333
vt 0.459096 0.333333
vt 0.540837 0.333333
vt 0.459163 0.333333
vt 0.540958 0.333333
vt 0.459042 0.333333
vt 0.541243 0.333333
vt 0.458757 0.333333
vt 0.541667 0.333333
vt 0.458333 0.333333
vt 0.458333 0.416667
vt 0.541667 0.416667
vt 0.458333 0.416667
vt 0.541667 0.416667
vt 0.458643 0.416667
vt 0.541357 0.416667
vt 0.458787 0.416667
vt 0.541213 0.416667
vt 0.458700 0.416667
vt 0.541300 0.416667
vt 0.458333 0.416667
vt 0.541667 0.416667
vt 0.458823 0.416667
vt 0.541177 0.416667
vt 0.459098 0.416667
vt 0.540902 0.416667
vt 0.459165 0.416667
vt 0.540835 0.416667
vt 0.459043 0.416667
vt 0.540957 0.416667
vt 0.458757 0.416667
vt 0.541243 0.416667
vt 0.458333 0.416667
vt 0.541667 0.416667
vt 0.541667 0.416667
vt 0.541667 0.416667
vt 0.541667 0.416667
vt 0.541667 0.416667
vt 0.458333 0.416667
vt 0.458333 0.416667
vt 0.458333 0.416667
vt 0.458333 0.416667
vt 0.541667 0.346871
vt 0.529886 0.340315
vt 0.529886 0.340315
vt 0.541667 0.346871
vt 0.470114 0.340315
vt 0.458333 0.346871
vt 0.458333 0.346871
vt 0.470114 0.340315
vt 0.458333 0.346871
vt 0.541667 0.346871
vt 0.541667 0.346871
vt 0.458333 0.346871
vt 0.529886 0.340315
vt 0.541667 0.333333
vt 0.541667 0.333333
vt 0.529886 0.340315
vt 0.458333 0.333333
vt 0.470114 0.340315
vt 0.470114 0.340315
vt 0.458333 0.333333
vt 0.541667 0.333333
vt 0.531082 0.333333
vt 0.531082 0.333333
vt 0.541667 0.333333
vt 0.468918 0.333333
vt 0.458333 0.333333
vt 0.458333 0.333333
vt 0.468918 0.333333
vt 0.531082 0.333333
vt 0.541667 0.333333
vt 0.541667 0.333333
vt 0.531082 0.333333
vt 0.458333 0.333333
vt 0.458333 0.333333
vt 0.458333 0.333333
vt 0.541667 0.333333
vt 0.541667 0.416667
vt 0.458333 0.416667
vt 0.541667 0.333333
vt 0.541667 0.416667
vt 0.541667 0.416667
vt 0.541667 0.333333
vt 0.458333 0.416667
vt 0.458333 0.333333
vt 0.458333 0.333333
vt 0.458333 0.416667
vn 0.0000 1.0000 -0.0000
vn 0.0000 0.0705 0.9975
vn 0.0000 0.0704 0.9975
vn 0.0000 0.0705 -0.9975
vn 0.0000 0.0704 -0.9975
vn 1.0000 -0.0000 -0.0014
vn 1.0000 0.0000 -0.0007
vn 1.0000 -0.0000 0.0000
vn 1.0000 -0.0000 0.0010
vn 1.0000 -0.0000 0.0014
vn -1.0000 -0.0000 0.0014
vn -1.0000 -0.0000 0.0007
vn -1.0000 -0.0000 0.0000
vn -1.0000 -0.0000 -0.0010
vn -1.0000 -0.0000 -0.0014
vn 0.2036 -0.0559 -0.9775
vn -0.2036 -0.0559 -0.9775
vn -0.0000 0.0215 -0.9998
vn -0.0000 0.0215 0.9998
vn -0.2036 -0.0559 0.9775
vn 0.2036 -0.0559 0.9775
vn 0.0000 -1.0000 0.0076
vn 0.0000 -1.0000 0.0077
vn 0.0000 -1.0000 -0.0077
vn 0.0001 -1.0000 -0.0077
vn 0.0000 -0.9766 -0.2150
vn -0.1269 -0.9105 -0.3936
vn 0.1269 -0.9105 -0.3936
vn -0.1074 -0.7082 -0.6978
vn 0.1074 -0.7082 -0.6978
vn -0.1015 -0.3761 -0.9210
vn 0.1015 -0.3761 -0.9210
vn -0.1015 -0.3761 0.9210
vn 0.1015 -0.3761 0.9210
vn -0.1074 -0.7082 0.6978
vn 0.1074 -0.7082 0.6978
vn -0.1269 -0.9105 0.3936
vn 0.1269 -0.9105 0.3936
vn 0.0000 -0.9766 0.2150
vn 0.0000 0.1324 0.9912
vn 0.0000 0.2624 0.9650
vn 0.0000 0.3875 0.9219
vn 0.0000 0.5055 0.8628
vn 0.0000 0.6144 0.7890
vn 0.0000 0.7123 0.7019
vn 0.0000 0.7977 0.6031
vn 0.0000 0.8692 0.4945
vn 0.0000 0.9259 0.3779
vn 0.0000 0.9669 0.2553
vn 0.0000 0.9917 0.1287
vn 0.0000 0.9979 0.0645
vn 0.0000 0.1324 -0.9912
vn 0.0000 0.2624 -0.9650
vn 0.0000 0.3875 -0.9219
vn 0.0000 0.5055 -0.8628
vn 0.0000 0.6144 -0.7890
vn 0.0000 0.7123 -0.7019
vn 0.0000 0.7976 -0.6031
vn 0.0000 0.8692 -0.4945
vn 0.0000 0.9259 -0.3779
vn 0.0000 0.9669 -0.2553
vn 0.0000 0.9917 -0.1287
vn 0.0000 0.9979 -0.0644
vn 1.0000 -0.0001 0.0091
vn -1.0000 0.0000 0.0009
vn -1.0000 -0.0001 0.0091
vn -1.0000 -0.0001 -0.0091
vn 1.0000 0.0000 -0.0009
vn 1.0000 -0.0001 -0.0091
vn -0.7611 -0.0821 -0.6434
vn -0.8391 -0.0011 -0.5440
vn 0.0000 0.2023 -0.9793
vn 0.8391 -0.0011 -0.5440
vn 0.7611 -0.0821 -0.6434
vn -0.8076 -0.5775 -0.1198
vn -0.7738 -0.5839 -0.2456
vn 0.7737 -0.5839 -0.2457
vn 0.8075 -0.5775 -0.1198
vn 0.0000 -0.9525 0.3047
vn -0.7280 -0.4884 -0.4810
vn 0.7280 -0.4885 -0.4810
vn -0.7148 -0.2673 -0.6462
vn 0.7148 -0.2676 -0.6461
vn -0.8391 -0.0011 0.5440
vn -0.7611 -0.0821 0.6434
vn 0.7611 -0.0821 0.6434
vn 0.8391 -0.0011 0.5440
vn 0.0000 0.2023 0.9793
vn -0.7148 -0.2676 0.6461
vn 0.7148 -0.2676 0.6461
vn -0.7280 -0.4884 0.4810
vn 0.7280 -0.4884 0.4811
vn -0.7737 -0.5839 0.2457
vn 0.7738 -0.5839 0.2457
vn -0.8075 -0.5775 0.1198
vn -0.0000 -0.9525 -0.3047
vn 0.8076 -0.5775 0.1198
vn 0.0000 -0.9174 0.3980
vn -0.9974 -0.0714 0.0000
vn 0.0000 -0.9174 -0.3980
vn 0.9974 -0.0714 0.0000
usemtl initialShadingGroup.002
s 1
f 147/148/80 148/149/80 149/150/80 150/151/80
f 151/152/81 152/153/81 153/154/82 154/155/82
f 155/156/83 156/157/83 157/158/84 158/159/84
f 159/160/85 149/150/86 160/161/87 161/162/87 162/163/87
f 149/150/86 148/149/88 163/164/87 164/165/87 165/166/87 160/161/87
f 148/149/88 166/167/89 167/168/87 168/169/87 163/164/87
f 169/170/90 147/148/91 170/171/92 171/172/92 172/173/92
f 147/148/91 150/151/93 173/174/92 174/175/92 175/176/92 170/171/92
f 150/151/93 176/177/94 177/178/92 178/179/92 173/174/92
f 179/180/95 180/181/96 181/182/97 182/183/97
f 183/184/98 184/185/99 185/186/100 186/187/98
f 187/188/101 188/189/102 189/190/103 190/191/104
f 191/192/105 192/193/106 193/194/107 194/195/105
f 192/193/106 195/196/108 196/197/109 193/194/107
f 195/196/108 197/198/110 198/199/111 196/197/109
f 197/198/110 180/181/96 179/180/95 198/199/111
f 184/185/99 199/200/112 200/201/113 185/186/100
f 199/200/112 201/202/114 202/203/115 200/201/113
f 201/202/114 203/204/116 204/205/117 202/203/115
f 203/204/116 205/206/118 206/207/118 204/205/117
f 163/164/87 168/169/87 207/208/87
f 163/164/87 207/208/87 208/209/87
f 163/164/87 208/209/87 209/210/87
f 163/164/87 209/210/87 164/165/87
f 170/171/92 175/176/92 210/211/92
f 170/171/92 210/211/92 211/212/92
f 170/171/92 211/212/92 212/213/92
f 170/171/92 212/213/92 171/172/92
f 160/161/87 165/166/87 213/214/87
f 160/161/87 213/214/87 214/215/87
f 160/161/87 214/215/87 215/216/87
f 160/161/87 215/216/87 161/162/87
f 173/174/92 178/179/92 216/217/92
f 173/174/92 216/217/92 217/218/92
f 173/174/92 217/218/92 218/219/92
f 173/174/92 218/219/92 174/175/92
f 153/154/82 219/220/119 220/221/119 154/155/82
f 219/220/119 221/222/120 222/223/120 220/221/119
f 221/222/120 223/224/121 224/225/121 222/223/120
f 223/224/121 225/226/122 226/227/122 224/225/121
f 225/226/122 227/228/123 228/229/123 226/227/122
f 227/228/123 229/230/124 230/231/124 228/229/123
f 229/230/124 231/232/125 232/233/125 230/231/124
f 231/232/125 233/234/126 234/235/126 232/233/125
f 233/234/126 235/236/127 236/237/127 234/235/126
f 235/236/127 237/238/128 238/239/128 236/237/127
f 237/238/128 239/240/129 240/241/129 238/239/128
f 239/240/129 241/242/130 242/243/130 240/241/129
f 157/158/84 243/244/131 244/245/131 158/159/84
f 243/244/131 245/246/132 246/247/132 244/245/131
f 245/246/132 247/248/133 248/249/133 246/247/132
f 247/248/133 249/250/134 250/251/134 248/249/133
f 249/250/134 251/252/135 252/253/135 250/251/134
f 251/252/135 253/254/136 254/255/136 252/253/135
f 253/254/136 255/256/137 256/257/137 254/255/136
f 255/256/137 257/258/138 258/259/138 256/257/137
f 257/258/138 259/260/139 260/261/139 258/259/138
f 259/260/139 261/262/140 262/263/140 260/261/139
f 261/262/140 263/264/141 264/265/141 262/263/140
f 263/264/141 265/266/142 266/267/142 264/265/141
f 239/240/143 237/238/143 235/236/143 233/234/143 231/232/143 229/230/143 227/228/143 225/226/143 223/224/143 221/222/143 219/220/143 153/154/143 152/153/143 166/167/89 148/149/88 241/242/143
f 147/148/144 169/170/90 151/152/145 154/155/145 220/221/145 222/223/145 224/225/145 226/227/145 228/229/145 230/231/145 232/233/145 234/235/145 236/237/145 238/239/145 240/241/145 242/243/145
f 263/264/146 261/262/146 259/260/146 257/258/146 255/256/146 253/254/146 251/252/146 249/250/146 247/248/146 245/246/146 243/244/146 157/158/146 156/157/146 176/177/94 150/151/93 265/266/146
f 149/150/147 159/160/85 155/156/148 158/159/148 244/245/148 246/247/148 248/249/148 250/251/148 252/253/148 254/255/148 256/257/148 258/259/148 260/261/148 262/263/148 264/265/148 266/267/148
f 168/169/149 167/168/150 181/182/150 180/181/96
f 167/168/151 172/173/151 182/183/97 181/182/97
f 172/173/152 171/172/153 179/180/95 182/183/152
f 164/268/154 209/269/155 192/270/106 191/271/154
f 210/272/156 175/273/157 194/274/157 193/275/107
f 175/273/158 164/268/158 191/271/158 194/274/158
f 209/276/155 208/277/159 195/278/108 192/279/106
f 211/280/160 210/281/156 193/282/107 196/283/109
f 208/284/159 207/285/161 197/286/110 195/287/108
f 212/288/162 211/289/160 196/290/109 198/291/111
f 207/292/161 168/293/149 180/294/96 197/295/110
f 171/296/153 212/297/162 198/298/111 179/299/95
f 162/300/163 161/301/164 184/302/99 183/303/163
f 178/304/165 177/305/166 186/306/166 185/307/100
f 177/308/167 162/300/167 183/303/98 186/309/98
f 161/162/164 215/216/168 199/200/112 184/185/99
f 216/217/169 178/179/165 185/186/100 200/201/113
f 215/216/168 214/215/170 201/202/114 199/200/112
f 217/218/171 216/217/169 200/201/113 202/203/115
f 214/215/170 213/214/172 203/204/116 201/202/114
f 218/219/173 217/218/171 202/203/115 204/205/117
f 213/214/172 165/166/174 205/206/174 203/204/116
f 165/166/175 174/175/175 206/207/175 205/206/175
f 174/175/176 218/219/173 204/205/117 206/207/176
f 174/175/177 165/166/177 188/189/102 187/188/101
f 165/166/178 164/165/178 189/190/178 188/189/178
f 164/165/179 175/176/179 190/191/104 189/190/103
f 175/176/180 174/175/180 187/188/180 190/191/180
f 267/310/80 268/311/80 269/312/80 270/313/80
f 271/314/92 272/315/92 273/316/92 274/317/92
f 275/318/87 276/319/87 277/320/87 278/321/87
