# Blender 4.4.3
# www.blender.org
mtllib dudu2obj.mtl
o dudu_2
o dudu_2.001
v -40.722683 91.638290 -34.091225
v -27.148453 105.874939 -37.456989
v -13.574225 111.564163 -39.865383
v 0.000002 113.759766 -40.822754
v 13.574230 111.564163 -39.865383
v 27.148458 105.874939 -37.456989
v 40.722687 91.638290 -34.091225
v -34.388042 10.192921 -26.366016
v -22.925362 14.106056 -29.829739
v -11.462679 16.569874 -31.076679
v 0.000002 17.584389 -31.710045
v 11.462684 16.569874 -31.076679
v 22.925365 14.106056 -29.829739
v 34.388042 10.192921 -26.366016
v -34.388042 10.192921 -26.016016
v -22.925362 14.106056 -29.382515
v -11.462679 16.569874 -30.594456
v 0.000002 17.584389 -31.210045
v 11.462684 16.569874 -30.594456
v 22.925365 14.106056 -29.382515
v 34.388042 10.192921 -26.016016
v -33.906261 10.357391 -26.157511
v -33.906261 10.357391 -26.511599
v -40.152153 92.236664 -34.232689
v 33.906269 10.357391 -26.157511
v 33.906269 10.357391 -26.511599
v 40.152157 92.236664 -34.232689
v -34.438725 10.844536 -26.427824
v -33.956234 11.012486 -26.573372
v -22.959148 14.840263 -29.890759
v -11.479573 17.320625 -31.146996
v 0.000002 18.353855 -31.782951
v 11.479578 17.320625 -31.146996
v 22.959152 14.840263 -29.890759
v 33.956238 11.012486 -26.573372
v 34.438728 10.844536 -26.427824
v 40.673779 91.009445 -34.031578
v 40.103931 91.604477 -34.173073
v 27.115852 105.166382 -37.398098
v 13.557927 110.761108 -39.797527
v 0.000002 113.017197 -40.752392
v -13.557923 110.761108 -39.797527
v -27.115849 105.166382 -37.398098
v -40.103928 91.604477 -34.173073
v -40.673771 91.009445 -34.031578
vn -0.1954 -0.0986 -0.9757
vn -0.1607 -0.0950 -0.9824
vn -0.1848 -0.0966 -0.9780
vn -0.2555 -0.1010 -0.9615
vn -0.0860 -0.0922 -0.9920
vn -0.0694 -0.0924 -0.9933
vn -0.0000 -0.0941 -0.9956
vn -0.0000 -0.0943 -0.9955
vn 0.0860 -0.0922 -0.9920
vn 0.0694 -0.0924 -0.9933
vn 0.1607 -0.0950 -0.9824
vn 0.1845 -0.0966 -0.9781
vn 0.1954 -0.0986 -0.9757
vn 0.1895 -0.1069 -0.9760
vn 0.2522 -0.1103 -0.9614
vn 0.2555 -0.1010 -0.9615
vn 0.3231 -0.9464 -0.0000
vn 0.2449 -0.9695 -0.0000
vn 0.2526 -0.9676 0.0028
vn 0.1402 -0.9901 -0.0000
vn 0.1437 -0.9896 0.0004
vn -0.0000 -1.0000 -0.0000
vn -0.1402 -0.9901 -0.0000
vn -0.1520 -0.9883 -0.0088
vn -0.2449 -0.9695 -0.0000
vn -0.2706 -0.9624 -0.0216
vn -0.3231 -0.9464 -0.0000
vn -0.1895 -0.1069 -0.9760
vn -0.2522 -0.1103 -0.9614
vn -0.1360 -0.1037 -0.9853
vn -0.1441 -0.0958 -0.9849
vn -0.1949 -0.0981 -0.9759
vn -0.1886 -0.1069 -0.9762
vn -0.1400 -0.0894 -0.9861
vn -0.1372 -0.0929 -0.9862
vn -0.0884 -0.0887 -0.9921
vn -0.0765 -0.0926 -0.9928
vn -0.0000 -0.0897 -0.9960
vn -0.0000 -0.0937 -0.9956
vn 0.0884 -0.0887 -0.9921
vn 0.0765 -0.0926 -0.9928
vn 0.1400 -0.0894 -0.9861
vn 0.1372 -0.0929 -0.9862
vn 0.1440 -0.0959 -0.9849
vn 0.1949 -0.0981 -0.9759
vn 0.1360 -0.1037 -0.9853
vn 0.1886 -0.1069 -0.9762
vt 0.361159 0.004256
vt 0.307048 0.023898
vt 0.306882 0.020395
vt 0.360927 0.001127
vt 0.252258 0.036226
vt 0.252176 0.032641
vt 0.197618 0.041415
vt 0.197618 0.037740
vt 0.142976 0.036249
vt 0.143056 0.032664
vt 0.088181 0.023945
vt 0.088346 0.020442
vt 0.034062 0.004326
vt 0.031687 0.003465
vt 0.031921 0.000352
vt 0.034293 0.001197
vt 0.666330 0.509107
vt 0.721502 0.493348
vt 0.721501 0.495474
vt 0.666329 0.510790
vt 0.777249 0.487437
vt 0.777248 0.489730
vt 0.831963 0.484443
vt 0.831962 0.486821
vt 0.886674 0.487472
vt 0.886674 0.489765
vt 0.942417 0.493419
vt 0.942416 0.495545
vt 0.997580 0.509212
vt 1.000000 0.509905
vt 0.999999 0.511569
vt 0.997579 0.510896
vt 0.663909 0.509798
vt 0.663908 0.511462
vt 0.363533 0.003394
vt 0.363298 0.000281
vt 0.392730 0.389314
vt 0.389987 0.392208
vt 0.389760 0.389188
vt 0.392502 0.386310
vt 0.327487 0.458201
vt 0.327328 0.454821
vt 0.262350 0.486216
vt 0.262268 0.482384
vt 0.197716 0.497054
vt 0.197715 0.493508
vt 0.133078 0.486243
vt 0.133158 0.482412
vt 0.067928 0.458257
vt 0.068086 0.454877
vt 0.005400 0.392291
vt 0.005626 0.389271
vt 0.002656 0.389398
vt 0.002883 0.386394
s 1
usemtl initialShadingGroup
f 29/1/1 30/2/2 9/3/3 23/4/4
f 30/2/2 31/5/5 10/6/6 9/3/3
f 31/5/5 32/7/7 11/8/8 10/6/6
f 32/7/7 33/9/9 12/10/10 11/8/8
f 33/9/9 34/11/11 13/12/12 12/10/10
f 35/13/13 36/14/14 14/15/15 26/16/16
f 23/17/17 9/18/18 16/19/19 22/20/17
f 9/18/18 10/21/20 17/22/21 16/19/19
f 10/21/20 11/23/22 18/24/22 17/22/21
f 11/23/22 12/25/23 19/26/24 18/24/22
f 12/25/23 13/27/25 20/28/26 19/26/24
f 26/29/27 14/30/27 21/31/27 25/32/27
f 8/33/17 23/17/17 22/20/17 15/34/17
f 28/35/28 29/1/1 23/4/4 8/36/29
f 13/27/25 26/29/27 25/32/27 20/28/26
f 34/11/11 35/13/13 26/16/16 13/12/12
f 1/37/30 24/38/31 44/39/32 45/40/33
f 24/38/31 2/41/34 43/42/35 44/39/32
f 2/41/34 3/43/36 42/44/37 43/42/35
f 3/43/36 4/45/38 41/46/39 42/44/37
f 4/45/38 5/47/40 40/48/41 41/46/39
f 5/47/40 6/49/42 39/50/43 40/48/41
f 6/49/42 27/51/44 38/52/45 39/50/43
f 27/51/44 7/53/46 37/54/47 38/52/45
f 38/52/45 37/54/47 36/14/14 35/13/13
f 39/50/43 38/52/45 35/13/13 34/11/11
f 40/48/41 39/50/43 34/11/11 33/9/9
f 41/46/39 40/48/41 33/9/9 32/7/7
f 42/44/37 41/46/39 32/7/7 31/5/5
f 43/42/35 42/44/37 31/5/5 30/2/2
f 44/39/32 43/42/35 30/2/2 29/1/1
f 45/40/33 44/39/32 29/1/1 28/35/28
o dudu_2.002
v -34.388042 10.192921 -1.427223
v -22.925362 14.106056 2.036498
v -11.462679 16.569874 3.283439
v 0.000002 17.584389 3.916802
v 11.462684 16.569874 3.283439
v 22.925365 14.106056 2.036498
v 34.388042 10.192921 -1.427223
v -40.722683 91.638290 6.297971
v -27.148453 86.816940 9.663739
v -13.574225 83.395340 12.072131
v 0.000002 81.995590 13.029504
v 13.574230 83.395340 12.072131
v 27.148458 86.816940 9.663739
v 40.722687 91.638290 6.297971
v -34.388042 10.192921 -1.616818
v -22.925362 14.106056 1.794236
v -11.462679 16.569874 3.022216
v 0.000002 17.584389 3.645953
v 11.462684 16.569874 3.022216
v 22.925365 14.106056 1.794236
v 34.388042 10.192921 -1.616818
v -40.152153 91.435638 6.439435
v -33.906261 10.357391 -1.281641
v -33.906261 10.357391 -1.473451
v 40.152157 91.435638 6.439435
v 33.906269 10.357391 -1.281641
v 33.906269 10.357391 -1.473451
v -34.438725 10.844536 -1.365417
v 34.438728 10.844536 -1.555953
v 34.438728 10.844536 -1.365417
v 33.956238 11.006069 -1.219868
v 22.959152 14.687786 2.097520
v 11.479578 17.104519 3.353753
v 0.000002 18.099720 3.989711
v -11.479573 17.104519 3.353753
v -22.959148 14.687786 2.097520
v -33.956234 11.006069 -1.219868
v -40.103928 90.809639 6.379821
v -27.115849 86.255539 9.604848
v -13.557923 82.879379 12.004275
v 0.000002 81.498276 12.959142
v 13.557927 82.879379 12.004275
v 27.115852 86.255539 9.604848
v 40.103931 90.809639 6.379821
v 40.673779 91.009445 6.238326
v 40.673779 91.009445 5.932174
v -40.673771 91.009445 6.238326
vn -0.2520 -0.1129 0.9611
vn -0.1867 -0.1162 0.9755
vn -0.2190 -0.1172 0.9687
vn -0.2651 -0.1135 0.9575
vn -0.0654 -0.1268 0.9898
vn -0.1119 -0.1282 0.9854
vn -0.0000 -0.1358 0.9907
vn -0.0000 -0.1360 0.9907
vn 0.0654 -0.1268 0.9898
vn 0.1119 -0.1282 0.9854
vn 0.1866 -0.1162 0.9755
vn 0.2190 -0.1172 0.9687
vn 0.2520 -0.1129 0.9611
vn 0.2527 -0.1109 0.9612
vn 0.2651 -0.1115 0.9577
vn 0.2651 -0.1135 0.9575
vn 0.3231 -0.9464 -0.0000
vn 0.2862 -0.9580 0.0178
vn 0.2449 -0.9695 -0.0000
vn 0.1584 -0.9874 0.0068
vn 0.1402 -0.9901 -0.0000
vn -0.0000 -1.0000 -0.0000
vn -0.1584 -0.9874 0.0068
vn -0.1402 -0.9901 -0.0000
vn -0.2862 -0.9580 0.0178
vn -0.2449 -0.9695 -0.0000
vn -0.3231 -0.9464 -0.0000
vn -0.2527 -0.1109 0.9612
vn -0.2652 -0.1115 0.9577
vn 0.2654 -0.1135 0.9574
vn 0.2654 -0.1116 0.9577
vn 0.2764 -0.1121 0.9545
vn 0.2770 -0.1139 0.9541
vn 0.2160 -0.1175 0.9693
vn 0.2454 -0.1182 0.9622
vn 0.1105 -0.1286 0.9855
vn 0.1490 -0.1294 0.9803
vn -0.0000 -0.1363 0.9907
vn -0.0000 -0.1365 0.9906
vn -0.1105 -0.1286 0.9855
vn -0.1490 -0.1294 0.9803
vn -0.2160 -0.1175 0.9693
vn -0.2454 -0.1182 0.9622
vn -0.2654 -0.1135 0.9574
vn -0.2770 -0.1139 0.9541
vn -0.2654 -0.1116 0.9577
vn -0.2764 -0.1121 0.9545
vn 0.9970 -0.0775 -0.0000
vt 0.422141 0.100575
vt 0.476113 0.120049
vt 0.475953 0.122830
vt 0.421897 0.103672
vt 0.530810 0.132321
vt 0.530737 0.134885
vt 0.585377 0.137307
vt 0.585388 0.139782
vt 0.639902 0.131871
vt 0.639996 0.134434
vt 0.694496 0.119149
vt 0.694679 0.121929
vt 0.748306 0.099230
vt 0.750667 0.098356
vt 0.750939 0.101465
vt 0.748575 0.102326
vt 0.666291 0.628152
vt 0.721454 0.643706
vt 0.721454 0.644858
vt 0.666291 0.629064
vt 0.777197 0.649562
vt 0.777197 0.650804
vt 0.831909 0.652545
vt 0.831909 0.653833
vt 0.886623 0.649597
vt 0.886622 0.650839
vt 0.942369 0.643776
vt 0.942369 0.644928
vt 0.997542 0.628257
vt 0.999962 0.627577
vt 0.999962 0.628478
vt 0.997542 0.629169
vt 0.419773 0.099720
vt 0.419526 0.102832
vt 0.663871 0.627469
vt 0.663871 0.628371
vt 0.781661 0.483147
vt 0.784486 0.483992
vt 0.784750 0.486993
vt 0.781921 0.486135
vt 0.717270 0.463895
vt 0.717448 0.466578
vt 0.651354 0.449812
vt 0.651443 0.452286
vt 0.586643 0.444210
vt 0.586652 0.446598
vt 0.521980 0.450345
vt 0.521912 0.452820
vt 0.456182 0.464972
vt 0.456026 0.467655
vt 0.391952 0.484754
vt 0.391716 0.487743
vt 0.389134 0.485622
vt 0.388895 0.488625
vt 0.527502 0.455494
vt 0.528408 0.455494
vt 0.492762 0.837792
vt 0.491306 0.837792
s 1
usemtl initialShadingGroup
f 68/55/48 47/56/49 81/57/50 82/58/51
f 47/56/49 48/59/52 80/60/53 81/57/50
f 48/59/52 49/61/54 79/62/55 80/60/53
f 49/61/54 50/63/56 78/64/57 79/62/55
f 50/63/56 51/65/58 77/66/59 78/64/57
f 71/67/60 52/68/61 75/69/62 76/70/63
f 69/71/64 61/72/65 47/73/66 68/74/64
f 61/72/65 62/75/67 48/76/68 47/73/66
f 62/75/67 63/77/69 49/78/69 48/76/68
f 63/77/69 64/79/70 50/80/71 49/78/69
f 64/79/70 65/81/72 51/82/73 50/80/71
f 72/83/74 66/84/74 52/85/74 71/86/74
f 46/87/75 68/55/48 82/58/51 73/88/76
f 60/89/64 69/71/64 68/74/64 46/90/64
f 51/65/58 71/67/60 76/70/63 77/66/59
f 65/81/72 72/83/74 71/86/74 51/82/73
f 89/91/77 90/92/78 59/93/79 70/94/80
f 88/95/81 89/91/77 70/94/80 58/96/82
f 87/97/83 88/95/81 58/96/82 57/98/84
f 86/99/85 87/97/83 57/98/84 56/100/86
f 85/101/87 86/99/85 56/100/86 55/102/88
f 84/103/89 85/101/87 55/102/88 54/104/90
f 83/105/91 84/103/89 54/104/90 67/106/92
f 92/107/93 83/105/91 67/106/92 53/108/94
f 82/58/51 81/57/50 84/103/89 83/105/91
f 81/57/50 80/60/53 85/101/87 84/103/89
f 80/60/53 79/62/55 86/99/85 85/101/87
f 79/62/55 78/64/57 87/97/83 86/99/85
f 78/64/57 77/66/59 88/95/81 87/97/83
f 77/66/59 76/70/63 89/91/77 88/95/81
f 76/70/63 75/69/62 90/92/78 89/91/77
f 75/109/95 74/110/95 91/111/95 90/112/95
f 73/88/76 82/58/51 83/105/91 92/107/93
o dudu_2.003
v 34.388042 10.192921 -1.427223
v 40.722687 91.638290 6.297971
v 40.722687 91.638290 -34.091225
v 34.388042 10.192921 -26.366016
v 34.388042 10.192921 -26.016016
v 40.722687 91.638290 -33.524387
v 34.388042 10.192921 -1.616818
v 40.722687 91.638290 5.990914
v 33.906269 10.357391 -1.473451
v 33.906269 10.357391 -26.157511
v 34.438728 10.844536 -26.427824
v 34.438728 10.844536 -26.076088
v 34.438728 10.844536 -1.555953
v 34.438728 10.844536 -1.365417
v 40.673779 91.009445 6.238326
v 40.673779 91.009445 5.932174
v 40.673779 91.009445 -33.466415
v 40.673779 91.009445 -34.031578
vn 0.9970 -0.0775 -0.0000
vn 0.9970 -0.0776 -0.0000
vn -0.3231 -0.9464 -0.0000
vt 0.527804 0.452387
vt 0.528699 0.452387
vt 0.528408 0.455494
vt 0.527502 0.455494
vt 0.030039 0.003183
vt 0.030281 0.000072
vt 0.031921 0.000352
vt 0.031687 0.003465
vt 0.997579 0.510896
vt 0.999999 0.511569
vt 0.999962 0.627577
vt 0.997542 0.628257
vt 0.644692 0.452387
vt 0.644978 0.455495
vt 0.000000 0.388943
vt 0.000234 0.385941
vt 0.002883 0.386394
vt 0.002656 0.389398
vt 0.492482 0.840791
vt 0.492762 0.837792
vt 0.680097 0.837793
vt 0.680373 0.840791
vt 0.491306 0.837792
vt 0.491029 0.840791
s 1
usemtl initialShadingGroup
f 93/113/96 99/114/97 105/115/96 106/116/96
f 104/117/96 97/118/97 96/119/97 103/120/96
f 102/121/98 97/122/98 99/123/98 101/124/98
f 105/115/96 99/114/97 97/125/97 104/126/96
f 98/127/96 109/128/96 110/129/96 95/130/96
f 100/131/96 108/132/96 109/133/96 98/134/96
f 107/135/96 108/132/96 100/131/96 94/136/96
f 109/133/96 108/132/96 105/115/96 104/126/96
f 110/129/96 109/128/96 104/117/96 103/120/96
o dudu_2.004
v -34.388042 10.192921 -1.427223
v -40.722683 91.638290 6.297971
v -40.722683 91.638290 -34.091225
v -34.388042 10.192921 -26.366016
v -40.722683 91.638290 -33.524387
v -34.388042 10.192921 -26.016016
v -40.722683 91.638290 5.990914
v -34.388042 10.192921 -1.616818
v -33.906261 10.357391 -1.473451
v -33.906261 10.357391 -26.157511
v -34.438725 10.844536 -1.365417
v -34.438725 10.844536 -1.555953
v -34.438725 10.844536 -26.076088
v -34.438725 10.844536 -26.427824
v -40.673771 91.009445 -34.031578
v -40.673771 91.009445 -33.466415
v -40.673771 91.009445 5.932174
v -40.673771 91.009445 6.238326
vn -0.9970 -0.0775 -0.0000
vn 0.3231 -0.9464 -0.0000
vn -0.9970 -0.0776 -0.0000
vt 0.387398 0.482461
vt 0.388300 0.482461
vt 0.388593 0.485569
vt 0.387687 0.485569
vt 0.363298 0.000281
vt 0.364938 0.000000
vt 0.365181 0.003111
vt 0.363533 0.003394
vt 0.271387 0.482461
vt 0.271102 0.485569
vt 0.663908 0.511462
vt 0.666329 0.510790
vt 0.666291 0.628152
vt 0.663871 0.627469
vt 0.423289 0.867868
vt 0.424744 0.867868
vt 0.425016 0.870867
vt 0.423568 0.870867
vt 0.235969 0.867868
vt 0.235694 0.870867
vt 0.392502 0.386310
vt 0.395150 0.385856
vt 0.395386 0.388858
vt 0.392730 0.389314
s 1
usemtl initialShadingGroup
f 118/137/99 111/138/99 121/139/99 122/140/99
f 114/141/99 116/142/99 123/143/99 124/144/99
f 116/145/99 118/137/99 122/140/99 123/146/99
f 116/147/100 120/148/100 119/149/100 118/150/100
f 127/151/99 128/152/99 112/153/101 117/154/99
f 126/155/99 127/151/99 117/154/99 115/156/99
f 125/157/99 126/158/99 115/159/99 113/160/99
f 124/144/99 123/143/99 126/158/99 125/157/99
f 123/146/99 122/140/99 127/151/99 126/155/99
f 122/140/99 121/139/99 128/152/99 127/151/99
o dudu_2.005
v -22.925362 14.106056 -29.382515
v -11.462679 16.569874 -30.594456
v 0.000002 17.584389 -31.210045
v 11.462684 16.569874 -30.594456
v 22.925365 14.106056 -29.382515
v -22.925362 14.106056 1.794236
v -11.462679 16.569874 3.022216
v 0.000002 17.584389 3.645953
v 11.462684 16.569874 3.022216
v 22.925365 14.106056 1.794236
v -33.906261 10.357391 -1.473451
v -33.906261 10.357391 -26.157511
v 33.906269 10.357391 -1.473451
v 33.906269 10.357391 -26.157511
vn 0.3231 -0.9464 -0.0000
vn 0.2809 -0.9597 0.0006
vn 0.2485 -0.9684 -0.0189
vn 0.1551 -0.9879 -0.0000
vn 0.1406 -0.9900 -0.0070
vn -0.0000 -1.0000 -0.0000
vn -0.1468 -0.9891 0.0088
vn -0.1406 -0.9900 -0.0070
vn -0.2628 -0.9646 0.0215
vn -0.2485 -0.9684 -0.0189
vn -0.3231 -0.9464 -0.0000
vt 0.666329 0.510790
vt 0.721501 0.495474
vt 0.721454 0.643706
vt 0.666291 0.628152
vt 0.777248 0.489730
vt 0.777197 0.649562
vt 0.831962 0.486821
vt 0.831909 0.652545
vt 0.886674 0.489765
vt 0.886623 0.649597
vt 0.942416 0.495545
vt 0.942369 0.643776
vt 0.997579 0.510896
vt 0.997542 0.628257
s 1
usemtl initialShadingGroup
f 140/161/102 129/162/103 134/163/104 139/164/102
f 129/162/103 130/165/105 135/166/106 134/163/104
f 130/165/105 131/167/107 136/168/107 135/166/106
f 131/167/107 132/169/108 137/170/109 136/168/107
f 132/169/108 133/171/110 138/172/111 137/170/109
f 133/171/110 142/173/112 141/174/112 138/172/111
