# Blender 3.6.22
# www.blender.org
mtllib transparent1.mtl
o dudu_1.001
v 0.541957 0.216055 -0.769329
v 0.542356 0.217275 -0.769329
v 0.541957 0.217275 -0.768110
v 0.541957 0.672161 -0.768110
v 0.542356 0.672161 -0.769329
v 0.541957 0.672161 -0.770548
v 0.542356 0.672161 -0.769329
v 0.541957 0.217275 -0.770548
v 0.542356 0.217275 -0.769329
v 0.541780 0.216280 -0.768334
v 0.538126 0.661530 0.813733
v 0.543020 0.661530 0.813733
v 0.537921 0.673734 0.813733
v 0.543020 0.673734 0.813733
v 0.537921 0.673734 -0.768106
v 0.543020 0.673734 -0.768106
v 0.538126 0.661530 -0.768106
v 0.543020 0.661530 -0.768106
v 0.538126 0.215637 -0.768106
v 0.543020 0.215637 -0.768106
v 0.543020 0.215638 0.813733
v 0.538126 0.215638 0.813733
v 0.538125 0.242679 -0.768478
v 0.538125 0.242680 0.814105
v 0.541957 0.672161 0.813297
v 0.540995 0.672161 0.812792
v 0.540995 0.217275 0.812792
v 0.541957 0.217275 0.813297
vn 0.9505 -0.0001 0.3107
vn 0.8441 -0.1866 0.5026
vn 0.8627 -0.0353 0.5044
vn 0.9372 -0.1176 0.3283
vn 0.9372 -0.1176 -0.3284
vn 0.8741 -0.0942 -0.4765
vn 0.8939 0.1494 -0.4226
vn 0.9372 0.1176 -0.3284
vn 0.8896 -0.2366 0.3906
vn 0.9257 -0.2675 0.2676
vn -0.0000 -0.0000 1.0000
vn -0.0000 -0.0000 -1.0000
vn 1.0000 -0.0000 -0.0000
vn -1.0000 -0.0000 -0.0000
vn 0.5013 -0.2109 -0.8392
vn 0.4875 -0.1419 -0.8615
vn 0.4875 0.1420 -0.8615
vn 0.6441 0.1225 -0.7551
vt 0.624904 0.000289
vt 0.749985 0.000941
vt 0.749985 0.249059
vt 0.624904 0.249711
vt 0.875000 0.235521
vt 0.750015 0.249059
vt 0.750015 0.000941
vt 0.875000 0.014479
vt 0.749974 -0.000000
vt 0.625000 0.000000
vt 0.620000 0.000000
vt 0.625000 0.250000
vt 0.620000 0.250000
vt 0.620000 0.500000
vt 0.625000 0.500000
vt 0.625000 0.750000
vt 0.620000 0.750000
vt 0.875000 0.000000
vt 0.875000 0.250000
vt 0.625000 1.000000
vt 0.620000 1.000000
vt 0.624686 0.500941
vt 0.624686 0.529207
vt 0.624686 0.720793
vt 0.624686 0.749059
s 1
usemtl initialShadingGroup.006
f 3/1/1 2/2/2 5/3/3 4/4/4
f 6/5/5 7/6/6 9/7/7 8/8/8
f 1/9/9 2/2/2 3/1/1 10/10/10
f 11/11/11 12/10/11 14/12/11 13/13/11
f 15/14/12 16/15/12 18/16/12 17/17/12
f 12/10/13 18/18/13 16/19/13 14/12/13
f 17/17/12 18/16/12 20/16/12 19/17/12
f 18/16/13 12/20/13 21/20/13 20/16/13
f 12/20/11 11/21/11 22/21/11 21/20/11
f 11/21/14 17/17/14 23/17/14 24/21/14
f 26/22/15 25/23/16 28/24/17 27/25/18
o dudu_1.002
v -0.541404 0.215848 -0.769278
v -0.541493 0.215346 -0.767976
v -0.543064 0.215848 -0.768396
v -0.543694 0.217061 -0.768516
v -0.542959 0.217061 -0.769696
v -0.541317 0.217061 -0.769767
v -0.538903 0.215848 0.817276
v -0.538815 0.217061 0.817765
v -0.540457 0.217061 0.817698
v -0.541195 0.217061 0.816522
v -0.540566 0.215848 0.816401
v -0.538996 0.215346 0.815975
v -0.542311 0.659194 -0.765139
v -0.542224 0.657981 -0.765628
v -0.543867 0.657981 -0.765557
v -0.544601 0.657981 -0.764377
v -0.543971 0.659194 -0.764258
v -0.542400 0.659696 -0.763837
v -0.539916 0.659697 0.811839
v -0.541486 0.659194 0.812265
v -0.542115 0.657982 0.812387
v -0.541377 0.657982 0.813563
v -0.539735 0.657982 0.813630
v -0.540724 0.657981 -0.764673
v -0.542224 0.657981 -0.765628
v -0.542310 0.659194 -0.765139
v -0.542400 0.659696 -0.763837
v -0.540795 0.659194 -0.763343
v -0.540133 0.657981 -0.763163
v -0.538237 0.657982 0.812670
v -0.537651 0.657982 0.811159
v -0.538313 0.659194 0.811340
v -0.539916 0.659697 0.811839
v -0.539734 0.657982 0.813630
v -0.541317 0.217061 -0.769767
v -0.539817 0.217061 -0.768812
v -0.539226 0.217061 -0.767302
v -0.538902 0.215848 0.817276
v -0.538996 0.215346 0.815975
v -0.537393 0.215848 0.815476
v -0.536731 0.217061 0.815294
v -0.537317 0.217061 0.816806
v -0.538814 0.217061 0.817765
v -0.542712 0.216071 -0.769406
v -0.540211 0.216071 0.817408
v -0.543619 0.658971 -0.765267
v -0.541131 0.658972 0.813273
v -0.541041 0.658971 -0.764521
v -0.537634 0.216071 0.816655
v -0.541195 0.217061 0.816522
v -0.543694 0.217061 -0.768516
v -0.542115 0.657982 0.812387
v -0.544601 0.657981 -0.764377
v -0.542626 0.657774 0.228540
v -0.543271 0.657774 -0.180532
v -0.538160 0.657773 0.228216
v -0.538804 0.657774 -0.180223
v -0.542538 0.638154 0.223382
v -0.542520 0.639591 0.233252
v -0.542577 0.649999 0.229077
v -0.538111 0.649999 0.228753
v -0.538054 0.639583 0.232933
v -0.538072 0.638153 0.223058
v -0.543224 0.650000 -0.181069
v -0.543179 0.639591 -0.185244
v -0.543166 0.638154 -0.175374
v -0.538700 0.638153 -0.175064
v -0.538713 0.639583 -0.184940
v -0.538757 0.649999 -0.180760
v -0.541957 0.216055 -0.769329
v -0.540995 0.217275 -0.767605
v -0.541957 0.217275 -0.768110
v -0.542356 0.217275 -0.769329
v -0.541957 0.672161 -0.768110
v -0.540995 0.672161 -0.767605
v -0.541780 0.216280 -0.768334
v -0.543020 0.661530 0.813733
v -0.538125 0.661530 0.813733
v -0.543020 0.673734 0.813733
v -0.537920 0.673734 0.813733
v -0.543020 0.673734 -0.768106
v -0.537920 0.673734 -0.768106
v -0.543020 0.661530 -0.768106
v -0.538125 0.661530 -0.768106
v -0.538793 0.242679 -0.768478
v -0.538793 0.242680 0.814105
v -0.538793 0.215279 -0.768478
v -0.538793 0.215280 0.814105
v -0.541375 0.661530 -0.236432
v -0.539771 0.661530 -0.236432
v -0.539771 0.661530 0.282059
v -0.541375 0.661530 0.282059
v -0.541957 0.672161 0.813297
v -0.540995 0.672161 0.812792
v -0.541957 0.216056 0.814516
v -0.542356 0.217275 0.814516
v -0.541957 0.217275 0.813297
v -0.540995 0.217275 0.812792
v -0.540995 0.216056 0.813297
v 0.540995 0.216056 0.813297
v 0.540995 0.217275 0.812792
v -0.541780 0.216280 0.813521
vn -0.9218 -0.3626 -0.1370
vn -0.8875 -0.4607 0.0008
vn -0.8875 -0.4607 0.0020
vn -0.9214 -0.3626 0.1399
vn -0.3047 -0.9525 0.0005
vn -0.4393 -0.8705 -0.2220
vn -0.3423 -0.8786 0.3329
vn -0.3047 -0.9524 0.0005
vn -0.2005 -0.0262 -0.9793
vn -0.0432 0.0093 -0.9990
vn -0.0432 0.0094 -0.9990
vn -0.0413 -0.0142 -0.9990
vn -0.8491 0.0009 -0.5282
vn -0.9156 0.3883 -0.1039
vn -0.8490 0.0049 -0.5283
vn -0.8472 0.0009 0.5313
vn -0.8472 0.0049 0.5313
vn -0.9153 0.3884 0.1068
vn -0.0404 0.0092 0.9991
vn -0.2538 -0.1631 0.9534
vn -0.2333 -0.0495 0.9711
vn -0.0604 -0.1273 0.9900
vn -0.4520 0.8902 -0.0564
vn -0.3046 0.9525 0.0005
vn -0.3841 0.9102 -0.1549
vn -0.3469 0.9140 -0.2102
vn -0.8876 0.4607 0.0008
vn -0.8876 0.4607 0.0017
vn 0.7649 0.0580 -0.6415
vn 0.5369 0.0091 -0.8436
vn 0.5433 0.1520 -0.8257
vn 0.7375 0.1362 -0.6614
vn 0.9971 0.0686 0.0320
vn 0.8777 0.4792 -0.0019
vn 0.8326 0.5319 -0.1547
vn 0.9269 0.3707 -0.0586
vn 0.2988 0.9543 -0.0005
vn 0.4969 0.8395 -0.2198
vn 0.3774 0.9074 -0.1847
vn 0.2851 0.9525 -0.1069
vn 0.9109 -0.1644 0.3784
vn 0.9323 0.0037 0.3616
vn 0.8668 -0.2918 0.4044
vn 0.5482 -0.1272 0.8266
vn 0.7391 -0.1171 0.6634
vn 0.7701 -0.0473 0.6362
vn 0.5395 0.0090 0.8419
vn -0.0307 -0.3141 -0.9489
vn -0.0070 -0.3338 -0.9426
vn -0.2498 -0.9131 -0.3221
vn -0.1724 -0.9300 -0.3247
vn -0.8033 -0.4018 -0.4396
vn -0.2496 -0.9149 0.3173
vn -0.1713 -0.9299 0.3254
vn -0.0192 -0.3215 0.9467
vn -0.0044 -0.3338 0.9426
vn -0.8018 -0.4016 0.4425
vn -0.2494 0.9134 -0.3217
vn -0.1723 0.9300 -0.3247
vn -0.0303 0.3144 -0.9488
vn -0.0071 0.3337 -0.9427
vn -0.8035 0.4014 -0.4397
vn -0.8876 0.4607 0.0020
vn -0.8020 0.4016 0.4423
vn 0.9292 0.3560 -0.0988
vn 0.8721 0.3840 -0.3033
vn 0.6681 0.2802 -0.6893
vn 0.4865 0.3251 -0.8109
vn 0.4896 0.8316 -0.2623
vn 0.3363 0.8980 -0.2837
vn 0.6715 -0.2846 0.6841
vn 0.4889 -0.3251 0.8095
vn 0.4916 -0.8357 0.2449
vn 0.4489 -0.7965 0.4051
vn 0.2427 -0.9159 0.3197
vn 0.3371 -0.8980 0.2827
vn 0.9344 -0.2932 0.2025
vn 0.8731 -0.3839 0.3006
vn -1.0000 -0.0013 0.0017
vn -1.0000 -0.0012 0.0014
vn -1.0000 -0.0015 0.0013
vn -1.0000 -0.0011 0.0016
vn -1.0000 -0.0012 0.0015
vn -1.0000 -0.0017 0.0019
vn -1.0000 -0.0027 0.0008
vn -1.0000 -0.0071 0.0007
vn -1.0000 -0.0027 0.0012
vn -1.0000 -0.0027 0.0024
vn -1.0000 -0.0071 0.0024
vn -1.0000 -0.0023 0.0023
vn 1.0000 0.0071 -0.0008
vn 1.0000 0.0071 -0.0024
vn 1.0000 0.0014 -0.0013
vn 1.0000 0.0023 -0.0008
vn 0.9726 0.1848 0.1410
vn 1.0000 0.0017 -0.0019
vn 1.0000 0.0012 -0.0015
vn 1.0000 0.0012 -0.0016
vn 1.0000 0.0023 -0.0023
vn -0.0721 -0.0691 -0.9950
vn -0.0690 -0.0691 0.9952
vn 0.0001 1.0000 -0.0000
vn -0.0001 -1.0000 -0.0000
vn -0.0652 0.4322 -0.8994
vn -0.0623 0.4322 0.8996
vn -0.4875 0.1420 0.8615
vn -0.5880 0.1760 0.7895
vn -0.6441 -0.1225 0.7550
vn -0.4875 -0.1419 0.8615
vn -0.9609 -0.2464 0.1266
vn -0.8200 -0.3578 0.4468
vn -0.8901 -0.2352 0.3904
vn -0.9257 -0.2675 0.2676
vn -0.0000 -0.0000 1.0000
vn -0.0000 -0.0000 -1.0000
vn -0.0000 -1.0000 -0.0000
vn -1.0000 -0.0000 -0.0000
vn -0.4875 -0.1419 -0.8615
vn -0.6795 -0.0431 -0.7324
vn -0.6441 0.1225 -0.7551
vn -0.4875 0.1420 -0.8615
vn 0.1879 -0.4003 -0.8969
vn 0.2333 -0.4935 -0.8379
vn -0.2333 -0.4935 -0.8379
vn -0.1879 -0.4003 -0.8969
vn -0.8887 -0.2415 -0.3898
vn -0.8270 -0.4088 -0.3859
vn -0.9608 -0.2465 -0.1266
vn -0.9256 -0.2675 -0.2676
vt 0.375314 0.000941
vt 0.403615 0.000941
vt 0.596385 0.000941
vt 0.624686 0.000941
vt 0.389408 1.000000
vt 0.375314 0.875015
vt 0.624686 0.875015
vt 0.610592 1.000000
vt 0.250015 0.000941
vt 0.375096 0.000289
vt 0.375096 0.249711
vt 0.250015 0.249059
vt 0.375314 0.249059
vt 0.624904 0.000289
vt 0.624904 0.249711
vt 0.624687 0.249059
vt 0.749985 0.000941
vt 0.749985 0.249059
vt 0.375314 0.374985
vt 0.624686 0.374985
vt 0.249985 0.249059
vt 0.125000 0.235521
vt 0.125000 0.014479
vt 0.249985 0.000941
vt 0.375314 0.500941
vt 0.375096 0.500289
vt 0.624904 0.500289
vt 0.624686 0.500941
vt 0.375314 0.375015
vt 0.624686 0.375015
vt 0.624686 0.529207
vt 0.624686 0.720793
vt 0.624686 0.749059
vt 0.875000 0.235521
vt 0.750015 0.249059
vt 0.750015 0.000941
vt 0.875000 0.014479
vt 0.250026 0.000000
vt 0.375000 0.000000
vt 0.375000 0.875026
vt 0.375000 1.000000
vt 0.625000 0.875026
vt 0.625000 1.000000
vt 0.749974 -0.000000
vt 0.625000 0.000000
vt 0.375000 0.374974
vt 0.375000 0.250000
vt 0.250026 0.250000
vt 0.625000 0.250000
vt 0.375314 0.529207
vt 0.375000 0.500000
vt 0.249974 0.250000
vt 0.125000 0.250000
vt 0.375000 0.375026
vt 0.750026 -0.000000
vt 0.875000 0.000000
vt 0.625000 0.874974
vt 0.624686 0.874985
vt 0.624904 0.749711
vt 0.625000 0.750000
vt 0.620907 0.000941
vt 0.379092 0.000942
vt 0.624686 0.124968
vt 0.375314 0.125018
vt 0.624686 0.624983
vt 0.375313 0.749059
vt 0.375314 0.749059
vt 0.379098 0.749050
vt 0.620902 0.749059
vt 0.375313 0.625011
vt 0.380000 0.000000
vt 0.380000 0.250000
vt 0.380000 0.500000
vt 0.380000 0.750000
vt 0.375000 0.750000
vt 0.380000 1.000000
vt 0.125000 0.000000
vt 0.620000 1.000000
vt 0.620000 0.750000
vt 0.392791 0.767014
vt 0.385746 0.773665
vt 0.375313 0.720793
vt 0.375096 0.749711
vt 0.249974 0.000000
s 1
usemtl initialShadingGroup.006
f 32/26/19 31/27/20 39/28/21 38/29/22
f 31/30/23 30/31/24 40/32/25 39/33/26
f 34/34/27 33/35/28 43/36/29 42/37/30
f 33/35/31 32/26/19 44/38/32 43/36/33
f 38/29/22 37/39/34 50/40/35 49/41/36
f 37/39/37 36/42/38 51/43/39 50/40/40
f 46/44/41 45/36/42 48/40/43 47/45/44
f 45/36/45 44/38/32 49/41/36 48/40/46
f 53/46/47 52/47/48 64/48/49 63/49/50
f 57/50/51 56/51/52 60/52/53 59/53/54
f 56/51/55 55/54/56 61/55/57 60/52/58
f 59/53/54 58/56/59 70/57/60 69/58/61
f 58/59/62 62/60/63 71/61/64 70/62/65
f 33/35/28 34/34/27 29/63/66 72/64/67
f 29/65/68 30/31/24 31/30/23 72/66/69
f 31/27/20 32/26/19 33/35/31 72/64/70
f 39/33/26 40/32/25 35/67/71 73/68/72
f 35/69/73 36/42/38 37/39/37 73/70/74
f 37/39/34 38/29/22 39/28/21 73/70/75
f 45/36/42 46/44/41 41/71/76 74/72/77
f 41/73/78 42/37/30 43/36/29 74/72/79
f 43/36/33 44/38/32 45/36/45 74/72/80
f 48/40/81 49/41/36 50/40/35 75/74/82
f 56/51/52 57/50/51 52/75/83 76/76/84
f 52/47/48 53/46/47 54/77/85 76/78/86
f 54/79/87 55/54/56 56/51/55 76/76/88
f 70/62/65 71/61/64 66/80/89 77/81/90
f 66/82/91 67/83/92 68/84/93 77/85/94
f 68/84/95 69/58/61 70/57/60 77/85/96
f 79/26/97 78/29/98 87/29/99 86/86/100 94/87/101 93/26/102
f 78/29/98 80/41/103 82/41/104 88/88/105 87/29/99
f 80/41/103 81/38/106 83/38/107 82/41/104
f 81/38/106 79/26/97 93/26/102 92/89/108 83/38/107
f 57/50/51 59/53/54 84/53/109 85/50/110
f 59/53/54 69/58/61 90/58/111 89/90/112 84/53/109
f 69/58/61 65/91/113 96/92/114 95/93/115 91/94/116 90/58/111
f 65/91/113 57/50/51 85/50/110 97/95/117 96/92/114
f 89/90/118 88/88/118 82/41/118 84/53/118
f 83/38/119 92/89/119 97/95/119 85/50/119
f 95/93/120 94/87/120 86/86/120 91/94/120
f 82/41/121 83/38/121 85/50/121 84/53/121
f 86/86/122 88/88/122 89/90/122 91/94/122
f 92/89/123 94/87/123 95/93/123 97/95/123
f 86/86/100 87/29/99 88/88/105
f 89/90/112 90/58/111 91/94/116
f 92/89/108 93/26/102 94/87/101
f 95/93/115 96/92/114 97/95/117
f 100/35/124 99/26/125 103/38/126 102/36/127
f 100/35/128 101/34/129 98/63/130 104/64/131
f 105/64/132 106/96/132 108/97/132 107/72/132
f 109/76/133 110/98/133 112/99/133 111/100/133
f 117/100/134 118/99/134 119/101/134 120/66/134
f 111/102/135 105/64/135 107/72/135 109/78/135
f 114/103/135 113/104/135 115/104/135 116/103/135
f 112/105/134 106/99/134 119/105/134 118/106/134
f 105/99/134 111/99/134 117/100/134 120/99/134
f 121/75/136 122/50/137 126/91/138 125/107/139
f 127/108/140 126/91/141 129/58/142 128/84/143
f 123/109/144 124/49/145 125/48/146 130/102/147
o dudu_1.003
v -0.540724 0.657981 -0.764673
v -0.540133 0.657981 -0.763163
v -0.539817 0.217061 -0.768812
v -0.539226 0.217061 -0.767302
v -0.540995 0.215550 -0.769329
v -0.540995 0.216055 -0.768110
v -0.540995 0.217275 -0.767605
v -0.541957 0.217275 -0.768110
v 0.541957 0.217275 -0.768110
v 0.540995 0.217275 -0.767605
v 0.540995 0.216055 -0.768110
v 0.540995 0.215550 -0.769329
v -0.540995 0.672161 -0.767605
v -0.540995 0.673381 -0.768110
v -0.540995 0.673886 -0.769329
v 0.540995 0.673886 -0.769329
v 0.540995 0.673381 -0.768110
v 0.540995 0.672161 -0.767605
v 0.541957 0.672161 -0.768110
v -0.541957 0.672161 -0.770548
v -0.542356 0.672161 -0.769329
v -0.540995 0.673886 -0.769329
v -0.540995 0.673381 -0.770548
v -0.540995 0.672161 -0.771053
v 0.541957 0.672161 -0.770548
v 0.540995 0.672161 -0.771053
v 0.540995 0.673381 -0.770548
v 0.540995 0.673886 -0.769329
v 0.541957 0.673381 -0.769329
v -0.542356 0.217275 -0.769329
v -0.541957 0.217275 -0.770548
v -0.540995 0.217275 -0.771053
v -0.540995 0.216055 -0.770548
v -0.540995 0.215550 -0.769329
v 0.540995 0.215550 -0.769329
v 0.540995 0.216055 -0.770548
v 0.540995 0.217275 -0.771053
v 0.541957 0.217275 -0.770548
v -0.541780 0.216280 -0.768334
v -0.541780 0.673156 -0.770324
v 0.541780 0.673156 -0.770324
v -0.537920 0.673734 -0.768106
v -0.499578 0.673734 -0.768106
v -0.477858 0.673734 -0.768106
v -0.456137 0.673734 -0.768106
v -0.434416 0.673734 -0.768106
v -0.412695 0.673734 -0.768106
v -0.390974 0.673734 -0.768106
v -0.369254 0.673734 -0.768106
v -0.347533 0.673734 -0.768106
v -0.325812 0.673734 -0.768106
v -0.304091 0.673734 -0.768106
v -0.282370 0.673734 -0.768106
v -0.260650 0.673734 -0.768106
v -0.238929 0.673734 -0.768106
v -0.217208 0.673734 -0.768106
v -0.195487 0.673734 -0.768106
v -0.173766 0.673734 -0.768106
v -0.152046 0.673734 -0.768106
v -0.130325 0.673734 -0.768106
v -0.108604 0.673734 -0.768106
v -0.086883 0.673734 -0.768106
v -0.065162 0.673734 -0.768106
v -0.043442 0.673734 -0.768106
v -0.021721 0.673734 -0.768106
v 0.000000 0.673734 -0.768106
v 0.021721 0.673734 -0.768106
v 0.043442 0.673734 -0.768106
v 0.065163 0.673734 -0.768106
v 0.086883 0.673734 -0.768106
v 0.108604 0.673734 -0.768106
v 0.130325 0.673734 -0.768106
v 0.152046 0.673734 -0.768106
v 0.173767 0.673734 -0.768106
v 0.195487 0.673734 -0.768106
v 0.217208 0.673734 -0.768106
v 0.238929 0.673734 -0.768106
v 0.260650 0.673734 -0.768106
v 0.282370 0.673734 -0.768106
v 0.304091 0.673734 -0.768106
v 0.325812 0.673734 -0.768106
v 0.347533 0.673734 -0.768106
v 0.369254 0.673734 -0.768106
v 0.390975 0.673734 -0.768106
v 0.412695 0.673734 -0.768106
v 0.434416 0.673734 -0.768106
v 0.456137 0.673734 -0.768106
v 0.477858 0.673734 -0.768106
v 0.499579 0.673734 -0.768106
v 0.537921 0.673734 -0.768106
v -0.538125 0.661530 -0.768106
v -0.499578 0.661530 -0.768106
v -0.477858 0.661530 -0.768106
v -0.456137 0.661530 -0.768106
v -0.434416 0.661530 -0.768106
v -0.412695 0.661530 -0.768106
v -0.390974 0.661530 -0.768106
v -0.369254 0.661530 -0.768106
v -0.347533 0.661530 -0.768106
v -0.325812 0.661530 -0.768106
v -0.304091 0.661530 -0.768106
v -0.282370 0.661530 -0.768106
v -0.260650 0.661530 -0.768106
v -0.238929 0.661530 -0.768106
v -0.217208 0.661530 -0.768106
v -0.195487 0.661530 -0.768106
v -0.173766 0.661530 -0.768106
v -0.152046 0.661530 -0.768106
v -0.130325 0.661530 -0.768106
v -0.108604 0.661530 -0.768106
v -0.086883 0.661530 -0.768106
v -0.065162 0.661530 -0.768106
v -0.043442 0.661530 -0.768106
v -0.021721 0.661530 -0.768106
v 0.000000 0.661530 -0.768106
v 0.021721 0.661530 -0.768106
v 0.043442 0.661530 -0.768106
v 0.065163 0.661530 -0.768106
v 0.086883 0.661530 -0.768106
v 0.108604 0.661530 -0.768106
v 0.130325 0.661530 -0.768106
v 0.152046 0.661530 -0.768106
v 0.173767 0.661530 -0.768106
v 0.195487 0.661530 -0.768106
v 0.217208 0.661530 -0.768106
v 0.238929 0.661530 -0.768106
v 0.260650 0.661530 -0.768106
v 0.282370 0.661530 -0.768106
v 0.304091 0.661530 -0.768106
v 0.325812 0.661530 -0.768106
v 0.347533 0.661530 -0.768106
v 0.369254 0.661530 -0.768106
v 0.390975 0.661530 -0.768106
v 0.412695 0.661530 -0.768106
v 0.434416 0.661530 -0.768106
v 0.456137 0.661530 -0.768106
v 0.477858 0.661530 -0.768106
v 0.499579 0.661530 -0.768106
v 0.538126 0.661530 -0.768106
v 0.538126 0.215637 -0.768106
v 0.538125 0.242679 -0.768478
v 0.538125 0.215279 -0.768478
v -0.538793 0.242679 -0.768478
v -0.538793 0.215279 -0.768478
vn 0.9097 -0.1644 -0.3813
vn 0.8025 -0.0254 -0.5961
vn 0.8163 0.1177 -0.5656
vn 0.9060 0.1810 -0.3826
vn -0.0114 -0.4670 0.8842
vn -0.0007 -0.3824 0.9240
vn -0.1879 -0.4004 0.8969
vn -0.0069 -0.3398 0.9405
vn 0.1810 -0.8988 0.3993
vn 0.1410 -0.8134 0.5643
vn -0.0531 -0.8009 0.5964
vn -0.1810 -0.8988 0.3993
vn 0.4875 0.1420 0.8615
vn 0.4875 -0.1419 0.8615
vn 0.4914 -0.0931 0.8659
vn 0.2256 0.8348 0.5022
vn 0.1810 0.8988 0.3993
vn -0.1810 0.8988 0.3993
vn -0.2688 0.8703 0.4127
vn -0.8959 -0.1436 -0.4205
vn -0.9372 -0.1176 -0.3284
vn -0.9372 0.1176 -0.3284
vn -0.8712 0.0987 -0.4810
vn -0.4645 0.0014 -0.8856
vn -0.0005 0.0011 -1.0000
vn -0.0856 0.1099 -0.9902
vn -0.4875 0.1420 -0.8615
vn -0.0008 0.3824 -0.9240
vn -0.1879 0.4003 -0.8969
vn -0.0069 0.3398 -0.9405
vn 0.1810 0.8988 -0.3993
vn 0.1487 0.8085 -0.5694
vn 0.0607 0.8061 -0.5887
vn -0.0000 0.9238 -0.3829
vn 0.4875 -0.1419 -0.8615
vn 0.4875 0.1420 -0.8615
vn 0.4126 0.0084 -0.9109
vn 0.2158 -0.8386 -0.5002
vn 0.1810 -0.8988 -0.3993
vn -0.1810 -0.8988 -0.3993
vn -0.1410 -0.8134 -0.5643
vn 0.1880 -0.4004 -0.8969
vn -0.1879 -0.4004 -0.8969
vn 0.1544 -0.1756 0.9723
vn -0.0006 -0.3824 0.9240
vn -0.2386 -0.2834 0.9289
vn -0.3997 -0.3151 0.8608
vn -0.0007 0.3824 -0.9240
vn -0.3996 0.3151 -0.8608
vn 0.3476 0.8191 -0.4564
vn 0.3998 0.8606 -0.3155
vn -0.0000 -0.0000 -1.0000
vn -0.3163 -0.0000 -0.9487
vn 1.0000 -0.0000 -0.0001
vt 0.375314 0.529207
vt 0.375314 0.500941
vt 0.375313 0.749059
vt 0.375313 0.720793
vt 0.375314 0.000941
vt 0.403615 0.000941
vt 0.596385 0.000941
vt 0.624686 0.000941
vt 0.389408 1.000000
vt 0.375314 0.875015
vt 0.624686 0.875015
vt 0.610592 1.000000
vt 0.624904 0.000289
vt 0.624904 0.249711
vt 0.624687 0.249059
vt 0.375314 0.374985
vt 0.375096 0.249711
vt 0.624686 0.374985
vt 0.249985 0.249059
vt 0.125000 0.235521
vt 0.125000 0.014479
vt 0.249985 0.000941
vt 0.375096 0.500289
vt 0.624904 0.500289
vt 0.624686 0.500941
vt 0.375314 0.375015
vt 0.624686 0.375015
vt 0.624686 0.529207
vt 0.624686 0.720793
vt 0.624686 0.749059
vt 0.375314 0.874985
vt 0.375096 0.749711
vt 0.624904 0.749711
vt 0.624686 0.874985
vt 0.375314 0.249059
vt 0.375096 0.000289
vt 0.375000 0.000000
vt 0.375000 0.500000
vt 0.625000 0.375026
vt 0.625000 0.500000
vt 0.615000 0.750000
vt 0.610000 0.750000
vt 0.605000 0.750000
vt 0.600000 0.750000
vt 0.595000 0.750000
vt 0.590000 0.750000
vt 0.585000 0.750000
vt 0.580000 0.750000
vt 0.575000 0.750000
vt 0.570000 0.750000
vt 0.565000 0.750000
vt 0.560000 0.750000
vt 0.555000 0.750000
vt 0.550000 0.750000
vt 0.545000 0.750000
vt 0.540000 0.750000
vt 0.535000 0.750000
vt 0.530000 0.750000
vt 0.525000 0.750000
vt 0.520000 0.750000
vt 0.515000 0.750000
vt 0.510000 0.750000
vt 0.505000 0.750000
vt 0.500000 0.750000
vt 0.495000 0.750000
vt 0.490000 0.750000
vt 0.485000 0.750000
vt 0.480000 0.750000
vt 0.475000 0.750000
vt 0.470000 0.750000
vt 0.465000 0.750000
vt 0.460000 0.750000
vt 0.455000 0.750000
vt 0.450000 0.750000
vt 0.445000 0.750000
vt 0.440000 0.750000
vt 0.435000 0.750000
vt 0.430000 0.750000
vt 0.425000 0.750000
vt 0.420000 0.750000
vt 0.415000 0.750000
vt 0.410000 0.750000
vt 0.405000 0.750000
vt 0.400000 0.750000
vt 0.395000 0.750000
vt 0.390000 0.750000
vt 0.385000 0.750000
vt 0.380000 0.750000
vt 0.380000 0.500000
vt 0.385000 0.500000
vt 0.390000 0.500000
vt 0.395000 0.500000
vt 0.400000 0.500000
vt 0.405000 0.500000
vt 0.410000 0.500000
vt 0.415000 0.500000
vt 0.420000 0.500000
vt 0.425000 0.500000
vt 0.430000 0.500000
vt 0.435000 0.500000
vt 0.440000 0.500000
vt 0.445000 0.500000
vt 0.450000 0.500000
vt 0.455000 0.500000
vt 0.460000 0.500000
vt 0.465000 0.500000
vt 0.470000 0.500000
vt 0.475000 0.500000
vt 0.480000 0.500000
vt 0.485000 0.500000
vt 0.490000 0.500000
vt 0.495000 0.500000
vt 0.500000 0.500000
vt 0.505000 0.500000
vt 0.510000 0.500000
vt 0.515000 0.500000
vt 0.520000 0.500000
vt 0.525000 0.500000
vt 0.530000 0.500000
vt 0.535000 0.500000
vt 0.540000 0.500000
vt 0.545000 0.500000
vt 0.550000 0.500000
vt 0.555000 0.500000
vt 0.560000 0.500000
vt 0.565000 0.500000
vt 0.570000 0.500000
vt 0.575000 0.500000
vt 0.580000 0.500000
vt 0.585000 0.500000
vt 0.590000 0.500000
vt 0.595000 0.500000
vt 0.600000 0.500000
vt 0.605000 0.500000
vt 0.610000 0.500000
vt 0.615000 0.500000
vt 0.620000 0.500000
vt 0.620000 0.750000
s 1
usemtl initialShadingGroup.006
f 131/110/148 132/111/149 134/112/150 133/113/151
f 137/114/152 136/115/153 141/116/154 140/117/155
f 136/118/156 135/119/157 142/120/158 141/121/159
f 140/117/155 139/122/160 149/123/161 148/124/162
f 145/125/163 144/126/164 147/123/165 146/127/166
f 151/128/167 150/129/168 161/130/169 160/131/170
f 150/110/171 154/111/172 162/112/173 161/113/174
f 154/111/172 153/132/175 157/133/176 156/134/177
f 153/132/178 152/135/179 158/136/180 157/133/181
f 156/134/177 155/137/182 168/138/183 167/139/184
f 164/140/185 163/141/186 166/142/187 165/143/188
f 163/141/189 162/112/173 167/139/184 166/142/190
f 137/114/152 140/117/155 148/124/162 143/144/191
f 154/111/172 156/134/177 167/139/184 162/112/173
f 136/115/192 137/114/152 138/145/193 169/146/194
f 153/132/195 154/111/172 150/110/171 170/147/196
f 157/133/181 158/136/180 159/148/197 171/149/198
f 268/150/199 267/151/199 266/152/199 265/153/199 264/154/199 263/155/199 262/156/199 261/157/199 260/158/199 259/159/199 258/160/199 257/161/199 256/162/199 255/163/199 254/164/199 253/165/199 252/166/199 251/167/199 250/168/199 249/169/199 248/170/199 247/171/199 246/172/199 245/173/199 244/174/199 243/175/199 242/176/199 241/177/199 240/178/199 239/179/199 238/180/199 237/181/199 236/182/199 235/183/199 234/184/199 233/185/199 232/186/199 231/187/199 230/188/199 229/189/199 228/190/199 227/191/199 226/192/199 225/193/199 224/194/199 223/195/199 222/196/199 221/197/199 172/198/199 173/199/199 174/200/199 175/201/199 176/202/199 177/203/199 178/204/199 179/205/199 180/206/199 181/207/199 182/208/199 183/209/199 184/210/199 185/211/199 186/212/199 187/213/199 188/214/199 189/215/199 190/216/199 191/217/199 192/218/199 193/219/199 194/220/199 195/221/199 196/222/199 197/223/199 198/224/199 199/225/199 200/226/199 201/227/199 202/228/199 203/229/199 204/230/199 205/231/199 206/232/199 207/233/199 208/234/199 209/235/199 210/236/199 211/237/199 212/238/199 213/239/199 214/240/199 215/241/199 216/242/199 217/243/199 218/244/199 219/245/199 220/246/199 269/247/199
f 269/247/200 270/247/201 272/247/201 271/247/201
f 271/247/199 272/247/199 274/247/199 273/247/199
o dudu_1.004
v 0.538126 0.661530 0.813733
v 0.538126 0.215638 0.813733
v 0.538125 0.242680 0.814105
v 0.538125 0.215280 0.814105
v -0.538793 0.242680 0.814105
v -0.538793 0.215280 0.814105
v -0.541957 0.216056 0.814516
v -0.540995 0.215550 0.814516
v -0.540995 0.216056 0.815735
v -0.540995 0.217275 0.816240
v -0.541957 0.217275 0.815735
v -0.542356 0.217275 0.814516
v 0.541957 0.216056 0.814516
v 0.542356 0.217275 0.814516
v 0.541957 0.217275 0.815735
v 0.540995 0.217275 0.816240
v 0.540995 0.216056 0.815735
v 0.540995 0.215550 0.814516
v -0.541957 0.673381 0.814516
v -0.542356 0.672161 0.814516
v -0.541957 0.672161 0.815735
v -0.540995 0.672161 0.816240
v -0.540995 0.673381 0.815735
v -0.540995 0.673886 0.814516
v 0.540995 0.673886 0.814516
v 0.540995 0.673381 0.815735
v 0.540995 0.672161 0.816240
v 0.541957 0.672161 0.815735
v 0.542356 0.672161 0.814516
v -0.541957 0.672161 0.813297
v -0.542356 0.672161 0.814516
v -0.541957 0.673381 0.814516
v -0.540995 0.673886 0.814516
v -0.540995 0.673381 0.813297
v -0.540995 0.672161 0.812792
v 0.541957 0.672161 0.813297
v 0.540995 0.672161 0.812792
v 0.540995 0.673381 0.813297
v 0.540995 0.673886 0.814516
v 0.542356 0.672161 0.814516
v -0.541957 0.216056 0.814516
v -0.542356 0.217275 0.814516
v -0.541957 0.217275 0.813297
v -0.540995 0.217275 0.812792
v -0.540995 0.216056 0.813297
v -0.540995 0.215550 0.814516
v 0.541957 0.216056 0.814516
v 0.540995 0.215550 0.814516
v 0.540995 0.216056 0.813297
v 0.540995 0.217275 0.812792
v 0.541957 0.217275 0.813297
v 0.542356 0.217275 0.814516
v -0.541780 0.216280 0.815511
v 0.541780 0.216280 0.815511
v -0.541780 0.673156 0.815511
v -0.541780 0.673156 0.813521
v -0.541780 0.216280 0.813521
v 0.541780 0.216280 0.813521
vn 1.0000 -0.0000 0.0001
vn -0.3163 -0.0000 0.9487
vn -0.0000 -0.0000 1.0000
vn 0.3549 -0.1823 -0.9170
vn 0.5367 -0.4738 -0.6982
vn 0.2387 -0.2834 -0.9288
vn 0.3996 -0.3151 -0.8608
vn -0.0005 -0.0011 1.0000
vn -0.0007 -0.3824 0.9240
vn 0.0007 -0.3824 0.9240
vn 0.0005 -0.0011 1.0000
vn -0.0000 -0.9238 0.3829
vn -0.2718 -0.7673 0.5808
vn 0.4244 -0.7815 0.4574
vn -0.8685 -0.0453 0.4935
vn -0.9505 -0.0001 0.3107
vn -0.9505 -0.0000 0.3107
vn -0.9257 -0.0502 0.3748
vn -0.4645 -0.0014 0.8856
vn -0.0005 0.0011 1.0000
vn -0.4645 0.0014 0.8856
vn 0.4645 -0.0014 0.8856
vn 0.4875 -0.1419 0.8615
vn 0.4126 -0.0084 0.9109
vn 0.9505 -0.0001 0.3107
vn 0.8465 -0.1872 0.4984
vn 0.8610 -0.0366 0.5072
vn 0.9372 -0.1176 0.3283
vn -0.0723 0.8105 0.5813
vn -0.0000 0.9238 0.3829
vn -0.1810 0.8988 0.3993
vn -0.2564 0.8731 0.4148
vn -0.0007 0.3824 0.9240
vn -0.1879 0.4003 0.8969
vn -0.8685 0.0453 -0.4936
vn -0.9505 0.0001 -0.3107
vn -0.9372 0.1176 -0.3284
vn -0.8727 0.0963 -0.4786
vn -0.0000 0.9238 -0.3829
vn -0.2740 0.7727 -0.5727
vn -0.2142 0.8392 -0.4998
vn -0.1810 0.8988 -0.3993
vn 0.9372 -0.1176 -0.3283
vn 0.8727 -0.0963 -0.4786
vn 0.8685 -0.0453 -0.4935
vn 0.9505 -0.0000 -0.3107
vn -0.0640 -0.8073 -0.5867
vn -0.0000 -0.9238 -0.3829
vn 0.2718 -0.7673 -0.5808
vn 0.0548 -0.2108 -0.9760
vn -0.2615 -0.0424 -0.9643
vn -0.1544 0.1756 -0.9723
vn 0.1544 0.1756 -0.9723
vn -0.8887 -0.2415 0.3898
vn -0.9257 -0.2675 0.2676
vn -0.3526 -0.8177 0.4550
vn -0.3997 -0.8606 0.3155
vn -0.3997 -0.3151 0.8608
vn 0.3526 -0.8178 0.4549
vn 0.3998 -0.8606 0.3155
vn 0.8887 -0.2415 0.3898
vn 0.9257 -0.2675 0.2676
vn 0.3997 -0.3151 0.8608
vn -0.3703 0.8109 0.4531
vn -0.3998 0.8606 0.3155
vn -0.8887 0.2415 0.3898
vn -0.9257 0.2674 0.2676
vn -0.3995 0.3151 0.8608
vn -0.3550 0.1822 -0.9169
vn -0.4544 0.5186 -0.7243
vn -0.2387 0.2834 -0.9288
vn -0.3996 0.3151 -0.8608
vn -0.8887 0.2415 -0.3898
vn -0.9257 0.2674 -0.2676
vn -0.3703 0.8109 -0.4531
vn -0.2740 0.7726 -0.5727
vn -0.0001 0.9238 -0.3829
vn -0.3998 0.8606 -0.3156
vn -0.3526 -0.8177 -0.4550
vn -0.3997 -0.8606 -0.3155
vn -0.2386 -0.2834 -0.9288
vn -0.5367 -0.4738 -0.6982
vn -0.3549 -0.1823 -0.9170
vn -0.3996 -0.3152 -0.8608
vn 0.8887 -0.2415 -0.3898
vn 0.9256 -0.2675 -0.2676
vn 0.3526 -0.8178 -0.4549
vn 0.3998 -0.8606 -0.3155
vt 0.620000 1.000000
vt 0.624904 0.749711
vt 0.624686 0.749059
vt 0.624686 0.720793
vt 0.625000 0.750000
vt 0.375314 0.000941
vt 0.403615 0.000941
vt 0.596385 0.000941
vt 0.624686 0.000941
vt 0.389408 1.000000
vt 0.375314 0.875015
vt 0.624686 0.875015
vt 0.610592 1.000000
vt 0.250015 0.000941
vt 0.375096 0.000289
vt 0.375096 0.249711
vt 0.250015 0.249059
vt 0.375314 0.249059
vt 0.624904 0.000289
vt 0.624904 0.249711
vt 0.624687 0.249059
vt 0.749985 0.000941
vt 0.749985 0.249059
vt 0.375314 0.374985
vt 0.624686 0.374985
vt 0.249985 0.249059
vt 0.125000 0.235521
vt 0.125000 0.014479
vt 0.249985 0.000941
vt 0.375096 0.500289
vt 0.375314 0.375015
vt 0.624686 0.375015
vt 0.624904 0.500289
vt 0.875000 0.235521
vt 0.750015 0.249059
vt 0.750015 0.000941
vt 0.875000 0.014479
vt 0.375314 0.874985
vt 0.375096 0.749711
vt 0.624686 0.874985
vt 0.375314 0.500941
vt 0.624686 0.500941
vt 0.375313 0.749059
vt 0.250026 0.000000
vt 0.375000 0.000000
vt 0.375000 0.875026
vt 0.375000 1.000000
vt 0.625000 0.875026
vt 0.625000 1.000000
vt 0.749974 -0.000000
vt 0.625000 0.000000
vt 0.375000 0.374974
vt 0.375000 0.250000
vt 0.250026 0.250000
vt 0.375314 0.529207
vt 0.375000 0.500000
vt 0.249974 0.250000
vt 0.125000 0.250000
vt 0.375000 0.375026
vt 0.375000 0.874974
vt 0.375000 0.750000
vt 0.375313 0.720793
vt 0.750026 -0.000000
vt 0.875000 0.000000
vt 0.625000 0.874974
s 1
usemtl initialShadingGroup.006
f 276/248/202 275/248/203 277/248/202 278/248/202
f 278/248/204 277/248/204 279/248/204 280/248/204
f 323/249/205 324/250/206 325/251/207 332/252/208
f 284/253/209 283/254/210 291/255/211 290/256/212
f 283/257/213 282/258/214 292/259/215 291/260/213
f 286/261/216 285/262/217 295/263/218 294/264/219
f 285/262/220 284/253/209 296/265/221 295/263/222
f 290/256/212 289/266/223 302/267/224 301/268/225
f 289/266/226 288/269/227 303/270/228 302/267/229
f 298/271/230 297/263/231 300/267/232 299/272/233
f 297/263/234 296/265/221 301/268/225 300/267/235
f 305/273/236 304/274/237 317/275/238 316/276/239
f 308/277/240 307/278/241 313/279/242 312/280/243
f 310/281/244 314/282/245 326/283/246 325/284/247
f 320/285/248 319/286/249 323/249/249 322/287/250
f 284/253/209 290/256/212 301/268/225 296/265/221
f 309/288/251 311/289/252 324/250/253 318/290/254
f 285/262/217 286/261/216 281/291/255 327/292/256
f 281/293/257 282/258/214 283/257/213 327/294/258
f 283/254/210 284/253/209 285/262/220 327/292/259
f 291/260/213 292/259/215 287/295/260 328/296/261
f 287/297/262 288/269/227 289/266/226 328/298/263
f 289/266/223 290/256/212 291/255/211 328/298/264
f 297/263/231 298/271/230 293/299/265 329/300/266
f 293/301/267 294/264/219 295/263/218 329/300/268
f 295/263/222 296/265/221 297/263/234 329/300/269
f 308/277/270 309/288/271 304/302/272 330/303/273
f 304/274/237 305/273/236 306/304/274 330/305/275
f 306/306/276 307/278/277 308/277/278 330/303/279
f 319/286/249 320/285/248 315/307/280 331/308/281
f 317/309/282 318/290/283 319/286/284 331/308/285
f 325/284/247 326/283/246 321/310/286 332/311/287
f 321/312/288 322/287/250 323/249/249 332/252/289
o dudu_1.005
v -0.541403 0.215848 -0.769278
v -0.539817 0.217061 -0.768812
v -0.539226 0.217061 -0.767302
v -0.539888 0.215848 -0.767481
v -0.541493 0.215346 -0.767976
v -0.538996 0.215346 0.815975
v -0.537393 0.215848 0.815476
v -0.536731 0.217061 0.815294
v -0.540133 0.216071 -0.768660
v -0.541957 0.217275 -0.768110
v -0.542356 0.217275 -0.769329
v 0.541957 0.217275 -0.768110
v 0.540995 0.217275 -0.767605
v 0.540995 0.216055 -0.768110
v -0.542356 0.672161 -0.769329
v -0.541957 0.672161 -0.768110
v -0.541957 0.216055 -0.769329
v -0.542356 0.217275 -0.769329
v -0.541957 0.217275 -0.770548
v -0.540995 0.217275 -0.771053
v -0.540995 0.216055 -0.770548
v -0.540995 0.215550 -0.769329
v 0.541957 0.216055 -0.769329
v 0.541957 0.217275 -0.770548
v 0.542356 0.217275 -0.769329
v 0.541780 0.216280 -0.768334
v -0.541780 0.216280 -0.770324
v 0.541780 0.216280 -0.770324
v 0.538126 0.215637 -0.768106
v 0.543020 0.215637 -0.768106
v 0.543020 0.215638 0.813733
v 0.538126 0.215638 0.813733
v 0.538125 0.242679 -0.768478
v 0.538125 0.242680 0.814105
v 0.538125 0.215279 -0.768478
v 0.538125 0.215280 0.814105
v -0.538793 0.242679 -0.768478
v -0.538793 0.242680 0.814105
v -0.538793 0.215279 -0.768478
v -0.538793 0.215280 0.814105
vn 0.4934 -0.8675 -0.0634
vn 0.2989 -0.9543 -0.0005
vn 0.2852 -0.9525 -0.1070
vn 0.4291 -0.8918 -0.1431
vn 0.8777 -0.4792 -0.0019
vn 0.7664 -0.6416 0.0324
vn 0.8230 -0.4921 -0.2839
vn 0.8325 -0.5320 -0.1547
vn 0.4895 -0.8312 -0.2637
vn 0.3363 -0.8980 -0.2836
vn 0.9321 -0.3501 -0.0930
vn 0.8722 -0.3839 -0.3033
vn -0.8939 0.1494 0.4226
vn -0.9372 0.1176 0.3284
vn -0.9372 -0.1176 0.3283
vn -0.9228 -0.1703 0.3456
vn 0.2386 -0.2834 0.9289
vn 0.6298 -0.3445 0.6962
vn 0.3548 -0.1823 0.9170
vn 0.3997 -0.3152 0.8608
vn -0.3766 -0.9140 -0.1510
vn -0.4985 -0.7163 -0.4883
vn -0.3620 -0.8146 -0.4532
vn -0.3998 -0.8606 -0.3155
vn -0.8896 -0.2366 -0.3906
vn -0.8247 -0.4107 -0.3888
vn -0.9609 -0.2464 -0.1266
vn -0.9257 -0.2675 -0.2676
vn -0.2387 -0.2834 -0.9288
vn -0.5367 -0.4738 -0.6982
vn -0.3549 -0.1822 -0.9170
vn -0.3996 -0.3152 -0.8608
vn 0.9609 -0.2464 -0.1266
vn 0.8200 -0.3578 -0.4468
vn 0.8901 -0.2352 -0.3904
vn 0.9257 -0.2675 -0.2676
vn -0.0000 -1.0000 -0.0000
vn 1.0000 -0.0003 -0.0000
vn -0.0000 1.0000 -0.0000
vt 0.375314 0.874985
vt 0.375096 0.749711
vt 0.624904 0.749711
vt 0.624686 0.874985
vt 0.375313 0.749059
vt 0.624686 0.749059
vt 0.375000 0.874974
vt 0.375000 0.750000
vt 0.375313 0.720793
vt 0.250015 0.000941
vt 0.375096 0.000289
vt 0.375096 0.249711
vt 0.250015 0.249059
vt 0.624904 0.000289
vt 0.624686 0.000941
vt 0.596385 0.000941
vt 0.625000 0.000000
vt 0.249974 0.000000
vt 0.249985 0.000941
vt 0.125000 0.014479
vt 0.125000 0.000000
vt 0.875000 0.014479
vt 0.750015 0.000941
vt 0.750026 -0.000000
vt 0.875000 0.000000
vt 0.620000 0.750000
vt 0.625000 0.750000
vt 0.625000 1.000000
vt 0.620000 1.000000
s 1
usemtl initialShadingGroup.006
f 337/313/290 336/314/291 339/315/292 338/316/293
f 336/314/294 335/317/295 340/318/296 339/315/297
f 336/314/291 337/313/290 333/319/298 341/320/299
f 334/321/300 335/317/295 336/314/294 341/320/301
f 343/322/302 342/323/303 348/324/304 347/325/305
f 344/326/306 345/327/307 346/328/308 358/329/309
f 353/314/310 354/313/311 349/319/312 359/320/313
f 349/330/314 350/331/315 351/332/316 359/333/317
f 351/321/318 352/317/319 353/314/320 359/320/321
f 356/334/322 357/335/323 355/336/324 360/337/325
f 361/338/326 362/339/326 363/340/326 364/341/326
f 361/338/327 364/341/327 368/341/327 367/338/327
f 366/341/328 365/338/328 369/338/328 370/341/328
f 367/338/326 368/341/326 372/341/326 371/338/326
o dudu_1.006
v -0.540995 0.672161 -0.767605
v -0.540995 0.673381 -0.768110
v 0.541957 0.673381 -0.769329
v 0.540995 0.673381 -0.768110
v 0.540995 0.672161 -0.767605
v 0.541957 0.672161 -0.768110
v 0.542356 0.672161 -0.769329
v 0.541780 0.673156 -0.768334
v -0.543020 0.661530 0.813733
v -0.538125 0.661530 0.813733
v -0.499578 0.661530 0.813733
v -0.477858 0.661530 0.813733
v -0.456137 0.661530 0.813733
v -0.434416 0.661530 0.813733
v -0.412695 0.661530 0.813733
v -0.390974 0.661530 0.813733
v -0.369254 0.661530 0.813733
v -0.347533 0.661530 0.813733
v -0.325812 0.661530 0.813733
v -0.304091 0.661530 0.813733
v -0.282370 0.661530 0.813733
v -0.260650 0.661530 0.813733
v -0.238929 0.661530 0.813733
v -0.217208 0.661530 0.813733
v -0.195487 0.661530 0.813733
v -0.173766 0.661530 0.813733
v -0.152046 0.661530 0.813733
v -0.130325 0.661530 0.813733
v -0.108604 0.661530 0.813733
v -0.086883 0.661530 0.813733
v -0.065162 0.661530 0.813733
v -0.043442 0.661530 0.813733
v -0.021721 0.661530 0.813733
v 0.000000 0.661530 0.813733
v 0.021721 0.661530 0.813733
v 0.043442 0.661530 0.813733
v 0.065163 0.661530 0.813733
v 0.086883 0.661530 0.813733
v 0.108604 0.661530 0.813733
v 0.130325 0.661530 0.813733
v 0.152046 0.661530 0.813733
v 0.173767 0.661530 0.813733
v 0.195487 0.661530 0.813733
v 0.217208 0.661530 0.813733
v 0.238929 0.661530 0.813733
v 0.260650 0.661530 0.813733
v 0.282370 0.661530 0.813733
v 0.304091 0.661530 0.813733
v 0.325812 0.661530 0.813733
v 0.347533 0.661530 0.813733
v 0.369254 0.661530 0.813733
v 0.390975 0.661530 0.813733
v 0.412695 0.661530 0.813733
v 0.434416 0.661530 0.813733
v 0.456137 0.661530 0.813733
v 0.477858 0.661530 0.813733
v 0.499579 0.661530 0.813733
v 0.538126 0.661530 0.813733
v -0.543020 0.673734 0.813733
v -0.537920 0.673734 0.813733
v -0.499578 0.673734 0.813733
v -0.477858 0.673734 0.813733
v -0.456137 0.673734 0.813733
v -0.434416 0.673734 0.813733
v -0.412695 0.673734 0.813733
v -0.390974 0.673734 0.813733
v -0.369254 0.673734 0.813733
v -0.347533 0.673734 0.813733
v -0.325812 0.673734 0.813733
v -0.304091 0.673734 0.813733
v -0.282370 0.673734 0.813733
v -0.260650 0.673734 0.813733
v -0.238929 0.673734 0.813733
v -0.217208 0.673734 0.813733
v -0.195487 0.673734 0.813733
v -0.173766 0.673734 0.813733
v -0.152046 0.673734 0.813733
v -0.130325 0.673734 0.813733
v -0.108604 0.673734 0.813733
v -0.086883 0.673734 0.813733
v -0.065162 0.673734 0.813733
v -0.043442 0.673734 0.813733
v -0.021721 0.673734 0.813733
v 0.000000 0.673734 0.813733
v 0.021721 0.673734 0.813733
v 0.043442 0.673734 0.813733
v 0.065163 0.673734 0.813733
v 0.086883 0.673734 0.813733
v 0.108604 0.673734 0.813733
v 0.130325 0.673734 0.813733
v 0.152046 0.673734 0.813733
v 0.173767 0.673734 0.813733
v 0.195487 0.673734 0.813733
v 0.217208 0.673734 0.813733
v 0.238929 0.673734 0.813733
v 0.260650 0.673734 0.813733
v 0.282370 0.673734 0.813733
v 0.304091 0.673734 0.813733
v 0.325812 0.673734 0.813733
v 0.347533 0.673734 0.813733
v 0.369254 0.673734 0.813733
v 0.390975 0.673734 0.813733
v 0.412695 0.673734 0.813733
v 0.434416 0.673734 0.813733
v 0.456137 0.673734 0.813733
v 0.477858 0.673734 0.813733
v 0.499579 0.673734 0.813733
v 0.537921 0.673734 0.813733
v 0.543020 0.673734 0.813733
v -0.543020 0.673734 -0.768106
v -0.537920 0.673734 -0.768106
v 0.537921 0.673734 -0.768106
v 0.543020 0.673734 -0.768106
v -0.543020 0.661530 -0.768106
v -0.538125 0.661530 -0.768106
v 0.477858 0.673734 -0.768106
v 0.499579 0.673734 -0.768106
v 0.456137 0.673734 -0.768106
v 0.434416 0.673734 -0.768106
v 0.412695 0.673734 -0.768106
v 0.390975 0.673734 -0.768106
v 0.369254 0.673734 -0.768106
v 0.347533 0.673734 -0.768106
v 0.325812 0.673734 -0.768106
v 0.304091 0.673734 -0.768106
v 0.282370 0.673734 -0.768106
v 0.260650 0.673734 -0.768106
v 0.238929 0.673734 -0.768106
v 0.217208 0.673734 -0.768106
v 0.195487 0.673734 -0.768106
v 0.173767 0.673734 -0.768106
v 0.152046 0.673734 -0.768106
v 0.130325 0.673734 -0.768106
v 0.108604 0.673734 -0.768106
v 0.086883 0.673734 -0.768106
v 0.065163 0.673734 -0.768106
v 0.043442 0.673734 -0.768106
v 0.021721 0.673734 -0.768106
v 0.000000 0.673734 -0.768106
v -0.021721 0.673734 -0.768106
v -0.043442 0.673734 -0.768106
v -0.065162 0.673734 -0.768106
v -0.086883 0.673734 -0.768106
v -0.108604 0.673734 -0.768106
v -0.130325 0.673734 -0.768106
v -0.152046 0.673734 -0.768106
v -0.173766 0.673734 -0.768106
v -0.195487 0.673734 -0.768106
v -0.217208 0.673734 -0.768106
v -0.238929 0.673734 -0.768106
v -0.260650 0.673734 -0.768106
v -0.282370 0.673734 -0.768106
v -0.304091 0.673734 -0.768106
v -0.325812 0.673734 -0.768106
v -0.347533 0.673734 -0.768106
v -0.369254 0.673734 -0.768106
v -0.390974 0.673734 -0.768106
v -0.412695 0.673734 -0.768106
v -0.434416 0.673734 -0.768106
v -0.456137 0.673734 -0.768106
v -0.477858 0.673734 -0.768106
v -0.499578 0.673734 -0.768106
v -0.537920 0.673734 -0.768106
v -0.537920 0.673734 0.813733
v -0.499578 0.673734 0.813733
v -0.477858 0.673734 0.813733
v -0.456137 0.673734 0.813733
v -0.434416 0.673734 0.813733
v -0.412695 0.673734 0.813733
v -0.390974 0.673734 0.813733
v -0.369254 0.673734 0.813733
v -0.347533 0.673734 0.813733
v -0.325812 0.673734 0.813733
v -0.304091 0.673734 0.813733
v -0.282370 0.673734 0.813733
v -0.260650 0.673734 0.813733
v -0.238929 0.673734 0.813733
v -0.217208 0.673734 0.813733
v -0.195487 0.673734 0.813733
v -0.173766 0.673734 0.813733
v -0.152046 0.673734 0.813733
v -0.130325 0.673734 0.813733
v -0.108604 0.673734 0.813733
v -0.086883 0.673734 0.813733
v -0.065162 0.673734 0.813733
v -0.043442 0.673734 0.813733
v -0.021721 0.673734 0.813733
v 0.000000 0.673734 0.813733
v 0.021721 0.673734 0.813733
v 0.043442 0.673734 0.813733
v 0.065163 0.673734 0.813733
v 0.086883 0.673734 0.813733
v 0.108604 0.673734 0.813733
v 0.130325 0.673734 0.813733
v 0.152046 0.673734 0.813733
v 0.173767 0.673734 0.813733
v 0.195487 0.673734 0.813733
v 0.217208 0.673734 0.813733
v 0.238929 0.673734 0.813733
v 0.260650 0.673734 0.813733
v 0.282370 0.673734 0.813733
v 0.304091 0.673734 0.813733
v 0.325812 0.673734 0.813733
v 0.347533 0.673734 0.813733
v 0.369254 0.673734 0.813733
v 0.390975 0.673734 0.813733
v 0.412695 0.673734 0.813733
v 0.434416 0.673734 0.813733
v 0.456137 0.673734 0.813733
v 0.477858 0.673734 0.813733
v 0.499579 0.673734 0.813733
v 0.537921 0.673734 0.813733
v 0.537921 0.673734 -0.768106
v 0.477858 0.661530 0.813733
v 0.499579 0.661530 0.813733
v 0.456137 0.661530 0.813733
v 0.434416 0.661530 0.813733
v 0.412695 0.661530 0.813733
v 0.390975 0.661530 0.813733
v 0.369254 0.661530 0.813733
v 0.347533 0.661530 0.813733
v 0.325812 0.661530 0.813733
v 0.304091 0.661530 0.813733
v 0.282370 0.661530 0.813733
v 0.260650 0.661530 0.813733
v 0.238929 0.661530 0.813733
v 0.217208 0.661530 0.813733
v 0.195487 0.661530 0.813733
v 0.173767 0.661530 0.813733
v 0.152046 0.661530 0.813733
v 0.130325 0.661530 0.813733
v 0.108604 0.661530 0.813733
v 0.086883 0.661530 0.813733
v 0.065163 0.661530 0.813733
v 0.043442 0.661530 0.813733
v 0.021721 0.661530 0.813733
v 0.000000 0.661530 0.813733
v -0.021721 0.661530 0.813733
v -0.043442 0.661530 0.813733
v -0.065162 0.661530 0.813733
v -0.086883 0.661530 0.813733
v -0.108604 0.661530 0.813733
v -0.130325 0.661530 0.813733
v -0.152046 0.661530 0.813733
v -0.173766 0.661530 0.813733
v -0.195487 0.661530 0.813733
v -0.217208 0.661530 0.813733
v -0.238929 0.661530 0.813733
v -0.260650 0.661530 0.813733
v -0.282370 0.661530 0.813733
v -0.304091 0.661530 0.813733
v -0.325812 0.661530 0.813733
v -0.347533 0.661530 0.813733
v -0.369254 0.661530 0.813733
v -0.390974 0.661530 0.813733
v -0.412695 0.661530 0.813733
v -0.434416 0.661530 0.813733
v -0.456137 0.661530 0.813733
v -0.477858 0.661530 0.813733
v -0.499578 0.661530 0.813733
v -0.538125 0.661530 0.813733
v -0.538125 0.661530 -0.768106
v -0.499578 0.661530 -0.768106
v -0.477858 0.661530 -0.768106
v -0.456137 0.661530 -0.768106
v -0.434416 0.661530 -0.768106
v -0.412695 0.661530 -0.768106
v -0.390974 0.661530 -0.768106
v -0.369254 0.661530 -0.768106
v -0.347533 0.661530 -0.768106
v -0.325812 0.661530 -0.768106
v -0.304091 0.661530 -0.768106
v -0.282370 0.661530 -0.768106
v -0.260650 0.661530 -0.768106
v -0.238929 0.661530 -0.768106
v -0.217208 0.661530 -0.768106
v -0.195487 0.661530 -0.768106
v -0.173766 0.661530 -0.768106
v -0.152046 0.661530 -0.768106
v -0.130325 0.661530 -0.768106
v -0.108604 0.661530 -0.768106
v -0.086883 0.661530 -0.768106
v -0.065162 0.661530 -0.768106
v -0.043442 0.661530 -0.768106
v -0.021721 0.661530 -0.768106
v 0.000000 0.661530 -0.768106
v 0.021721 0.661530 -0.768106
v 0.043442 0.661530 -0.768106
v 0.065163 0.661530 -0.768106
v 0.086883 0.661530 -0.768106
v 0.108604 0.661530 -0.768106
v 0.130325 0.661530 -0.768106
v 0.152046 0.661530 -0.768106
v 0.173767 0.661530 -0.768106
v 0.195487 0.661530 -0.768106
v 0.217208 0.661530 -0.768106
v 0.238929 0.661530 -0.768106
v 0.260650 0.661530 -0.768106
v 0.282370 0.661530 -0.768106
v 0.304091 0.661530 -0.768106
v 0.325812 0.661530 -0.768106
v 0.347533 0.661530 -0.768106
v 0.369254 0.661530 -0.768106
v 0.390975 0.661530 -0.768106
v 0.412695 0.661530 -0.768106
v 0.434416 0.661530 -0.768106
v 0.456137 0.661530 -0.768106
v 0.477858 0.661530 -0.768106
v 0.499579 0.661530 -0.768106
v 0.538126 0.661530 -0.768106
v 0.538126 0.661530 0.813733
v 0.226982 0.673734 -0.528194
v 0.211850 0.673734 -0.528194
v 0.196718 0.673734 -0.528194
v 0.181586 0.673734 -0.528194
v 0.166454 0.673734 -0.528194
v 0.151322 0.673734 -0.528194
v 0.136190 0.673734 -0.528194
v 0.121057 0.673734 -0.528194
v 0.105925 0.673734 -0.528194
v 0.090793 0.673734 -0.528194
v 0.075661 0.673734 -0.528194
v 0.060529 0.673734 -0.528194
v 0.045397 0.673734 -0.528194
v 0.030264 0.673734 -0.528194
v 0.015132 0.673734 -0.528194
v 0.000000 0.673734 -0.528194
v -0.015132 0.673734 -0.528194
v -0.030264 0.673734 -0.528194
v -0.045396 0.673734 -0.528194
v -0.060529 0.673734 -0.528194
v -0.075661 0.673734 -0.528194
v -0.090793 0.673734 -0.528194
v -0.105925 0.673734 -0.528194
v -0.121057 0.673734 -0.528194
v -0.136189 0.673734 -0.528194
v -0.151321 0.673734 -0.528194
v -0.166454 0.673734 -0.528194
v -0.181586 0.673734 -0.528194
v -0.196718 0.673734 -0.528194
v -0.211850 0.673734 -0.528194
v -0.226982 0.673734 -0.528194
v -0.242114 0.673734 0.573821
v -0.226982 0.673734 0.573821
v -0.211850 0.673734 0.573821
v -0.196718 0.673734 0.573821
v -0.181586 0.673734 0.573821
v -0.166454 0.673734 0.573821
v -0.151321 0.673734 0.573821
v -0.136189 0.673734 0.573821
v -0.121057 0.673734 0.573821
v -0.105925 0.673734 0.573821
v -0.090793 0.673734 0.573821
v -0.075661 0.673734 0.573821
v -0.060529 0.673734 0.573821
v -0.045396 0.673734 0.573821
v -0.030264 0.673734 0.573821
v -0.015132 0.673734 0.573821
v 0.000000 0.673734 0.573821
v 0.015132 0.673734 0.573821
v 0.030264 0.673734 0.573821
v 0.045397 0.673734 0.573821
v 0.060529 0.673734 0.573821
v 0.075661 0.673734 0.573821
v 0.090793 0.673734 0.573821
v 0.105925 0.673734 0.573821
v 0.121057 0.673734 0.573821
v 0.136190 0.673734 0.573821
v 0.151322 0.673734 0.573821
v 0.166454 0.673734 0.573821
v 0.181586 0.673734 0.573821
v 0.196718 0.673734 0.573821
v 0.211850 0.673734 0.573821
v 0.226982 0.673734 0.573821
v 0.242115 0.673734 0.573821
v 0.332908 0.661530 0.573821
v 0.348040 0.661530 0.573821
v 0.317775 0.661530 0.573821
v 0.302643 0.661530 0.573821
v 0.287511 0.661530 0.573821
v 0.272379 0.661530 0.573821
v 0.257247 0.661530 0.573821
v 0.242115 0.661530 0.573821
v 0.226982 0.661530 0.573821
v 0.211850 0.661530 0.573821
v 0.196718 0.661530 0.573821
v 0.181586 0.661530 0.573821
v 0.166454 0.661530 0.573821
v 0.151322 0.661530 0.573821
v 0.136190 0.661530 0.573821
v 0.121057 0.661530 0.573821
v 0.105925 0.661530 0.573821
v 0.090793 0.661530 0.573821
v 0.075661 0.661530 0.573821
v 0.060529 0.661530 0.573821
v 0.045397 0.661530 0.573821
v 0.030264 0.661530 0.573821
v 0.015132 0.661530 0.573821
v 0.000000 0.661530 0.573821
v -0.015132 0.661530 0.573821
v -0.030264 0.661530 0.573821
v -0.045396 0.661530 0.573821
v -0.060529 0.661530 0.573821
v -0.075661 0.661530 0.573821
v -0.090793 0.661530 0.573821
v -0.105925 0.661530 0.573821
v -0.121057 0.661530 0.573821
v -0.136189 0.661530 0.573821
v -0.151321 0.661530 0.573821
v -0.166454 0.661530 0.573821
v -0.181586 0.661530 0.573821
v -0.196718 0.661530 0.573821
v -0.211850 0.661530 0.573821
v -0.226982 0.661530 0.573821
v -0.242114 0.661530 0.573821
v -0.257247 0.661530 0.573821
v -0.272379 0.661530 0.573821
v -0.287511 0.661530 0.573821
v -0.302643 0.661530 0.573821
v -0.317775 0.661530 0.573821
v -0.332907 0.661530 0.573821
v -0.348040 0.661530 0.573821
v -0.348040 0.661530 -0.528194
v -0.332907 0.661530 -0.528194
v -0.317775 0.661530 -0.528194
v -0.302643 0.661530 -0.528194
v -0.287511 0.661530 -0.528194
v -0.272379 0.661530 -0.528194
v -0.257247 0.661530 -0.528194
v -0.242114 0.661530 -0.528194
v -0.226982 0.661530 -0.528194
v -0.211850 0.661530 -0.528194
v -0.196718 0.661530 -0.528194
v -0.181586 0.661530 -0.528194
v -0.166454 0.661530 -0.528194
v -0.151321 0.661530 -0.528194
v -0.136189 0.661530 -0.528194
v -0.121057 0.661530 -0.528194
v -0.105925 0.661530 -0.528194
v -0.090793 0.661530 -0.528194
v -0.075661 0.661530 -0.528194
v -0.060529 0.661530 -0.528194
v -0.045396 0.661530 -0.528194
v -0.030264 0.661530 -0.528194
v -0.015132 0.661530 -0.528194
v 0.000000 0.661530 -0.528194
v 0.015132 0.661530 -0.528194
v 0.030264 0.661530 -0.528194
v 0.045397 0.661530 -0.528194
v 0.060529 0.661530 -0.528194
v 0.075661 0.661530 -0.528194
v 0.090793 0.661530 -0.528194
v 0.105925 0.661530 -0.528194
v 0.121057 0.661530 -0.528194
v 0.136190 0.661530 -0.528194
v 0.151322 0.661530 -0.528194
v 0.166454 0.661530 -0.528194
v 0.181586 0.661530 -0.528194
v 0.196718 0.661530 -0.528194
v 0.211850 0.661530 -0.528194
v 0.226982 0.661530 -0.528194
v 0.242115 0.661530 -0.528194
v 0.257247 0.661530 -0.528194
v 0.272379 0.661530 -0.528194
v 0.287511 0.661530 -0.528194
v 0.302643 0.661530 -0.528194
v 0.317775 0.661530 -0.528194
v 0.332908 0.661530 -0.528194
v 0.348040 0.661530 -0.528194
v 0.368215 0.673734 0.481554
v 0.349247 0.673734 0.518778
v 0.319702 0.673734 0.548319
v 0.282474 0.673734 0.567285
v 0.427853 0.673734 0.651897
v 0.374751 0.673734 0.440291
v 0.282617 0.661530 0.567285
v 0.319845 0.661530 0.548319
v 0.349389 0.661530 0.518778
v 0.368358 0.661530 0.481554
v 0.374894 0.661530 0.440291
v 0.428008 0.661530 0.651885
v 0.241350 0.661530 0.573821
v -0.282474 0.673734 0.567285
v -0.319702 0.673734 0.548319
v -0.349246 0.673734 0.518778
v -0.368215 0.673734 0.481554
v -0.374751 0.673734 0.440291
v -0.427853 0.673734 0.651897
v -0.368358 0.661530 0.481554
v -0.349389 0.661530 0.518778
v -0.319845 0.661530 0.548319
v -0.282617 0.661530 0.567285
v -0.241350 0.661530 0.573821
v -0.428007 0.661530 0.651885
v -0.374894 0.661530 0.440291
v 0.374751 0.673734 -0.394664
v 0.427853 0.673734 -0.606270
v 0.241207 0.673734 -0.528194
v 0.282474 0.673734 -0.521658
v 0.319702 0.673734 -0.502692
v 0.349247 0.673734 -0.473151
v 0.368215 0.673734 -0.435927
v 0.368358 0.661530 -0.435927
v 0.349389 0.661530 -0.473151
v 0.319845 0.661530 -0.502692
v 0.282617 0.661530 -0.521658
v 0.241350 0.661530 -0.528194
v 0.428008 0.661530 -0.606258
v 0.374894 0.661530 -0.394664
v -0.374751 0.673734 -0.394664
v -0.368215 0.673734 -0.435927
v -0.349246 0.673734 -0.473151
v -0.319702 0.673734 -0.502692
v -0.282474 0.673734 -0.521658
v -0.241207 0.673734 -0.528194
v -0.427853 0.673734 -0.606270
v -0.282617 0.661530 -0.521658
v -0.319845 0.661530 -0.502692
v -0.349389 0.661530 -0.473151
v -0.368358 0.661530 -0.435927
v -0.374894 0.661530 -0.394664
v -0.428007 0.661530 -0.606258
v -0.241350 0.661530 -0.528194
v -0.541375 0.661530 -0.236432
v -0.539771 0.661530 -0.236432
v -0.539771 0.661530 0.282059
v -0.541375 0.661530 0.282059
v -0.540995 0.673381 0.813297
v -0.540995 0.672161 0.812792
v 0.540995 0.672161 0.812792
v 0.540995 0.673381 0.813297
v 0.540995 0.673886 0.814516
v 0.541957 0.673381 0.814516
v 0.541780 0.673156 0.813521
vn 0.1879 0.4003 0.8969
vn 0.2333 0.4936 0.8378
vn -0.2736 0.4109 0.8697
vn -0.1879 0.4003 0.8969
vn 0.9608 0.2465 0.1266
vn 0.8428 0.4367 0.3145
vn 0.8870 0.2474 0.3900
vn 0.9257 0.2674 0.2676
vn -0.0000 -0.0000 1.0000
vn -0.0000 1.0000 -0.0000
vn -0.0000 -1.0000 -0.0000
vn -0.0000 -0.0000 -1.0000
vn -0.9999 -0.0116 -0.0075
vn -0.9999 -0.0117 -0.0075
vn -0.9999 -0.0116 0.0075
vn -0.9999 -0.0117 0.0075
vn 0.9999 -0.0116 0.0075
vn 0.9999 -0.0117 0.0075
vn 0.9999 -0.0116 -0.0075
vn 0.9999 -0.0117 -0.0075
vn -0.0000 0.6231 0.7821
vn -0.1581 0.0040 -0.9874
vn -0.3106 -0.0007 -0.9505
vn -0.3109 -0.0007 -0.9505
vn -0.5878 -0.0069 -0.8090
vn -0.8088 -0.0095 -0.5881
vn -0.8090 -0.0095 -0.5878
vn -0.9509 -0.0111 -0.3094
vn -0.9510 -0.0111 -0.3090
vn 0.9509 -0.0111 -0.3094
vn 0.9510 -0.0111 -0.3090
vn 0.8088 -0.0095 -0.5880
vn 0.8091 -0.0095 -0.5876
vn 0.5875 -0.0069 -0.8092
vn 0.5877 -0.0069 -0.8091
vn 0.3106 -0.0007 -0.9505
vn 0.3112 -0.0007 -0.9503
vn 0.1581 0.0040 -0.9874
vn -0.9509 -0.0111 0.3094
vn -0.9510 -0.0111 0.3090
vn -0.8088 -0.0095 0.5880
vn -0.8090 -0.0095 0.5877
vn -0.5878 -0.0069 0.8090
vn -0.3089 -0.0036 0.9511
vn -0.1564 -0.0018 0.9877
vn 0.1564 -0.0018 0.9877
vn 0.3089 -0.0036 0.9511
vn 0.3090 -0.0036 0.9510
vn 0.5876 -0.0069 0.8091
vn 0.5878 -0.0069 0.8090
vn 0.8088 -0.0095 0.5880
vn 0.8091 -0.0095 0.5876
vn 0.9509 -0.0111 0.3094
vn 0.9510 -0.0111 0.3090
vn 0.2736 0.4108 -0.8697
vn 0.1880 0.4003 -0.8969
vn -0.1879 0.4003 -0.8969
vn -0.0583 0.5903 -0.8051
vn 0.3766 0.9140 -0.1510
vn 0.4983 0.7173 -0.4870
vn 0.3703 0.8109 -0.4531
vn 0.3998 0.8606 -0.3156
vn -0.0000 0.6232 0.7821
vt 0.375096 0.249711
vt 0.375314 0.249059
vt 0.624687 0.249059
vt 0.624904 0.249711
vt 0.749985 0.249059
vt 0.749974 0.250000
vt 0.625000 0.250000
vt 0.510000 0.250000
vt 0.505000 0.250000
vt 0.500000 0.250000
vt 0.495000 0.250000
vt 0.490000 0.250000
vt 0.485000 0.250000
vt 0.480000 0.250000
vt 0.475000 0.250000
vt 0.470000 0.250000
vt 0.465000 0.250000
vt 0.460000 0.250000
vt 0.455000 0.250000
vt 0.450000 0.250000
vt 0.445000 0.250000
vt 0.440000 0.250000
vt 0.435000 0.250000
vt 0.430000 0.250000
vt 0.425000 0.250000
vt 0.420000 0.250000
vt 0.415000 0.250000
vt 0.410000 0.250000
vt 0.405000 0.250000
vt 0.400000 0.250000
vt 0.395000 0.250000
vt 0.390000 0.250000
vt 0.385000 0.250000
vt 0.380000 0.250000
vt 0.380000 0.000000
vt 0.385000 0.000000
vt 0.390000 0.000000
vt 0.395000 0.000000
vt 0.400000 0.000000
vt 0.405000 0.000000
vt 0.410000 0.000000
vt 0.415000 0.000000
vt 0.420000 0.000000
vt 0.425000 0.000000
vt 0.430000 0.000000
vt 0.435000 0.000000
vt 0.440000 0.000000
vt 0.445000 0.000000
vt 0.450000 0.000000
vt 0.455000 0.000000
vt 0.460000 0.000000
vt 0.465000 0.000000
vt 0.470000 0.000000
vt 0.475000 0.000000
vt 0.480000 0.000000
vt 0.485000 0.000000
vt 0.490000 0.000000
vt 0.495000 0.000000
vt 0.500000 0.000000
vt 0.505000 0.000000
vt 0.510000 0.000000
vt 0.515000 0.000000
vt 0.520000 0.000000
vt 0.525000 0.000000
vt 0.530000 0.000000
vt 0.535000 0.000000
vt 0.540000 0.000000
vt 0.545000 0.000000
vt 0.550000 0.000000
vt 0.555000 0.000000
vt 0.560000 0.000000
vt 0.565000 0.000000
vt 0.570000 0.000000
vt 0.575000 0.000000
vt 0.580000 0.000000
vt 0.585000 0.000000
vt 0.590000 0.000000
vt 0.595000 0.000000
vt 0.600000 0.000000
vt 0.605000 0.000000
vt 0.610000 0.000000
vt 0.615000 0.000000
vt 0.620000 0.000000
vt 0.620000 0.250000
vt 0.615000 0.250000
vt 0.610000 0.250000
vt 0.605000 0.250000
vt 0.600000 0.250000
vt 0.595000 0.250000
vt 0.590000 0.250000
vt 0.585000 0.250000
vt 0.580000 0.250000
vt 0.575000 0.250000
vt 0.570000 0.250000
vt 0.565000 0.250000
vt 0.560000 0.250000
vt 0.555000 0.250000
vt 0.550000 0.250000
vt 0.545000 0.250000
vt 0.540000 0.250000
vt 0.535000 0.250000
vt 0.530000 0.250000
vt 0.525000 0.250000
vt 0.520000 0.250000
vt 0.515000 0.250000
vt 0.375000 0.250000
vt 0.380000 0.500000
vt 0.375000 0.500000
vt 0.625000 0.500000
vt 0.620000 0.500000
vt 0.380000 0.280293
vt 0.380000 0.469709
vt 0.380000 0.500001
vt 0.559558 0.247181
vt 0.565030 0.249726
vt 0.565325 0.167402
vt 0.572385 0.241090
vt 0.559688 0.166054
vt 0.555000 0.250003
vt 0.550000 0.250003
vt 0.545000 0.250003
vt 0.540000 0.250003
vt 0.535000 0.250003
vt 0.530000 0.250003
vt 0.525000 0.250003
vt 0.520000 0.250003
vt 0.515000 0.250003
vt 0.510000 0.250003
vt 0.505000 0.250003
vt 0.495000 0.250003
vt 0.490000 0.250003
vt 0.485000 0.250003
vt 0.480000 0.250003
vt 0.475000 0.250003
vt 0.470000 0.250003
vt 0.465000 0.250003
vt 0.460000 0.250003
vt 0.455000 0.250003
vt 0.450000 0.250003
vt 0.445000 0.250003
vt 0.440000 0.250003
vt 0.435000 0.250003
vt 0.430000 0.250003
vt 0.425000 0.250003
vt 0.439453 0.250005
vt 0.436502 0.253604
vt 0.411647 0.716072
vt 0.538290 0.492037
vt 0.390000 0.500000
vt 0.385000 0.500000
vt 0.420301 0.500000
vt 0.380000 1.000000
vt 0.380000 0.750000
vt 0.380000 0.780292
vt 0.380000 0.969708
vt 0.596773 0.645875
vt 0.600000 0.750000
vt 0.595000 0.750000
vt 0.590000 0.750000
vt 0.585000 0.750000
vt 0.580000 0.750000
vt 0.575000 0.750000
vt 0.570000 0.750000
vt 0.565000 0.750000
vt 0.560000 0.750000
vt 0.555000 0.750000
vt 0.550000 0.750000
vt 0.545000 0.750000
vt 0.540000 0.750000
vt 0.535000 0.750000
vt 0.530000 0.750000
vt 0.525000 0.750000
vt 0.520000 0.750000
vt 0.515000 0.750000
vt 0.510000 0.750000
vt 0.505000 0.750000
vt 0.500000 0.750000
vt 0.495000 0.750000
vt 0.490000 0.750000
vt 0.485000 0.750000
vt 0.480000 0.750000
vt 0.475000 0.750000
vt 0.470000 0.750000
vt 0.465000 0.750000
vt 0.460000 0.750000
vt 0.455000 0.750000
vt 0.450000 0.750000
vt 0.445000 0.750000
vt 0.440000 0.750000
vt 0.435000 0.750000
vt 0.430000 0.750000
vt 0.425000 0.750000
vt 0.420000 0.750000
vt 0.415000 0.750000
vt 0.410000 0.750000
vt 0.405000 0.750000
vt 0.400000 0.750000
vt 0.395000 0.750000
vt 0.390000 0.750000
vt 0.385000 0.750000
vt 0.420253 0.750000
vt 0.605000 0.750000
vt 0.610000 0.750000
vt 0.615000 0.750000
vt 0.620000 0.750000
vt 0.606651 0.547872
vt 0.620000 1.000000
vt 0.617648 0.996042
vt 0.620000 0.969707
vt 0.620000 0.780292
vt 0.445000 1.000000
vt 0.450000 1.000000
vt 0.455000 1.000000
vt 0.460000 1.000000
vt 0.465000 1.000000
vt 0.470000 1.000000
vt 0.475000 1.000000
vt 0.480000 1.000000
vt 0.485000 1.000000
vt 0.490000 1.000000
vt 0.495000 1.000000
vt 0.500000 1.000000
vt 0.505000 1.000000
vt 0.510000 1.000000
vt 0.515000 1.000000
vt 0.520000 1.000000
vt 0.525000 1.000000
vt 0.530000 1.000000
vt 0.535000 1.000000
vt 0.540000 1.000000
vt 0.545000 1.000000
vt 0.550000 1.000000
vt 0.555000 1.000000
vt 0.560000 1.000000
vt 0.565000 1.000000
vt 0.570000 1.000000
vt 0.575000 1.000000
vt 0.580000 1.000000
vt 0.585000 1.000000
vt 0.590000 1.000000
vt 0.595000 1.000000
vt 0.600000 1.000000
vt 0.605000 1.000000
vt 0.610000 1.000000
vt 0.615000 1.000000
vt 0.579745 1.000000
vt 0.440000 1.000000
vt 0.435000 1.000000
vt 0.430000 1.000000
vt 0.425000 1.000000
vt 0.420000 1.000000
vt 0.415000 1.000000
vt 0.410000 1.000000
vt 0.405000 1.000000
vt 0.400000 1.000000
vt 0.395000 1.000000
vt 0.390000 1.000000
vt 0.385000 1.000000
vt 0.404464 0.365302
vt 0.403041 0.432143
vt 0.599166 0.250011
vt 0.550632 0.503924
vt 0.553559 0.504550
vt 0.577897 0.541266
vt 0.615000 0.500000
vt 0.610000 0.500000
vt 0.605000 0.500000
vt 0.600000 0.500000
vt 0.595000 0.500000
vt 0.590000 0.500000
vt 0.585000 0.500000
vt 0.580000 0.500000
vt 0.575000 0.500000
vt 0.570000 0.500000
vt 0.565000 0.500000
vt 0.560000 0.500000
vt 0.555000 0.500000
vt 0.550000 0.500000
vt 0.545000 0.500000
vt 0.540000 0.500000
vt 0.535000 0.500000
vt 0.530000 0.500000
vt 0.525000 0.500000
vt 0.520000 0.500000
vt 0.515000 0.500000
vt 0.510000 0.500000
vt 0.505000 0.500000
vt 0.500000 0.500000
vt 0.495000 0.500000
vt 0.490000 0.500000
vt 0.485000 0.500000
vt 0.480000 0.500000
vt 0.475000 0.500000
vt 0.470000 0.500000
vt 0.465000 0.500000
vt 0.460000 0.500000
vt 0.455000 0.500000
vt 0.450000 0.500000
vt 0.445000 0.500000
vt 0.440000 0.500000
vt 0.435000 0.500000
vt 0.430000 0.500000
vt 0.425000 0.500000
vt 0.420000 0.500000
vt 0.415000 0.500000
vt 0.410000 0.500000
vt 0.405000 0.500000
vt 0.400000 0.500000
vt 0.395000 0.500000
vt 0.620000 0.280295
vt 0.441272 0.498109
vt 0.536648 0.498544
vt 0.433614 0.484166
vt 0.581430 0.544223
vt 0.620000 0.469708
vt 0.421125 0.498755
vt 0.590020 0.250100
vt 0.589524 0.257878
vt 0.589557 0.992126
vt 0.598872 0.265360
vt 0.598896 0.984645
vt 0.592017 0.320105
vt 0.607208 0.978468
vt 0.614247 0.276354
vt 0.614253 0.973650
vt 0.385752 0.276353
vt 0.385746 0.973650
vt 0.392806 0.271535
vt 0.392791 0.978469
vt 0.401128 0.265358
vt 0.399244 0.945589
vt 0.410477 0.257875
vt 0.410441 0.992126
vt 0.619991 0.480983
vt 0.614276 0.773684
vt 0.619989 0.493342
vt 0.607250 0.767047
vt 0.607130 0.496215
vt 0.598937 0.760500
vt 0.593334 0.498523
vt 0.589582 0.754579
vt 0.410477 0.495439
vt 0.410441 0.754561
vt 0.401128 0.489533
vt 0.401103 0.760468
vt 0.392806 0.482987
vt 0.392791 0.767014
vt 0.385753 0.476336
vt 0.385746 0.773665
vt 0.375000 0.750000
vt 0.375314 0.500941
vt 0.375096 0.500289
vt 0.624904 0.500289
vt 0.624686 0.500941
vt 0.624686 0.375015
vt 0.625000 0.375026
vt 0.553334 0.502453
s 1
usemtl initialShadingGroup.006
f 374/342/329 373/343/330 377/344/331 376/345/332
f 378/345/333 379/346/334 375/347/335 380/348/336
f 458/349/337 457/350/337 456/351/337 455/352/337 454/353/337 453/354/337 452/355/337 451/356/337 450/357/337 449/358/337 448/359/337 447/360/337 446/361/337 445/362/337 444/363/337 443/364/337 442/365/337 441/366/337 440/367/337 439/368/337 438/369/337 437/370/337 436/371/337 435/372/337 434/373/337 433/374/337 432/375/337 382/376/337 383/377/337 384/378/337 385/379/337 386/380/337 387/381/337 388/382/337 389/383/337 390/384/337 391/385/337 392/386/337 393/387/337 394/388/337 395/389/337 396/390/337 397/391/337 398/392/337 399/393/337 400/394/337 401/395/337 402/396/337 403/397/337 404/398/337 405/399/337 406/400/337 407/401/337 408/402/337 409/403/337 410/404/337 411/405/337 412/406/337 413/407/337 414/408/337 415/409/337 416/410/337 417/411/337 418/412/337 419/413/337 420/414/337 421/415/337 422/416/337 423/417/337 424/418/337 425/419/337 426/420/337 427/421/337 428/422/337 429/423/337 430/424/337 480/425/337 479/426/337 478/427/337 477/428/337 476/429/337 475/430/337 474/431/337 473/432/337 472/433/337 471/434/337 470/435/337 469/436/337 468/437/337 467/438/337 466/439/337 465/440/337 464/441/337 463/442/337 462/443/337 461/444/337 460/445/337 459/446/337
f 431/447/338 432/375/338 483/448/338 482/449/338
f 480/425/338 481/348/338 485/450/338 484/451/338
f 535/448/338 536/375/338 860/375/338 859/452/338 882/453/338 888/454/338
f 747/455/338 746/456/338 745/457/338 744/458/338 743/457/338 742/459/338 741/460/338 740/461/338 739/462/338 738/463/338 737/464/338 736/465/338 735/466/338 734/467/338 733/468/338 732/469/338 731/470/338 730/351/338 729/471/338 728/472/338 727/473/338 726/474/338 725/475/338 724/476/338 723/477/338 722/478/338 721/479/338 720/480/338 719/481/338 718/482/338 717/483/338 716/484/338 715/485/338 860/486/338 536/487/338 537/488/338 538/375/338 539/375/338 540/374/338 541/373/338 542/372/338 543/371/338 544/370/338 545/369/338 546/368/338 547/367/338 548/366/338 549/365/338 550/364/338 551/363/338 552/362/338 553/361/338 554/360/338 555/359/338 556/358/338 557/357/338 558/356/338 559/355/338 560/354/338 561/353/338 562/352/338 563/351/338 564/350/338 565/349/338 566/446/338 567/445/338 568/444/338 569/443/338 570/442/338 571/441/338 572/440/338 573/439/338 574/438/338 575/437/338 576/436/338 577/435/338 578/434/338 579/433/338 580/432/338 581/431/338 582/430/338 583/429/338 584/428/338 846/427/338
f 584/426/338 585/425/338 869/489/338 868/425/338 847/451/338 846/451/338
f 633/490/339 634/491/339 894/448/339 893/454/339 867/492/339 866/493/339
f 841/494/339 840/494/339 839/495/339 838/496/339 837/493/339 836/497/339 835/497/339 834/497/339 833/498/339 832/499/339 831/500/339 830/501/339 829/502/339 828/503/339 827/504/339 826/505/339 825/506/339 824/507/339 823/508/339 822/509/339 821/510/339 820/511/339 819/512/339 818/513/339 817/514/339 816/515/339 815/516/339 814/517/339 813/518/339 812/519/339 811/520/339 810/521/339 809/522/339 808/523/339 807/524/339 806/525/339 805/526/339 804/527/339 803/528/339 802/529/339 801/530/339 800/531/339 799/532/339 798/533/339 797/534/339 796/535/339 795/536/339 895/537/339 894/538/339 634/539/339 635/540/339 636/541/339 637/542/339 638/494/339 639/494/339 640/541/339 641/540/339 642/539/339 643/538/339 644/537/339 645/536/339 646/535/339 647/534/339 648/533/339 649/532/339 650/531/339 651/530/339 652/529/339 653/528/339 654/527/339 655/526/339 656/525/339 657/524/339 658/523/339 659/522/339 660/521/339 661/520/339 662/519/339 663/518/339 664/517/339 665/516/339 666/515/339 667/514/339 668/513/339 669/512/339 670/511/339 671/510/339 672/509/339 673/508/339 674/507/339 675/506/339 676/505/339 677/504/339 678/503/339 679/502/339 680/501/339 681/500/339 682/499/339 880/498/339 879/543/339
f 682/544/339 683/545/339 853/546/339 852/546/339 881/547/339 880/546/339
f 782/548/339 781/549/339 780/550/339 779/551/339 778/546/339 777/552/339 776/553/339 775/554/339 774/555/339 773/556/339 772/557/339 771/558/339 770/559/339 769/560/339 768/561/339 767/562/339 766/563/339 765/564/339 764/565/339 763/566/339 762/567/339 761/568/339 760/569/339 759/570/339 758/571/339 757/572/339 756/573/339 755/574/339 754/575/339 753/576/339 752/577/339 751/578/339 750/579/339 748/580/339 749/581/339 854/582/339 853/583/339 683/584/339 587/585/339 586/586/339 588/587/339 589/549/339 590/548/339 591/586/339 592/585/339 593/584/339 594/583/339 595/582/339 596/581/339 597/580/339 598/579/339 599/578/339 600/577/339 601/576/339 602/575/339 603/574/339 604/573/339 605/572/339 606/571/339 607/570/339 608/569/339 609/568/339 610/567/339 611/566/339 612/565/339 613/564/339 614/563/339 615/562/339 616/561/339 617/560/339 618/559/339 619/558/339 620/557/339 621/556/339 622/555/339 623/554/339 624/553/339 625/552/339 626/588/339 627/589/339 628/590/339 629/591/339 630/592/339 631/593/339 632/594/339 633/595/339 866/596/339 865/597/339 794/598/339 793/599/339 792/493/339 791/493/339 790/488/339 789/600/339 788/601/339 787/597/339 786/596/339 785/595/339 784/594/339 783/593/339
f 772/592/340 773/591/340 774/590/340 775/589/340 776/588/340 777/562/340 778/561/340 779/560/340 780/559/340 781/558/340 782/557/340 783/556/340 784/555/340 785/554/340 786/553/340 787/552/340 788/588/340 789/589/340 790/590/340 791/591/340 792/592/340 793/593/340 794/594/340 865/595/340 715/596/340 716/597/340 717/601/340 718/600/340 719/487/340 720/600/340 721/487/340 722/486/340 723/485/340 724/484/340 725/483/340 726/482/340 727/481/340 728/480/340 729/479/340 730/478/340 731/477/340 732/476/340 733/475/340 734/474/340 735/473/340 736/472/340 737/471/340 738/351/340 739/470/340 740/469/340 741/468/340 742/467/340 743/466/340 744/465/340 745/464/340 746/463/340 747/462/340 854/461/340 749/460/340 748/459/340 750/457/340 751/456/340 752/458/340 753/456/340 754/455/340 755/602/340 756/587/340 757/586/340 758/585/340 759/584/340 760/583/340 761/582/340 762/581/340 763/580/340 764/579/340 765/578/340 766/577/340 767/576/340 768/575/340 769/574/340 770/573/340 771/572/340
f 852/571/341 847/570/342 868/569/343 881/568/344
f 893/567/345 882/566/346 859/565/347 867/564/348
f 870/603/338 869/604/338 585/605/338 489/497/338 488/497/338 490/497/338 491/451/338 492/451/338 493/606/338 494/607/338 495/608/338 496/609/338 497/610/338 498/611/338 499/612/338 500/613/338 501/614/338 502/615/338 503/616/338 504/617/338 505/618/338 506/619/338 507/620/338 508/621/338 509/622/338 510/623/338 511/624/338 512/625/338 513/626/338 514/627/338 515/628/338 516/629/338 517/630/338 518/631/338 519/632/338 520/633/338 521/634/338 522/635/338 523/636/338 524/637/338 525/638/338 526/639/338 527/640/338 528/641/338 529/642/338 530/643/338 531/644/338 532/645/338 533/646/338 534/647/338 535/648/338 888/649/338 887/650/338 714/651/349 713/489/338 712/489/338 711/652/338 710/653/338 709/653/338 708/654/338 707/653/338 706/655/338 705/655/338 704/638/338 703/637/338 702/636/338 701/635/338 700/634/338 699/633/338 698/632/338 697/631/338 696/630/338 695/629/338 694/628/338 693/627/338 692/626/338 691/625/338 690/624/338 689/623/338 688/622/338 687/621/338 686/620/338 685/619/338 684/656/338
f 747/638/350 845/655/351 848/653/352 854/652/350
f 845/489/351 844/489/353 849/489/353 848/489/352
f 844/657/353 843/492/354 850/542/355 849/658/353
f 843/659/354 842/660/356 851/587/357 850/659/355
f 842/661/356 847/662/342 852/660/341 851/661/357
f 859/663/347 858/664/358 861/662/359 867/663/348
f 858/665/358 857/666/360 862/664/361 861/665/359
f 857/651/360 856/550/362 863/666/363 862/452/361
f 856/667/362 855/668/364 864/496/365 863/667/363
f 855/669/364 715/670/366 865/668/366 864/669/365
f 846/671/338 847/672/338 842/670/338
f 846/671/338 842/673/338 843/674/338
f 846/672/338 843/673/338 844/600/338
f 846/488/338 844/674/338 845/489/338
f 846/651/338 845/665/338 747/489/338
f 853/665/339 854/663/339 848/489/339
f 853/663/339 848/661/339 849/489/339
f 853/661/339 849/659/339 850/489/339
f 853/659/339 850/658/339 851/549/339
f 853/587/339 851/660/339 852/549/339
f 860/660/338 715/662/338 855/549/338
f 860/662/338 855/664/338 856/549/338
f 860/664/338 856/666/338 857/549/338
f 860/666/338 857/550/338 858/375/338
f 860/600/338 858/673/338 859/375/338
f 866/673/339 867/671/339 861/375/339
f 866/671/339 861/669/339 862/375/339
f 866/669/339 862/667/339 863/375/339
f 866/667/339 863/452/339 864/493/339
f 866/496/339 864/668/339 865/493/339
f 868/668/343 874/670/367 875/493/368 881/670/344
f 874/672/367 873/493/369 876/672/370 875/674/368
f 873/493/369 872/674/371 877/488/371 876/656/370
f 872/675/371 871/676/372 878/551/372 877/675/371
f 871/677/372 870/678/373 879/676/373 878/677/372
f 887/679/374 886/680/375 889/678/376 895/679/374
f 886/681/375 885/682/377 890/680/378 889/681/376
f 885/497/377 884/547/379 891/682/380 890/492/378
f 884/683/379 883/684/381 892/542/382 891/683/380
f 883/685/381 882/686/346 893/684/345 892/685/382
f 869/687/338 870/688/338 871/686/338
f 869/687/338 871/689/338 872/690/338
f 869/688/338 872/689/338 873/453/338
f 869/495/338 873/690/338 874/451/338
f 869/497/338 874/681/338 868/451/338
f 880/681/339 881/679/339 875/451/339
f 880/679/339 875/677/339 876/451/339
f 880/677/339 876/675/339 877/451/339
f 880/675/339 877/656/339 878/546/339
f 880/551/339 878/676/339 879/546/339
f 888/676/338 882/678/338 883/546/338
f 888/678/338 883/680/338 884/546/338
f 888/680/338 884/682/338 885/546/338
f 888/682/338 885/547/338 886/454/338
f 888/453/338 886/689/338 887/454/338
f 894/689/339 895/687/339 889/454/339
f 894/687/339 889/685/339 890/454/339
f 894/685/339 890/683/339 891/454/339
f 894/683/339 891/492/339 892/494/339
f 894/542/339 892/684/339 893/494/339
f 486/684/339 487/686/339 897/494/339 896/686/339
f 382/494/339 381/690/339 899/495/339 898/691/339
f 901/692/383 900/693/384 903/694/385 902/695/386
f 903/694/387 904/696/388 905/697/389 906/450/390
f 887/636/337 895/637/337 803/496/337 804/541/337 805/540/337 806/539/337 807/538/337 808/537/337 809/536/337 810/535/337 811/534/337 812/533/337 813/532/337 814/531/337 815/530/337 816/529/337 817/528/337 818/527/337 819/526/337 820/525/337 821/524/337 822/523/337 823/522/337 824/521/337 825/520/337 826/519/337 827/518/337 828/517/337 829/516/337 830/515/337 831/514/337 832/513/337 833/512/337 879/503/337 870/502/337 684/501/337 685/500/337 686/499/337 687/498/337 688/497/337 689/605/337 690/605/337 691/604/337 692/604/337 693/604/337 694/698/337 695/698/337 696/604/337 697/603/337 698/618/337 699/619/337 700/620/337 701/621/337 702/622/337 703/623/337 704/624/337 705/625/337 706/626/337 707/627/337 708/628/337 709/629/337 710/630/337 711/631/337 712/632/337 713/633/337 714/634/391
