# Blender 4.4.3
# www.blender.org
mtllib dudu1obj.mtl
o dudu_1.001
v 175.777481 70.075058 -249.522858
v 175.906708 70.470642 -249.522858
v 175.777481 70.470642 -249.127533
v 175.777481 218.007538 -249.127563
v 175.906708 218.007538 -249.522888
v 175.777481 218.007538 -249.918335
v 175.906708 218.007538 -249.523041
v 175.777481 70.470642 -249.918304
v 175.906708 70.470642 -249.523010
v 175.720139 70.147766 -249.200195
v 174.534744 214.559464 263.924896
v 176.122299 214.559464 263.924896
v 174.468277 218.517715 263.924896
v 176.122299 218.517715 263.924896
v 174.468277 218.517685 -249.126251
v 176.122299 218.517685 -249.126251
v 174.534744 214.559433 -249.126251
v 176.122299 214.559433 -249.126251
v 174.534744 69.939522 -249.126221
v 176.122299 69.939522 -249.126221
v 176.122299 69.939568 263.924927
v 174.534744 69.939568 263.924927
v 174.534729 78.710205 -249.246826
v 174.534729 78.710251 264.045532
v 175.777481 218.007568 263.783386
v 175.465515 218.007568 263.619629
v 175.465515 70.470688 263.619659
v 175.777481 70.470688 263.783417
vn 0.9505 -0.0001 0.3107
vn 0.8441 -0.1866 0.5026
vn 0.8627 -0.0353 0.5044
vn 0.9372 -0.1176 0.3283
vn 0.9372 -0.1176 -0.3284
vn 0.8741 -0.0942 -0.4765
vn 0.8939 0.1494 -0.4226
vn 0.9372 0.1176 -0.3284
vn 0.8896 -0.2366 0.3906
vn 0.9257 -0.2675 0.2676
vn -0.0000 -0.0000 1.0000
vn -0.0000 -0.0000 -1.0000
vn 1.0000 -0.0000 -0.0000
vn -1.0000 -0.0000 -0.0000
vn 0.5013 -0.2109 -0.8392
vn 0.4875 -0.1419 -0.8615
vn 0.4875 0.1420 -0.8615
vn 0.6441 0.1225 -0.7551
vt 0.624904 0.000289
vt 0.749985 0.000941
vt 0.749985 0.249059
vt 0.624904 0.249711
vt 0.875000 0.235521
vt 0.750015 0.249059
vt 0.750015 0.000941
vt 0.875000 0.014479
vt 0.749974 -0.000000
vt 0.625000 0.000000
vt 0.620000 0.000000
vt 0.625000 0.250000
vt 0.620000 0.250000
vt 0.620000 0.500000
vt 0.625000 0.500000
vt 0.625000 0.750000
vt 0.620000 0.750000
vt 0.875000 0.000000
vt 0.875000 0.250000
vt 0.625000 1.000000
vt 0.620000 1.000000
vt 0.624686 0.500941
vt 0.624686 0.529207
vt 0.624686 0.720793
vt 0.624686 0.749059
s 1
usemtl initialShadingGroup
f 3/1/1 2/2/2 5/3/3 4/4/4
f 6/5/5 7/6/6 9/7/7 8/8/8
f 1/9/9 2/2/2 3/1/1 10/10/10
f 11/11/11 12/10/11 14/12/11 13/13/11
f 15/14/12 16/15/12 18/16/12 17/17/12
f 12/10/13 18/18/13 16/19/13 14/12/13
f 17/17/12 18/16/12 20/16/12 19/17/12
f 18/16/13 12/20/13 21/20/13 20/16/13
f 12/20/11 11/21/11 22/21/11 21/20/11
f 11/21/14 17/17/14 23/17/14 24/21/14
f 26/22/15 25/23/16 28/24/17 27/25/18
o dudu_1.002
v -175.598038 70.007843 -249.506409
v -175.627045 69.844917 -249.084015
v -176.136551 70.007843 -249.220428
v -176.340790 70.401154 -249.259308
v -176.102570 70.401154 -249.641937
v -175.569946 70.401154 -249.664886
v -174.786804 70.007889 265.074036
v -174.758255 70.401199 265.232605
v -175.290924 70.401199 265.210968
v -175.530365 70.401199 264.829498
v -175.326218 70.007889 264.790070
v -174.817154 69.844963 264.652008
v -175.892227 213.801971 -248.163986
v -175.864151 213.408646 -248.322571
v -176.396774 213.408646 -248.299408
v -176.634964 213.408646 -247.916748
v -176.430740 213.801971 -247.878235
v -175.921234 213.964874 -247.741745
v -175.115555 213.964905 263.310608
v -175.624619 213.802002 263.448761
v -175.828735 213.408676 263.488190
v -175.589371 213.408676 263.869812
v -175.056686 213.408676 263.891266
v -175.377487 213.408646 -248.012909
v -175.863998 213.408646 -248.322571
v -175.892075 213.801971 -248.163986
v -175.921082 213.964874 -247.741745
v -175.400635 213.801971 -247.581451
v -175.185699 213.408646 -247.523148
v -174.570969 213.408676 263.580109
v -174.380722 213.408676 263.089996
v -174.595444 213.802002 263.148773
v -175.115417 213.964905 263.310608
v -175.056549 213.408676 263.891266
v -175.569824 70.401154 -249.664886
v -175.083328 70.401154 -249.355194
v -174.891510 70.401154 -248.865479
v -174.786652 70.007889 265.074036
v -174.817017 69.844963 264.652008
v -174.297028 70.007889 264.490204
v -174.082306 70.401199 264.431152
v -174.272552 70.401199 264.921478
v -174.758102 70.401199 265.232605
v -176.022354 70.080124 -249.547821
v -175.210999 70.080170 265.116821
v -176.316544 213.729691 -248.205521
v -175.509415 213.729721 263.775696
v -175.480194 213.729691 -247.963593
v -174.375397 70.080170 264.872528
v -175.530365 70.401199 264.829498
v -176.340790 70.401154 -249.259308
v -175.828735 213.408676 263.488190
v -176.634964 213.408646 -247.916748
v -175.994431 213.341293 74.124390
v -176.203598 213.341293 -58.553547
v -174.545975 213.341141 74.019363
v -174.754807 213.341202 -58.453136
v -175.965805 206.977737 72.451248
v -175.959961 207.444000 75.652512
v -175.978516 210.819763 74.298447
v -174.530060 210.819656 74.193451
v -174.511444 207.441315 75.549194
v -174.517303 206.977600 72.346222
v -176.188248 210.819809 -58.727695
v -176.173920 207.444000 -60.081837
v -176.169693 206.977737 -56.880543
v -174.720917 206.977600 -56.780064
v -174.725159 207.441315 -59.983044
v -174.739456 210.819656 -58.627232
v -175.777481 70.075058 -249.522858
v -175.465515 70.470642 -248.963776
v -175.777481 70.470642 -249.127533
v -175.906708 70.470642 -249.522858
v -175.777481 218.007538 -249.127563
v -175.465515 218.007538 -248.963806
v -175.720139 70.147766 -249.200195
v -176.122238 214.559464 263.924896
v -174.534714 214.559464 263.924896
v -176.122238 218.517715 263.924896
v -174.468216 218.517715 263.924896
v -176.122238 218.517685 -249.126251
v -174.468216 218.517685 -249.126251
v -176.122238 214.559433 -249.126251
v -174.534683 214.559433 -249.126251
v -174.751099 78.710205 -249.246826
v -174.751099 78.710251 264.045532
v -174.751099 69.823357 -249.246826
v -174.751099 69.823402 264.045532
v -175.588638 214.559448 -76.683929
v -175.068298 214.559448 -76.683929
v -175.068298 214.559448 91.482574
v -175.588638 214.559448 91.482574
v -175.777481 218.007568 263.783386
v -175.465515 218.007568 263.619629
v -175.777481 70.075104 264.178711
v -175.906708 70.470688 264.178711
v -175.777481 70.470688 263.783417
v -175.465515 70.470688 263.619659
v -175.465515 70.075104 263.783417
v 175.465515 70.075104 263.783417
v 175.465515 70.470688 263.619659
v -175.720139 70.147812 263.856079
vn -0.9218 -0.3626 -0.1370
vn -0.8875 -0.4607 0.0008
vn -0.8875 -0.4607 0.0020
vn -0.9214 -0.3626 0.1399
vn -0.3047 -0.9525 0.0005
vn -0.4393 -0.8705 -0.2220
vn -0.3423 -0.8786 0.3329
vn -0.2005 -0.0262 -0.9793
vn -0.0432 0.0093 -0.9990
vn -0.0432 0.0094 -0.9990
vn -0.0413 -0.0142 -0.9990
vn -0.8491 0.0009 -0.5282
vn -0.9156 0.3883 -0.1039
vn -0.8490 0.0049 -0.5283
vn -0.8472 0.0009 0.5313
vn -0.8472 0.0049 0.5313
vn -0.9153 0.3884 0.1068
vn -0.0404 0.0092 0.9991
vn -0.2538 -0.1631 0.9534
vn -0.2333 -0.0495 0.9711
vn -0.0604 -0.1273 0.9900
vn -0.4520 0.8902 -0.0564
vn -0.3046 0.9525 0.0005
vn -0.3841 0.9102 -0.1549
vn -0.3469 0.9140 -0.2102
vn -0.8876 0.4607 0.0008
vn -0.8876 0.4607 0.0020
vn 0.7649 0.0580 -0.6415
vn 0.5369 0.0091 -0.8436
vn 0.5433 0.1520 -0.8257
vn 0.7375 0.1362 -0.6614
vn 0.9971 0.0686 0.0320
vn 0.8777 0.4792 -0.0019
vn 0.8326 0.5319 -0.1547
vn 0.9269 0.3707 -0.0586
vn 0.2988 0.9543 -0.0005
vn 0.4969 0.8395 -0.2198
vn 0.3774 0.9074 -0.1847
vn 0.2851 0.9525 -0.1069
vn 0.9109 -0.1644 0.3784
vn 0.9323 0.0037 0.3616
vn 0.8668 -0.2918 0.4044
vn 0.5482 -0.1272 0.8266
vn 0.7391 -0.1171 0.6634
vn 0.7701 -0.0473 0.6362
vn 0.5395 0.0090 0.8419
vn -0.0307 -0.3141 -0.9489
vn -0.0070 -0.3338 -0.9426
vn -0.2498 -0.9131 -0.3221
vn -0.1724 -0.9300 -0.3247
vn -0.8033 -0.4018 -0.4396
vn -0.2496 -0.9149 0.3173
vn -0.1713 -0.9299 0.3254
vn -0.0192 -0.3215 0.9467
vn -0.0044 -0.3341 0.9425
vn -0.8018 -0.4016 0.4425
vn -0.2494 0.9134 -0.3217
vn -0.1723 0.9300 -0.3248
vn -0.0303 0.3144 -0.9488
vn -0.0071 0.3337 -0.9427
vn -0.8034 0.4014 -0.4397
vn -0.8020 0.4016 0.4423
vn 0.9292 0.3560 -0.0988
vn 0.8721 0.3840 -0.3032
vn 0.6681 0.2806 -0.6891
vn 0.4866 0.3251 -0.8109
vn 0.4896 0.8316 -0.2623
vn 0.3363 0.8980 -0.2838
vn 0.6715 -0.2846 0.6841
vn 0.4889 -0.3251 0.8095
vn 0.4916 -0.8357 0.2449
vn 0.4489 -0.7965 0.4051
vn 0.2427 -0.9159 0.3197
vn 0.3371 -0.8980 0.2827
vn 0.9344 -0.2932 0.2025
vn 0.8731 -0.3839 0.3005
vn -1.0000 -0.0011 0.0016
vn -1.0000 -0.0011 0.0015
vn -1.0000 -0.0014 0.0013
vn -1.0000 -0.0010 0.0016
vn -1.0000 -0.0015 0.0019
vn -1.0000 -0.0029 0.0008
vn -1.0000 -0.0071 0.0007
vn -1.0000 -0.0023 0.0008
vn -1.0000 -0.0029 0.0024
vn -1.0000 -0.0071 0.0024
vn -1.0000 -0.0022 0.0024
vn 1.0000 0.0071 -0.0008
vn 1.0000 0.0071 -0.0024
vn 1.0000 0.0014 -0.0013
vn 1.0000 0.0022 -0.0008
vn 0.9726 0.1848 0.1410
vn 1.0000 0.0015 -0.0019
vn 1.0000 0.0010 -0.0016
vn 1.0000 0.0022 -0.0024
vn -0.0721 -0.0691 -0.9950
vn -0.0690 -0.0691 0.9952
vn 0.0001 1.0000 -0.0000
vn -0.0001 -1.0000 -0.0000
vn -0.0652 0.4322 -0.8994
vn -0.0623 0.4322 0.8996
vn -0.4875 0.1420 0.8615
vn -0.5880 0.1760 0.7895
vn -0.6441 -0.1225 0.7550
vn -0.4875 -0.1419 0.8615
vn -0.9609 -0.2464 0.1266
vn -0.8200 -0.3578 0.4468
vn -0.8896 -0.2366 0.3906
vn -0.9257 -0.2675 0.2676
vn -0.0000 -0.0000 1.0000
vn -0.0000 -0.0000 -1.0000
vn -0.0000 -1.0000 -0.0000
vn -1.0000 -0.0000 -0.0000
vn -0.4875 -0.1419 -0.8615
vn -0.6795 -0.0431 -0.7324
vn -0.6441 0.1225 -0.7551
vn -0.4875 0.1420 -0.8615
vn 0.1879 -0.4003 -0.8969
vn 0.2333 -0.4935 -0.8379
vn -0.2333 -0.4935 -0.8379
vn -0.1879 -0.4003 -0.8969
vn -0.8887 -0.2415 -0.3898
vn -0.8270 -0.4088 -0.3859
vn -0.9609 -0.2465 -0.1266
vn -0.9257 -0.2675 -0.2676
vt 0.375314 0.000941
vt 0.403615 0.000941
vt 0.596385 0.000941
vt 0.624686 0.000941
vt 0.389408 1.000000
vt 0.375314 0.875015
vt 0.624686 0.875015
vt 0.610592 1.000000
vt 0.250015 0.000941
vt 0.375096 0.000289
vt 0.375096 0.249711
vt 0.250015 0.249059
vt 0.375314 0.249059
vt 0.624904 0.000289
vt 0.624904 0.249711
vt 0.624687 0.249059
vt 0.749985 0.000941
vt 0.749985 0.249059
vt 0.375314 0.374985
vt 0.624686 0.374985
vt 0.249985 0.249059
vt 0.125000 0.235521
vt 0.125000 0.014479
vt 0.249985 0.000941
vt 0.375314 0.500941
vt 0.375096 0.500289
vt 0.624904 0.500289
vt 0.624686 0.500941
vt 0.375314 0.375015
vt 0.624686 0.375015
vt 0.624686 0.529207
vt 0.624686 0.720793
vt 0.624686 0.749059
vt 0.875000 0.235521
vt 0.750015 0.249059
vt 0.750015 0.000941
vt 0.875000 0.014479
vt 0.250026 0.000000
vt 0.375000 0.000000
vt 0.375000 0.875026
vt 0.375000 1.000000
vt 0.625000 0.875026
vt 0.625000 1.000000
vt 0.749974 -0.000000
vt 0.625000 0.000000
vt 0.375000 0.374974
vt 0.375000 0.250000
vt 0.250026 0.250000
vt 0.625000 0.250000
vt 0.375314 0.529207
vt 0.375000 0.500000
vt 0.249974 0.250000
vt 0.125000 0.250000
vt 0.375000 0.375026
vt 0.750026 -0.000000
vt 0.875000 0.000000
vt 0.625000 0.874974
vt 0.624686 0.874985
vt 0.624904 0.749711
vt 0.625000 0.750000
vt 0.620907 0.000941
vt 0.379092 0.000942
vt 0.624686 0.124968
vt 0.375314 0.125018
vt 0.624686 0.624983
vt 0.375313 0.749059
vt 0.375314 0.749059
vt 0.379098 0.749050
vt 0.620902 0.749059
vt 0.375313 0.625011
vt 0.380000 0.000000
vt 0.380000 0.250000
vt 0.380000 0.500000
vt 0.380000 0.750000
vt 0.375000 0.750000
vt 0.380000 1.000000
vt 0.125000 0.000000
vt 0.620000 1.000000
vt 0.620000 0.750000
vt 0.392791 0.767014
vt 0.385746 0.773665
vt 0.375313 0.720793
vt 0.375096 0.749711
vt 0.249974 0.000000
s 1
usemtl initialShadingGroup
f 32/26/19 31/27/20 39/28/21 38/29/22
f 31/30/23 30/31/24 40/32/25 39/33/23
f 34/34/26 33/35/27 43/36/28 42/37/29
f 33/35/30 32/26/19 44/38/31 43/36/32
f 38/29/22 37/39/33 50/40/34 49/41/35
f 37/39/36 36/42/37 51/43/38 50/40/39
f 46/44/40 45/36/41 48/40/42 47/45/43
f 45/36/44 44/38/31 49/41/35 48/40/45
f 53/46/46 52/47/47 64/48/48 63/49/49
f 57/50/50 56/51/51 60/52/52 59/53/53
f 56/51/54 55/54/55 61/55/56 60/52/57
f 59/53/53 58/56/58 70/57/59 69/58/60
f 58/59/61 62/60/62 71/61/63 70/62/64
f 33/35/27 34/34/26 29/63/65 72/64/66
f 29/65/67 30/31/24 31/30/23 72/66/68
f 31/27/20 32/26/19 33/35/30 72/64/69
f 39/33/23 40/32/25 35/67/70 73/68/71
f 35/69/72 36/42/37 37/39/36 73/70/73
f 37/39/33 38/29/22 39/28/21 73/70/74
f 45/36/41 46/44/40 41/71/75 74/72/76
f 41/73/77 42/37/29 43/36/28 74/72/78
f 43/36/32 44/38/31 45/36/44 74/72/79
f 48/40/45 49/41/35 50/40/34 75/74/80
f 56/51/51 57/50/50 52/75/81 76/76/82
f 52/47/47 53/46/46 54/77/83 76/78/84
f 54/79/85 55/54/55 56/51/54 76/76/86
f 70/62/64 71/61/63 66/80/87 77/81/88
f 66/82/89 67/83/90 68/84/91 77/85/92
f 68/84/93 69/58/60 70/57/59 77/85/94
f 79/26/95 78/29/96 87/29/97 86/86/98 94/87/98 93/26/99
f 78/29/96 80/41/100 82/41/101 88/88/102 87/29/97
f 80/41/100 81/38/103 83/38/104 82/41/101
f 81/38/103 79/26/95 93/26/99 92/89/105 83/38/104
f 57/50/50 59/53/53 84/53/106 85/50/107
f 59/53/53 69/58/60 90/58/108 89/90/109 84/53/106
f 69/58/60 65/91/110 96/92/111 95/93/112 91/94/112 90/58/108
f 65/91/110 57/50/50 85/50/107 97/95/113 96/92/111
f 89/90/114 88/88/114 82/41/114 84/53/114
f 83/38/115 92/89/115 97/95/115 85/50/115
f 95/93/116 94/87/116 86/86/116 91/94/116
f 82/41/117 83/38/117 85/50/117 84/53/117
f 86/86/118 88/88/118 89/90/118 91/94/118
f 92/89/119 94/87/119 95/93/119 97/95/119
f 86/86/98 87/29/97 88/88/102
f 89/90/109 90/58/108 91/94/112
f 92/89/105 93/26/99 94/87/98
f 95/93/112 96/92/111 97/95/113
f 100/35/120 99/26/121 103/38/122 102/36/123
f 100/35/124 101/34/125 98/63/126 104/64/127
f 105/64/128 106/96/128 108/97/128 107/72/128
f 109/76/129 110/98/129 112/99/129 111/100/129
f 117/100/130 118/99/130 119/101/130 120/66/130
f 111/102/131 105/64/131 107/72/131 109/78/131
f 114/103/131 113/104/131 115/104/131 116/103/131
f 112/105/130 106/99/130 119/105/130 118/106/130
f 105/99/130 111/99/130 117/100/130 120/99/130
f 121/75/132 122/50/133 126/91/134 125/107/135
f 127/108/136 126/91/137 129/58/138 128/84/139
f 123/109/140 124/49/141 125/48/142 130/102/143
o dudu_1.003
v -175.377487 213.408646 -248.012909
v -175.185699 213.408646 -247.523148
v -175.083328 70.401154 -249.355194
v -174.891510 70.401154 -248.865479
v -175.465515 69.911201 -249.522858
v -175.465515 70.075058 -249.127533
v -175.465515 70.470642 -248.963776
v -175.777481 70.470642 -249.127533
v 175.777481 70.470642 -249.127533
v 175.465515 70.470642 -248.963776
v 175.465515 70.075058 -249.127533
v 175.465515 69.911201 -249.522858
v -175.465515 218.007538 -248.963806
v -175.465515 218.403168 -249.127563
v -175.465515 218.567017 -249.522888
v 175.465515 218.567017 -249.522888
v 175.465515 218.403168 -249.127563
v 175.465515 218.007538 -248.963806
v 175.777481 218.007538 -249.127563
v -175.777481 218.007538 -249.918335
v -175.906708 218.007538 -249.523041
v -175.465515 218.567017 -249.523041
v -175.465515 218.403168 -249.918335
v -175.465515 218.007538 -250.082123
v 175.777481 218.007538 -249.918335
v 175.465515 218.007538 -250.082123
v 175.465515 218.403168 -249.918335
v 175.465515 218.567017 -249.523041
v 175.777481 218.403168 -249.523041
v -175.906708 70.470642 -249.523010
v -175.777481 70.470642 -249.918304
v -175.465515 70.470642 -250.082092
v -175.465515 70.075058 -249.918304
v -175.465515 69.911201 -249.523010
v 175.465515 69.911201 -249.523010
v 175.465515 70.075058 -249.918304
v 175.465515 70.470642 -250.082092
v 175.777481 70.470642 -249.918304
v -175.720139 70.147766 -249.200195
v -175.720139 218.330429 -249.845703
v 175.720139 218.330429 -249.845703
v -174.468216 218.517685 -249.126251
v -162.032455 218.517685 -249.126251
v -154.987549 218.517685 -249.126251
v -147.942657 218.517685 -249.126251
v -140.897766 218.517685 -249.126251
v -133.852875 218.517685 -249.126251
v -126.807976 218.517685 -249.126251
v -119.763092 218.517685 -249.126251
v -112.718193 218.517685 -249.126251
v -105.673302 218.517685 -249.126251
v -98.628410 218.517685 -249.126251
v -91.583519 218.517685 -249.126251
v -84.538628 218.517685 -249.126251
v -77.493744 218.517685 -249.126251
v -70.448853 218.517685 -249.126251
v -63.403961 218.517685 -249.126251
v -56.359077 218.517685 -249.126251
v -49.314190 218.517685 -249.126251
v -42.269302 218.517685 -249.126251
v -35.224415 218.517685 -249.126251
v -28.179525 218.517685 -249.126251
v -21.134636 218.517685 -249.126251
v -14.089747 218.517685 -249.126251
v -7.044858 218.517685 -249.126251
v 0.000032 218.517685 -249.126251
v 7.044921 218.517685 -249.126251
v 14.089809 218.517685 -249.126251
v 21.134701 218.517685 -249.126251
v 28.179592 218.517685 -249.126251
v 35.224476 218.517685 -249.126251
v 42.269363 218.517685 -249.126251
v 49.314255 218.517685 -249.126251
v 56.359142 218.517685 -249.126251
v 63.404026 218.517685 -249.126251
v 70.448914 218.517685 -249.126251
v 77.493805 218.517685 -249.126251
v 84.538696 218.517685 -249.126251
v 91.583580 218.517685 -249.126251
v 98.628471 218.517685 -249.126251
v 105.673363 218.517685 -249.126251
v 112.718254 218.517685 -249.126251
v 119.763153 218.517685 -249.126251
v 126.808037 218.517685 -249.126251
v 133.852936 218.517685 -249.126251
v 140.897827 218.517685 -249.126251
v 147.942734 218.517685 -249.126251
v 154.987610 218.517685 -249.126251
v 162.032516 218.517685 -249.126251
v 174.468277 218.517685 -249.126251
v -174.534683 214.559433 -249.126251
v -162.032455 214.559433 -249.126251
v -154.987549 214.559433 -249.126251
v -147.942657 214.559433 -249.126251
v -140.897766 214.559433 -249.126251
v -133.852875 214.559433 -249.126251
v -126.807976 214.559433 -249.126251
v -119.763092 214.559433 -249.126251
v -112.718193 214.559433 -249.126251
v -105.673302 214.559433 -249.126251
v -98.628410 214.559433 -249.126251
v -91.583519 214.559433 -249.126251
v -84.538628 214.559433 -249.126251
v -77.493744 214.559433 -249.126251
v -70.448853 214.559433 -249.126251
v -63.403961 214.559433 -249.126251
v -56.359077 214.559433 -249.126251
v -49.314190 214.559433 -249.126251
v -42.269302 214.559433 -249.126251
v -35.224415 214.559433 -249.126251
v -28.179525 214.559433 -249.126251
v -21.134636 214.559433 -249.126251
v -14.089747 214.559433 -249.126251
v -7.044858 214.559433 -249.126251
v 0.000032 214.559433 -249.126251
v 7.044921 214.559433 -249.126251
v 14.089809 214.559433 -249.126251
v 21.134701 214.559433 -249.126251
v 28.179592 214.559433 -249.126251
v 35.224476 214.559433 -249.126251
v 42.269363 214.559433 -249.126251
v 49.314255 214.559433 -249.126251
v 56.359142 214.559433 -249.126251
v 63.404026 214.559433 -249.126251
v 70.448914 214.559433 -249.126251
v 77.493805 214.559433 -249.126251
v 84.538696 214.559433 -249.126251
v 91.583580 214.559433 -249.126251
v 98.628471 214.559433 -249.126251
v 105.673363 214.559433 -249.126251
v 112.718254 214.559433 -249.126251
v 119.763153 214.559433 -249.126251
v 126.808037 214.559433 -249.126251
v 133.852936 214.559433 -249.126251
v 140.897827 214.559433 -249.126251
v 147.942734 214.559433 -249.126251
v 154.987610 214.559433 -249.126251
v 162.032516 214.559433 -249.126251
v 174.534744 214.559433 -249.126251
v 174.534744 69.939522 -249.126221
v 174.534729 78.710205 -249.246826
v 174.534729 69.823357 -249.246826
v -174.751099 78.710205 -249.246826
v -174.751099 69.823357 -249.246826
vn 0.9097 -0.1644 -0.3813
vn 0.8025 -0.0254 -0.5961
vn 0.8163 0.1177 -0.5656
vn 0.9060 0.1810 -0.3826
vn -0.0114 -0.4670 0.8842
vn -0.0006 -0.3824 0.9240
vn -0.1879 -0.4004 0.8969
vn -0.0069 -0.3398 0.9405
vn 0.1810 -0.8988 0.3993
vn 0.1410 -0.8134 0.5643
vn -0.0531 -0.8009 0.5964
vn -0.1810 -0.8988 0.3993
vn 0.4875 0.1420 0.8615
vn 0.4875 -0.1419 0.8615
vn 0.4914 -0.0931 0.8659
vn 0.2256 0.8348 0.5022
vn 0.1810 0.8988 0.3993
vn -0.1810 0.8988 0.3993
vn -0.2688 0.8703 0.4127
vn -0.8959 -0.1436 -0.4205
vn -0.9372 -0.1176 -0.3284
vn -0.9372 0.1176 -0.3284
vn -0.8712 0.0987 -0.4810
vn -0.4645 0.0014 -0.8856
vn -0.0005 0.0011 -1.0000
vn -0.0856 0.1099 -0.9902
vn -0.4875 0.1420 -0.8615
vn -0.0007 0.3824 -0.9240
vn -0.1879 0.4003 -0.8969
vn -0.0069 0.3398 -0.9405
vn 0.1810 0.8988 -0.3993
vn 0.1487 0.8085 -0.5694
vn 0.0607 0.8061 -0.5887
vn -0.0000 0.9238 -0.3829
vn 0.4875 -0.1419 -0.8615
vn 0.4875 0.1420 -0.8615
vn 0.4126 0.0084 -0.9109
vn 0.2158 -0.8386 -0.5002
vn 0.1810 -0.8988 -0.3993
vn -0.1810 -0.8988 -0.3993
vn -0.1410 -0.8134 -0.5643
vn 0.1880 -0.4004 -0.8969
vn -0.1879 -0.4004 -0.8969
vn 0.1544 -0.1756 0.9723
vn -0.2386 -0.2834 0.9289
vn -0.3996 -0.3151 0.8608
vn -0.3996 0.3151 -0.8608
vn 0.3476 0.8191 -0.4564
vn 0.3998 0.8606 -0.3155
vn -0.0000 -0.0000 -1.0000
vn -0.3163 -0.0000 -0.9487
vn 1.0000 -0.0000 -0.0001
vt 0.375314 0.529207
vt 0.375314 0.500941
vt 0.375313 0.749059
vt 0.375313 0.720793
vt 0.375314 0.000941
vt 0.403615 0.000941
vt 0.596385 0.000941
vt 0.624686 0.000941
vt 0.389408 1.000000
vt 0.375314 0.875015
vt 0.624686 0.875015
vt 0.610592 1.000000
vt 0.624904 0.000289
vt 0.624904 0.249711
vt 0.624687 0.249059
vt 0.375314 0.374985
vt 0.375096 0.249711
vt 0.624686 0.374985
vt 0.249985 0.249059
vt 0.125000 0.235521
vt 0.125000 0.014479
vt 0.249985 0.000941
vt 0.375096 0.500289
vt 0.624904 0.500289
vt 0.624686 0.500941
vt 0.375314 0.375015
vt 0.624686 0.375015
vt 0.624686 0.529207
vt 0.624686 0.720793
vt 0.624686 0.749059
vt 0.375314 0.874985
vt 0.375096 0.749711
vt 0.624904 0.749711
vt 0.624686 0.874985
vt 0.375314 0.249059
vt 0.375096 0.000289
vt 0.375000 0.000000
vt 0.375000 0.500000
vt 0.625000 0.375026
vt 0.625000 0.500000
vt 0.615000 0.750000
vt 0.610000 0.750000
vt 0.605000 0.750000
vt 0.600000 0.750000
vt 0.595000 0.750000
vt 0.590000 0.750000
vt 0.585000 0.750000
vt 0.580000 0.750000
vt 0.575000 0.750000
vt 0.570000 0.750000
vt 0.565000 0.750000
vt 0.560000 0.750000
vt 0.555000 0.750000
vt 0.550000 0.750000
vt 0.545000 0.750000
vt 0.540000 0.750000
vt 0.535000 0.750000
vt 0.530000 0.750000
vt 0.525000 0.750000
vt 0.520000 0.750000
vt 0.515000 0.750000
vt 0.510000 0.750000
vt 0.505000 0.750000
vt 0.500000 0.750000
vt 0.495000 0.750000
vt 0.490000 0.750000
vt 0.485000 0.750000
vt 0.480000 0.750000
vt 0.475000 0.750000
vt 0.470000 0.750000
vt 0.465000 0.750000
vt 0.460000 0.750000
vt 0.455000 0.750000
vt 0.450000 0.750000
vt 0.445000 0.750000
vt 0.440000 0.750000
vt 0.435000 0.750000
vt 0.430000 0.750000
vt 0.425000 0.750000
vt 0.420000 0.750000
vt 0.415000 0.750000
vt 0.410000 0.750000
vt 0.405000 0.750000
vt 0.400000 0.750000
vt 0.395000 0.750000
vt 0.390000 0.750000
vt 0.385000 0.750000
vt 0.380000 0.750000
vt 0.380000 0.500000
vt 0.385000 0.500000
vt 0.390000 0.500000
vt 0.395000 0.500000
vt 0.400000 0.500000
vt 0.405000 0.500000
vt 0.410000 0.500000
vt 0.415000 0.500000
vt 0.420000 0.500000
vt 0.425000 0.500000
vt 0.430000 0.500000
vt 0.435000 0.500000
vt 0.440000 0.500000
vt 0.445000 0.500000
vt 0.450000 0.500000
vt 0.455000 0.500000
vt 0.460000 0.500000
vt 0.465000 0.500000
vt 0.470000 0.500000
vt 0.475000 0.500000
vt 0.480000 0.500000
vt 0.485000 0.500000
vt 0.490000 0.500000
vt 0.495000 0.500000
vt 0.500000 0.500000
vt 0.505000 0.500000
vt 0.510000 0.500000
vt 0.515000 0.500000
vt 0.520000 0.500000
vt 0.525000 0.500000
vt 0.530000 0.500000
vt 0.535000 0.500000
vt 0.540000 0.500000
vt 0.545000 0.500000
vt 0.550000 0.500000
vt 0.555000 0.500000
vt 0.560000 0.500000
vt 0.565000 0.500000
vt 0.570000 0.500000
vt 0.575000 0.500000
vt 0.580000 0.500000
vt 0.585000 0.500000
vt 0.590000 0.500000
vt 0.595000 0.500000
vt 0.600000 0.500000
vt 0.605000 0.500000
vt 0.610000 0.500000
vt 0.615000 0.500000
vt 0.620000 0.500000
vt 0.620000 0.750000
s 1
usemtl initialShadingGroup
f 131/110/144 132/111/145 134/112/146 133/113/147
f 137/114/148 136/115/149 141/116/150 140/117/151
f 136/118/152 135/119/153 142/120/154 141/121/155
f 140/117/151 139/122/156 149/123/157 148/124/158
f 145/125/159 144/126/160 147/123/161 146/127/162
f 151/128/163 150/129/164 161/130/165 160/131/166
f 150/110/167 154/111/168 162/112/169 161/113/170
f 154/111/168 153/132/171 157/133/172 156/134/173
f 153/132/174 152/135/175 158/136/176 157/133/177
f 156/134/173 155/137/178 168/138/179 167/139/180
f 164/140/181 163/141/182 166/142/183 165/143/184
f 163/141/185 162/112/169 167/139/180 166/142/186
f 137/114/148 140/117/151 148/124/158 143/144/187
f 154/111/168 156/134/173 167/139/180 162/112/169
f 136/115/149 137/114/148 138/145/188 169/146/189
f 153/132/171 154/111/168 150/110/167 170/147/190
f 157/133/177 158/136/176 159/148/191 171/149/192
f 268/150/193 267/151/193 266/152/193 265/153/193 264/154/193 263/155/193 262/156/193 261/157/193 260/158/193 259/159/193 258/160/193 257/161/193 256/162/193 255/163/193 254/164/193 253/165/193 252/166/193 251/167/193 250/168/193 249/169/193 248/170/193 247/171/193 246/172/193 245/173/193 244/174/193 243/175/193 242/176/193 241/177/193 240/178/193 239/179/193 238/180/193 237/181/193 236/182/193 235/183/193 234/184/193 233/185/193 232/186/193 231/187/193 230/188/193 229/189/193 228/190/193 227/191/193 226/192/193 225/193/193 224/194/193 223/195/193 222/196/193 221/197/193 172/198/193 173/199/193 174/200/193 175/201/193 176/202/193 177/203/193 178/204/193 179/205/193 180/206/193 181/207/193 182/208/193 183/209/193 184/210/193 185/211/193 186/212/193 187/213/193 188/214/193 189/215/193 190/216/193 191/217/193 192/218/193 193/219/193 194/220/193 195/221/193 196/222/193 197/223/193 198/224/193 199/225/193 200/226/193 201/227/193 202/228/193 203/229/193 204/230/193 205/231/193 206/232/193 207/233/193 208/234/193 209/235/193 210/236/193 211/237/193 212/238/193 213/239/193 214/240/193 215/241/193 216/242/193 217/243/193 218/244/193 219/245/193 220/246/193 269/247/193
f 269/247/194 270/247/195 272/247/195 271/247/195
f 271/247/193 272/247/193 274/247/193 273/247/193
o dudu_1.004
v 174.534744 214.559464 263.924896
v 174.534744 69.939568 263.924927
v 174.534729 78.710251 264.045532
v 174.534729 69.823402 264.045532
v -174.751099 78.710251 264.045532
v -174.751099 69.823402 264.045532
v -175.777481 70.075104 264.178864
v -175.465515 69.911247 264.178864
v -175.465515 70.075104 264.574188
v -175.465515 70.470688 264.737946
v -175.777481 70.470688 264.574188
v -175.906708 70.470688 264.178864
v 175.777481 70.075104 264.178864
v 175.906708 70.470688 264.178864
v 175.777481 70.470688 264.574188
v 175.465515 70.470688 264.737946
v 175.465515 70.075104 264.574188
v 175.465515 69.911247 264.178864
v -175.777481 218.403198 264.178833
v -175.906708 218.007568 264.178833
v -175.777481 218.007568 264.574158
v -175.465515 218.007568 264.737915
v -175.465515 218.403198 264.574158
v -175.465515 218.567047 264.178833
v 175.465515 218.567047 264.178833
v 175.465515 218.403198 264.574158
v 175.465515 218.007568 264.737915
v 175.777481 218.007568 264.574158
v 175.906708 218.007568 264.178833
v -175.777481 218.007568 263.783386
v -175.906708 218.007568 264.178680
v -175.777481 218.403198 264.178680
v -175.465515 218.567047 264.178680
v -175.465515 218.403198 263.783386
v -175.465515 218.007568 263.619629
v 175.777481 218.007568 263.783386
v 175.465515 218.007568 263.619629
v 175.465515 218.403198 263.783386
v 175.465515 218.567047 264.178680
v 175.906708 218.007568 264.178680
v -175.777481 70.075104 264.178711
v -175.906708 70.470688 264.178711
v -175.777481 70.470688 263.783417
v -175.465515 70.470688 263.619659
v -175.465515 70.075104 263.783417
v -175.465515 69.911247 264.178711
v 175.777481 70.075104 264.178711
v 175.465515 69.911247 264.178711
v 175.465515 70.075104 263.783417
v 175.465515 70.470688 263.619659
v 175.777481 70.470688 263.783417
v 175.906708 70.470688 264.178711
v -175.720139 70.147812 264.501526
v 175.720139 70.147812 264.501526
v -175.720139 218.330460 264.501495
v -175.720139 218.330460 263.856049
v -175.720139 70.147812 263.856079
v 175.720139 70.147812 263.856079
vn 1.0000 -0.0000 0.0001
vn -0.3163 -0.0000 0.9487
vn -0.0000 -0.0000 1.0000
vn 0.3549 -0.1823 -0.9170
vn 0.5367 -0.4738 -0.6982
vn 0.2387 -0.2834 -0.9288
vn 0.3996 -0.3151 -0.8608
vn -0.0005 -0.0011 1.0000
vn -0.0007 -0.3824 0.9240
vn 0.0007 -0.3824 0.9240
vn 0.0005 -0.0011 1.0000
vn -0.0000 -0.9238 0.3829
vn -0.2718 -0.7673 0.5808
vn 0.4244 -0.7815 0.4574
vn -0.8685 -0.0453 0.4935
vn -0.9505 -0.0001 0.3107
vn -0.9505 -0.0000 0.3107
vn -0.9258 -0.0502 0.3748
vn -0.4645 -0.0014 0.8856
vn -0.0005 0.0011 1.0000
vn -0.4645 0.0014 0.8856
vn 0.4645 -0.0014 0.8856
vn 0.4875 -0.1419 0.8615
vn 0.4126 -0.0084 0.9109
vn 0.9505 -0.0001 0.3107
vn 0.8465 -0.1872 0.4984
vn 0.8610 -0.0366 0.5072
vn 0.9372 -0.1176 0.3283
vn -0.0723 0.8105 0.5813
vn -0.0000 0.9238 0.3829
vn -0.1810 0.8988 0.3993
vn -0.2564 0.8731 0.4148
vn -0.0007 0.3824 0.9240
vn -0.1879 0.4003 0.8969
vn -0.8685 0.0453 -0.4936
vn -0.9505 0.0001 -0.3107
vn -0.9372 0.1176 -0.3284
vn -0.8727 0.0963 -0.4786
vn -0.0001 0.9238 -0.3829
vn -0.2740 0.7726 -0.5726
vn -0.2142 0.8393 -0.4998
vn -0.1810 0.8988 -0.3993
vn 0.9372 -0.1176 -0.3283
vn 0.8727 -0.0963 -0.4786
vn 0.8685 -0.0453 -0.4935
vn 0.9505 -0.0000 -0.3107
vn -0.0640 -0.8073 -0.5867
vn -0.0000 -0.9238 -0.3829
vn 0.2718 -0.7673 -0.5808
vn 0.0548 -0.2108 -0.9760
vn -0.2615 -0.0424 -0.9643
vn -0.1544 0.1756 -0.9723
vn 0.1544 0.1756 -0.9723
vn -0.8887 -0.2415 0.3898
vn -0.9257 -0.2675 0.2676
vn -0.3526 -0.8177 0.4550
vn -0.3998 -0.8606 0.3155
vn -0.3996 -0.3151 0.8608
vn 0.3526 -0.8178 0.4549
vn 0.3998 -0.8606 0.3155
vn 0.8887 -0.2415 0.3898
vn 0.9257 -0.2675 0.2676
vn 0.3996 -0.3151 0.8608
vn -0.3703 0.8109 0.4531
vn -0.3998 0.8606 0.3155
vn -0.8887 0.2415 0.3898
vn -0.9257 0.2674 0.2676
vn -0.3996 0.3151 0.8608
vn -0.3550 0.1822 -0.9170
vn -0.4544 0.5186 -0.7243
vn -0.2387 0.2834 -0.9288
vn -0.3997 0.3151 -0.8608
vn -0.8887 0.2415 -0.3898
vn -0.9257 0.2675 -0.2676
vn -0.3703 0.8109 -0.4531
vn -0.3998 0.8606 -0.3155
vn -0.3526 -0.8177 -0.4550
vn -0.3998 -0.8606 -0.3155
vn -0.2386 -0.2834 -0.9288
vn -0.5367 -0.4738 -0.6982
vn -0.3549 -0.1823 -0.9170
vn -0.3996 -0.3151 -0.8608
vn 0.8887 -0.2415 -0.3898
vn 0.9257 -0.2675 -0.2676
vn 0.3526 -0.8177 -0.4549
vn 0.3998 -0.8606 -0.3155
vt 0.620000 1.000000
vt 0.624904 0.749711
vt 0.624686 0.749059
vt 0.624686 0.720793
vt 0.625000 0.750000
vt 0.375314 0.000941
vt 0.403615 0.000941
vt 0.596385 0.000941
vt 0.624686 0.000941
vt 0.389408 1.000000
vt 0.375314 0.875015
vt 0.624686 0.875015
vt 0.610592 1.000000
vt 0.250015 0.000941
vt 0.375096 0.000289
vt 0.375096 0.249711
vt 0.250015 0.249059
vt 0.375314 0.249059
vt 0.624904 0.000289
vt 0.624904 0.249711
vt 0.624687 0.249059
vt 0.749985 0.000941
vt 0.749985 0.249059
vt 0.375314 0.374985
vt 0.624686 0.374985
vt 0.249985 0.249059
vt 0.125000 0.235521
vt 0.125000 0.014479
vt 0.249985 0.000941
vt 0.375096 0.500289
vt 0.375314 0.375015
vt 0.624686 0.375015
vt 0.624904 0.500289
vt 0.875000 0.235521
vt 0.750015 0.249059
vt 0.750015 0.000941
vt 0.875000 0.014479
vt 0.375314 0.874985
vt 0.375096 0.749711
vt 0.624686 0.874985
vt 0.375314 0.500941
vt 0.624686 0.500941
vt 0.375313 0.749059
vt 0.250026 0.000000
vt 0.375000 0.000000
vt 0.375000 0.875026
vt 0.375000 1.000000
vt 0.625000 0.875026
vt 0.625000 1.000000
vt 0.749974 -0.000000
vt 0.625000 0.000000
vt 0.375000 0.374974
vt 0.375000 0.250000
vt 0.250026 0.250000
vt 0.375314 0.529207
vt 0.375000 0.500000
vt 0.249974 0.250000
vt 0.125000 0.250000
vt 0.375000 0.375026
vt 0.375000 0.874974
vt 0.375000 0.750000
vt 0.375313 0.720793
vt 0.750026 -0.000000
vt 0.875000 0.000000
vt 0.625000 0.874974
s 1
usemtl initialShadingGroup
f 276/248/196 275/248/197 277/248/196 278/248/196
f 278/248/198 277/248/198 279/248/198 280/248/198
f 323/249/199 324/250/200 325/251/201 332/252/202
f 284/253/203 283/254/204 291/255/205 290/256/206
f 283/257/207 282/258/208 292/259/209 291/260/207
f 286/261/210 285/262/211 295/263/212 294/264/213
f 285/262/214 284/253/203 296/265/215 295/263/216
f 290/256/206 289/266/217 302/267/218 301/268/219
f 289/266/220 288/269/221 303/270/222 302/267/223
f 298/271/224 297/263/225 300/267/226 299/272/227
f 297/263/228 296/265/215 301/268/219 300/267/229
f 305/273/230 304/274/231 317/275/232 316/276/233
f 308/277/234 307/278/235 313/279/236 312/280/237
f 310/281/238 314/282/239 326/283/240 325/284/241
f 320/285/242 319/286/243 323/249/243 322/287/244
f 284/253/203 290/256/206 301/268/219 296/265/215
f 309/288/245 311/289/246 324/250/247 318/290/248
f 285/262/211 286/261/210 281/291/249 327/292/250
f 281/293/251 282/258/208 283/257/207 327/294/252
f 283/254/204 284/253/203 285/262/214 327/292/253
f 291/260/207 292/259/209 287/295/254 328/296/255
f 287/297/256 288/269/221 289/266/220 328/298/257
f 289/266/217 290/256/206 291/255/205 328/298/258
f 297/263/225 298/271/224 293/299/259 329/300/260
f 293/301/261 294/264/213 295/263/212 329/300/262
f 295/263/216 296/265/215 297/263/228 329/300/263
f 308/277/264 309/288/265 304/302/266 330/303/267
f 304/274/231 305/273/230 306/304/268 330/305/269
f 306/306/270 307/278/235 308/277/234 330/303/271
f 319/286/243 320/285/242 315/307/272 331/308/273
f 317/309/274 318/290/275 319/286/276 331/308/277
f 325/284/241 326/283/240 321/310/278 332/311/279
f 321/312/280 322/287/244 323/249/243 332/252/281
o dudu_1.005
v -175.597900 70.007843 -249.506409
v -175.083328 70.401154 -249.355194
v -174.891510 70.401154 -248.865479
v -175.106430 70.007843 -248.923676
v -175.626907 69.844917 -249.084015
v -174.817017 69.844963 264.652008
v -174.297028 70.007889 264.490204
v -174.082306 70.401199 264.431152
v -175.186005 70.080124 -249.305969
v -175.777481 70.470642 -249.127533
v -175.906708 70.470642 -249.522858
v 175.777481 70.470642 -249.127533
v 175.465515 70.470642 -248.963776
v 175.465515 70.075058 -249.127533
v -175.906708 218.007538 -249.522888
v -175.777481 218.007538 -249.127563
v -175.777481 70.075058 -249.523010
v -175.906708 70.470642 -249.523010
v -175.777481 70.470642 -249.918304
v -175.465515 70.470642 -250.082092
v -175.465515 70.075058 -249.918304
v -175.465515 69.911201 -249.523010
v 175.777481 70.075058 -249.523010
v 175.777481 70.470642 -249.918304
v 175.906708 70.470642 -249.523010
v 175.720139 70.147766 -249.200195
v -175.720139 70.147766 -249.845673
v 175.720139 70.147766 -249.845673
v 174.534744 69.939522 -249.126221
v 176.122299 69.939522 -249.126221
v 176.122299 69.939568 263.924927
v 174.534744 69.939568 263.924927
v 174.534729 78.710205 -249.246826
v 174.534729 78.710251 264.045532
v 174.534729 69.823357 -249.246826
v 174.534729 69.823402 264.045532
v -174.751099 78.710205 -249.246826
v -174.751099 78.710251 264.045532
v -174.751099 69.823357 -249.246826
v -174.751099 69.823402 264.045532
vn 0.4934 -0.8675 -0.0634
vn 0.2989 -0.9543 -0.0005
vn 0.2852 -0.9525 -0.1070
vn 0.4291 -0.8918 -0.1431
vn 0.8777 -0.4792 -0.0019
vn 0.7664 -0.6416 0.0324
vn 0.8230 -0.4921 -0.2839
vn 0.8325 -0.5320 -0.1547
vn 0.4895 -0.8312 -0.2637
vn 0.3363 -0.8980 -0.2836
vn 0.9321 -0.3501 -0.0930
vn 0.8721 -0.3839 -0.3033
vn -0.8939 0.1494 0.4226
vn -0.9372 0.1176 0.3284
vn -0.9372 -0.1176 0.3283
vn -0.9228 -0.1703 0.3456
vn 0.2386 -0.2834 0.9289
vn 0.6298 -0.3445 0.6962
vn 0.3548 -0.1823 0.9170
vn 0.3996 -0.3151 0.8608
vn -0.3766 -0.9140 -0.1510
vn -0.4985 -0.7163 -0.4883
vn -0.3620 -0.8146 -0.4532
vn -0.3998 -0.8606 -0.3155
vn -0.8896 -0.2366 -0.3906
vn -0.8247 -0.4107 -0.3888
vn -0.9609 -0.2464 -0.1266
vn -0.9257 -0.2675 -0.2676
vn -0.2387 -0.2834 -0.9288
vn -0.5367 -0.4738 -0.6981
vn -0.3549 -0.1822 -0.9170
vn -0.3997 -0.3151 -0.8608
vn 0.9609 -0.2464 -0.1266
vn 0.8200 -0.3578 -0.4468
vn 0.8896 -0.2366 -0.3906
vn 0.9257 -0.2675 -0.2676
vn -0.0000 -1.0000 -0.0000
vn 1.0000 -0.0002 -0.0000
vn -0.0000 1.0000 -0.0000
vt 0.375314 0.874985
vt 0.375096 0.749711
vt 0.624904 0.749711
vt 0.624686 0.874985
vt 0.375313 0.749059
vt 0.624686 0.749059
vt 0.375000 0.874974
vt 0.375000 0.750000
vt 0.375313 0.720793
vt 0.250015 0.000941
vt 0.375096 0.000289
vt 0.375096 0.249711
vt 0.250015 0.249059
vt 0.624904 0.000289
vt 0.624686 0.000941
vt 0.596385 0.000941
vt 0.625000 0.000000
vt 0.249974 0.000000
vt 0.249985 0.000941
vt 0.125000 0.014479
vt 0.125000 0.000000
vt 0.875000 0.014479
vt 0.750015 0.000941
vt 0.750026 -0.000000
vt 0.875000 0.000000
vt 0.620000 0.750000
vt 0.625000 0.750000
vt 0.625000 1.000000
vt 0.620000 1.000000
s 1
usemtl initialShadingGroup
f 337/313/282 336/314/283 339/315/284 338/316/285
f 336/314/286 335/317/287 340/318/288 339/315/289
f 336/314/283 337/313/282 333/319/290 341/320/291
f 334/321/292 335/317/287 336/314/286 341/320/293
f 343/322/294 342/323/295 348/324/296 347/325/297
f 344/326/298 345/327/299 346/328/300 358/329/301
f 353/314/302 354/313/303 349/319/304 359/320/305
f 349/330/306 350/331/307 351/332/308 359/333/309
f 351/321/310 352/317/311 353/314/312 359/320/313
f 356/334/314 357/335/315 355/336/316 360/337/317
f 361/338/318 362/339/318 363/340/318 364/341/318
f 361/338/319 364/341/319 368/341/319 367/338/319
f 366/341/320 365/338/320 369/338/320 370/341/320
f 367/338/318 368/341/318 372/341/318 371/338/318
o dudu_1.006
v -175.465515 218.007538 -248.963806
v -175.465515 218.403168 -249.127563
v 175.777481 218.403168 -249.522888
v 175.465515 218.403168 -249.127563
v 175.465515 218.007538 -248.963806
v 175.777481 218.007538 -249.127563
v 175.906708 218.007538 -249.522888
v 175.720139 218.330429 -249.200226
v -176.122238 214.559464 263.924896
v -174.534714 214.559464 263.924896
v -162.032455 214.559464 263.924896
v -154.987549 214.559464 263.924896
v -147.942657 214.559464 263.924896
v -140.897766 214.559464 263.924896
v -133.852875 214.559464 263.924896
v -126.808014 214.559464 263.924896
v -119.763130 214.559448 263.924896
v -112.718231 214.559448 263.924896
v -105.673302 214.559464 263.924896
v -98.628410 214.559464 263.924896
v -91.583542 214.559464 263.924896
v -84.538651 214.559464 263.924896
v -77.493744 214.559464 263.924896
v -70.448853 214.559464 263.924896
v -63.403961 214.559464 263.924896
v -56.359077 214.559464 263.924896
v -49.314190 214.559464 263.924896
v -42.269302 214.559464 263.924896
v -35.224415 214.559464 263.924896
v -28.179525 214.559464 263.924896
v -21.134636 214.559464 263.924896
v -14.089747 214.559464 263.924896
v -7.044858 214.559464 263.924896
v 0.000032 214.559464 263.924896
v 7.044921 214.559464 263.924896
v 14.089809 214.559464 263.924896
v 21.134701 214.559464 263.924896
v 28.179592 214.559464 263.924896
v 35.224476 214.559464 263.924896
v 42.269363 214.559464 263.924896
v 49.314255 214.559464 263.924896
v 56.359142 214.559464 263.924896
v 63.404026 214.559464 263.924896
v 70.448914 214.559464 263.924896
v 77.493805 214.559464 263.924896
v 84.538696 214.559464 263.924896
v 91.583580 214.559464 263.924896
v 98.628471 214.559464 263.924896
v 105.673363 214.559464 263.924896
v 112.718254 214.559464 263.924896
v 119.763153 214.559464 263.924896
v 126.808037 214.559464 263.924896
v 133.852936 214.559464 263.924896
v 140.897827 214.559464 263.924896
v 147.942734 214.559464 263.924896
v 154.987610 214.559464 263.924896
v 162.032516 214.559464 263.924896
v 174.534744 214.559464 263.924896
v -176.122238 218.517715 263.924896
v -174.468216 218.517715 263.924896
v -162.032455 218.517715 263.924896
v -154.987549 218.517715 263.924896
v -147.942657 218.517715 263.924896
v -140.897766 218.517715 263.924896
v -133.852875 218.517715 263.924896
v -126.807976 218.517715 263.924896
v -119.763092 218.517715 263.924896
v -112.718193 218.517715 263.924896
v -105.673302 218.517715 263.924896
v -98.628410 218.517715 263.924896
v -91.583519 218.517715 263.924896
v -84.538628 218.517715 263.924896
v -77.493744 218.517715 263.924896
v -70.448853 218.517715 263.924896
v -63.403961 218.517715 263.924896
v -56.359077 218.517715 263.924896
v -49.314190 218.517715 263.924896
v -42.269302 218.517715 263.924896
v -35.224415 218.517715 263.924896
v -28.179525 218.517715 263.924896
v -21.134636 218.517715 263.924896
v -14.089747 218.517715 263.924896
v -7.044858 218.517715 263.924896
v 0.000032 218.517715 263.924896
v 7.044921 218.517715 263.924896
v 14.089809 218.517715 263.924896
v 21.134701 218.517715 263.924896
v 28.179592 218.517715 263.924896
v 35.224476 218.517715 263.924896
v 42.269363 218.517715 263.924896
v 49.314255 218.517715 263.924896
v 56.359142 218.517715 263.924896
v 63.404026 218.517715 263.924896
v 70.448914 218.517715 263.924896
v 77.493805 218.517715 263.924896
v 84.538696 218.517715 263.924896
v 91.583580 218.517715 263.924896
v 98.628471 218.517715 263.924896
v 105.673363 218.517715 263.924896
v 112.718254 218.517715 263.924896
v 119.763153 218.517715 263.924896
v 126.808037 218.517715 263.924896
v 133.852936 218.517715 263.924896
v 140.897827 218.517715 263.924896
v 147.942734 218.517715 263.924896
v 154.987610 218.517715 263.924896
v 162.032516 218.517715 263.924896
v 174.468277 218.517715 263.924896
v 176.122299 218.517715 263.924896
v -176.122238 218.517685 -249.126251
v -174.468216 218.517685 -249.126251
v 174.468277 218.517685 -249.126251
v 176.122299 218.517685 -249.126251
v -176.122238 214.559433 -249.126251
v -174.534683 214.559433 -249.126251
v 154.987610 218.517685 -249.126251
v 162.032516 218.517685 -249.126251
v 147.942734 218.517685 -249.126251
v 140.897827 218.517685 -249.126251
v 133.852936 218.517685 -249.126251
v 126.808037 218.517685 -249.126251
v 119.763153 218.517685 -249.126251
v 112.718254 218.517685 -249.126251
v 105.673363 218.517685 -249.126251
v 98.628471 218.517685 -249.126251
v 91.583580 218.517685 -249.126251
v 84.538696 218.517685 -249.126251
v 77.493805 218.517685 -249.126251
v 70.448914 218.517685 -249.126251
v 63.404026 218.517685 -249.126251
v 56.359142 218.517685 -249.126251
v 49.314255 218.517685 -249.126251
v 42.269363 218.517685 -249.126251
v 35.224476 218.517685 -249.126251
v 28.179592 218.517685 -249.126251
v 21.134701 218.517685 -249.126251
v 14.089809 218.517685 -249.126251
v 7.044921 218.517685 -249.126251
v 0.000032 218.517685 -249.126251
v -7.044858 218.517685 -249.126251
v -14.089747 218.517685 -249.126251
v -21.134636 218.517685 -249.126251
v -28.179525 218.517685 -249.126251
v -35.224415 218.517685 -249.126251
v -42.269302 218.517685 -249.126251
v -49.314190 218.517685 -249.126251
v -56.359077 218.517685 -249.126251
v -63.403961 218.517685 -249.126251
v -70.448853 218.517685 -249.126251
v -77.493744 218.517685 -249.126251
v -84.538628 218.517685 -249.126251
v -91.583519 218.517685 -249.126251
v -98.628410 218.517685 -249.126251
v -105.673302 218.517685 -249.126251
v -112.718193 218.517685 -249.126251
v -119.763092 218.517685 -249.126251
v -126.807976 218.517685 -249.126251
v -133.852875 218.517685 -249.126251
v -140.897766 218.517685 -249.126251
v -147.942657 218.517685 -249.126251
v -154.987549 218.517685 -249.126251
v -162.032455 218.517685 -249.126251
v -174.468216 218.517685 -249.126251
v -174.468216 218.517715 263.924896
v -162.032455 218.517715 263.924896
v -154.987549 218.517715 263.924896
v -147.942657 218.517715 263.924896
v -140.897766 218.517715 263.924896
v -133.852875 218.517715 263.924896
v -126.807976 218.517715 263.924896
v -119.763092 218.517715 263.924896
v -112.718193 218.517715 263.924896
v -105.673302 218.517715 263.924896
v -98.628410 218.517715 263.924896
v -91.583519 218.517715 263.924896
v -84.538628 218.517715 263.924896
v -77.493744 218.517715 263.924896
v -70.448853 218.517715 263.924896
v -63.403961 218.517715 263.924896
v -56.359077 218.517715 263.924896
v -49.314190 218.517715 263.924896
v -42.269302 218.517715 263.924896
v -35.224415 218.517715 263.924896
v -28.179525 218.517715 263.924896
v -21.134636 218.517715 263.924896
v -14.089747 218.517715 263.924896
v -7.044858 218.517715 263.924896
v 0.000032 218.517715 263.924896
v 7.044921 218.517715 263.924896
v 14.089809 218.517715 263.924896
v 21.134701 218.517715 263.924896
v 28.179592 218.517715 263.924896
v 35.224476 218.517715 263.924896
v 42.269363 218.517715 263.924896
v 49.314255 218.517715 263.924896
v 56.359142 218.517715 263.924896
v 63.404026 218.517715 263.924896
v 70.448914 218.517715 263.924896
v 77.493805 218.517715 263.924896
v 84.538696 218.517715 263.924896
v 91.583580 218.517715 263.924896
v 98.628471 218.517715 263.924896
v 105.673363 218.517715 263.924896
v 112.718254 218.517715 263.924896
v 119.763153 218.517715 263.924896
v 126.808037 218.517715 263.924896
v 133.852936 218.517715 263.924896
v 140.897827 218.517715 263.924896
v 147.942734 218.517715 263.924896
v 154.987610 218.517715 263.924896
v 162.032516 218.517715 263.924896
v 174.468277 218.517715 263.924896
v 174.468277 218.517685 -249.126251
v 154.987610 214.559464 263.924896
v 162.032516 214.559464 263.924896
v 147.942734 214.559464 263.924896
v 140.897827 214.559464 263.924896
v 133.852936 214.559464 263.924896
v 126.808037 214.559464 263.924896
v 119.763153 214.559464 263.924896
v 112.718254 214.559464 263.924896
v 105.673363 214.559464 263.924896
v 98.628471 214.559464 263.924896
v 91.583580 214.559464 263.924896
v 84.538696 214.559464 263.924896
v 77.493805 214.559464 263.924896
v 70.448914 214.559464 263.924896
v 63.404026 214.559464 263.924896
v 56.359142 214.559464 263.924896
v 49.314255 214.559464 263.924896
v 42.269363 214.559464 263.924896
v 35.224476 214.559464 263.924896
v 28.179592 214.559464 263.924896
v 21.134701 214.559464 263.924896
v 14.089809 214.559464 263.924896
v 7.044921 214.559464 263.924896
v 0.000032 214.559464 263.924896
v -7.044858 214.559464 263.924896
v -14.089747 214.559464 263.924896
v -21.134636 214.559464 263.924896
v -28.179525 214.559464 263.924896
v -35.224415 214.559464 263.924896
v -42.269302 214.559464 263.924896
v -49.314190 214.559464 263.924896
v -56.359077 214.559464 263.924896
v -63.403961 214.559464 263.924896
v -70.448853 214.559464 263.924896
v -77.493744 214.559464 263.924896
v -84.538628 214.559464 263.924896
v -91.583519 214.559464 263.924896
v -98.628410 214.559464 263.924896
v -105.673302 214.559464 263.924896
v -112.718193 214.559464 263.924896
v -119.763092 214.559464 263.924896
v -126.807976 214.559464 263.924896
v -133.852875 214.559464 263.924896
v -140.897766 214.559464 263.924896
v -147.942657 214.559464 263.924896
v -154.987549 214.559464 263.924896
v -162.032455 214.559464 263.924896
v -174.534683 214.559464 263.924896
v -174.534683 214.559433 -249.126251
v -162.032455 214.559433 -249.126251
v -154.987549 214.559433 -249.126251
v -147.942657 214.559433 -249.126251
v -140.897766 214.559433 -249.126251
v -133.852875 214.559433 -249.126251
v -126.807976 214.559433 -249.126251
v -119.763092 214.559433 -249.126251
v -112.718193 214.559433 -249.126251
v -105.673302 214.559433 -249.126251
v -98.628410 214.559433 -249.126251
v -91.583519 214.559433 -249.126251
v -84.538628 214.559433 -249.126251
v -77.493744 214.559433 -249.126251
v -70.448853 214.559433 -249.126251
v -63.403961 214.559433 -249.126251
v -56.359077 214.559433 -249.126251
v -49.314190 214.559433 -249.126251
v -42.269302 214.559433 -249.126251
v -35.224415 214.559433 -249.126251
v -28.179525 214.559433 -249.126251
v -21.134636 214.559433 -249.126251
v -14.089747 214.559433 -249.126251
v -7.044858 214.559433 -249.126251
v 0.000032 214.559433 -249.126251
v 7.044921 214.559433 -249.126251
v 14.089809 214.559433 -249.126251
v 21.134701 214.559433 -249.126251
v 28.179592 214.559433 -249.126251
v 35.224476 214.559433 -249.126251
v 42.269363 214.559433 -249.126251
v 49.314255 214.559433 -249.126251
v 56.359142 214.559433 -249.126251
v 63.404026 214.559433 -249.126251
v 70.448914 214.559433 -249.126251
v 77.493805 214.559433 -249.126251
v 84.538696 214.559433 -249.126251
v 91.583580 214.559433 -249.126251
v 98.628471 214.559433 -249.126251
v 105.673363 214.559433 -249.126251
v 112.718254 214.559433 -249.126251
v 119.763153 214.559433 -249.126251
v 126.808037 214.559433 -249.126251
v 133.852936 214.559433 -249.126251
v 140.897827 214.559433 -249.126251
v 147.942734 214.559433 -249.126251
v 154.987610 214.559433 -249.126251
v 162.032516 214.559433 -249.126251
v 174.534744 214.559433 -249.126251
v 174.534744 214.559464 263.924896
v 73.619125 218.517685 -171.313461
v 68.711182 218.517685 -171.313461
v 63.803238 218.517685 -171.313461
v 58.895298 218.517685 -171.313461
v 53.987362 218.517685 -171.313461
v 49.079418 218.517685 -171.313461
v 44.171486 218.517685 -171.313461
v 39.263546 218.517685 -171.313461
v 34.355606 218.517685 -171.313461
v 29.447664 218.517685 -171.313461
v 24.539724 218.517685 -171.313461
v 19.631788 218.517685 -171.313461
v 14.723851 218.517685 -171.313461
v 9.815910 218.517685 -171.313461
v 4.907971 218.517685 -171.313461
v 0.000032 218.517685 -171.313461
v -4.907907 218.517685 -171.313461
v -9.815847 218.517685 -171.313461
v -14.723786 218.517685 -171.313461
v -19.631725 218.517685 -171.313461
v -24.539665 218.517685 -171.313461
v -29.447603 218.517685 -171.313461
v -34.355545 218.517685 -171.313461
v -39.263481 218.517685 -171.313461
v -44.171417 218.517685 -171.313461
v -49.079353 218.517685 -171.313461
v -53.987297 218.517685 -171.313461
v -58.895233 218.517685 -171.313461
v -63.803177 218.517685 -171.313461
v -68.711121 218.517685 -171.313461
v -73.619057 218.517685 -171.313461
v -78.526993 218.517715 186.112137
v -73.619057 218.517715 186.112137
v -68.711121 218.517715 186.112137
v -63.803177 218.517715 186.112137
v -58.895233 218.517715 186.112137
v -53.987297 218.517715 186.112137
v -49.079353 218.517715 186.112137
v -44.171417 218.517715 186.112137
v -39.263481 218.517715 186.112137
v -34.355545 218.517715 186.112137
v -29.447603 218.517715 186.112137
v -24.539665 218.517715 186.112137
v -19.631725 218.517715 186.112137
v -14.723786 218.517715 186.112137
v -9.815847 218.517715 186.112137
v -4.907907 218.517715 186.112137
v 0.000032 218.517715 186.112137
v 4.907971 218.517715 186.112137
v 9.815910 218.517715 186.112137
v 14.723851 218.517715 186.112137
v 19.631788 218.517715 186.112137
v 24.539724 218.517715 186.112137
v 29.447664 218.517715 186.112137
v 34.355606 218.517715 186.112137
v 39.263546 218.517715 186.112137
v 44.171486 218.517715 186.112137
v 49.079418 218.517715 186.112137
v 53.987362 218.517715 186.112137
v 58.895298 218.517715 186.112137
v 63.803238 218.517715 186.112137
v 68.711182 218.517715 186.112137
v 73.619118 218.517715 186.112137
v 78.527054 218.517715 186.112137
v 107.974709 214.559464 186.112137
v 112.882652 214.559464 186.112137
v 103.066765 214.559464 186.112137
v 98.158836 214.559464 186.112137
v 93.250900 214.559464 186.112137
v 88.342949 214.559464 186.112137
v 83.435013 214.559464 186.112137
v 78.527054 214.559464 186.112137
v 73.619118 214.559464 186.112137
v 68.711182 214.559464 186.112137
v 63.803238 214.559464 186.112137
v 58.895298 214.559464 186.112137
v 53.987362 214.559464 186.112137
v 49.079418 214.559464 186.112137
v 44.171486 214.559464 186.112137
v 39.263546 214.559464 186.112137
v 34.355606 214.559464 186.112137
v 29.447664 214.559464 186.112137
v 24.539724 214.559464 186.112137
v 19.631788 214.559464 186.112137
v 14.723851 214.559464 186.112137
v 9.815908 214.559464 186.112137
v 4.907970 214.559464 186.112137
v 0.000032 214.559464 186.112137
v -4.907907 214.559464 186.112137
v -9.815847 214.559464 186.112137
v -14.723786 214.559464 186.112137
v -19.631725 214.559464 186.112137
v -24.539665 214.559464 186.112137
v -29.447603 214.559464 186.112137
v -34.355545 214.559464 186.112137
v -39.263481 214.559464 186.112137
v -44.171417 214.559464 186.112137
v -49.079353 214.559464 186.112137
v -53.987297 214.559464 186.112137
v -58.895233 214.559464 186.112137
v -63.803177 214.559464 186.112137
v -68.711121 214.559464 186.112137
v -73.619057 214.559464 186.112137
v -78.526993 214.559464 186.112137
v -83.434944 214.559464 186.112137
v -88.342888 214.559464 186.112137
v -93.250839 214.559464 186.112137
v -98.158775 214.559464 186.112137
v -103.066704 214.559464 186.112137
v -107.974655 214.559464 186.112137
v -112.882591 214.559464 186.112137
v -112.882591 214.559433 -171.313461
v -107.974655 214.559433 -171.313461
v -103.066704 214.559433 -171.313461
v -98.158775 214.559433 -171.313461
v -93.250839 214.559433 -171.313461
v -88.342888 214.559433 -171.313461
v -83.434944 214.559433 -171.313461
v -78.526993 214.559433 -171.313461
v -73.619057 214.559433 -171.313461
v -68.711121 214.559433 -171.313461
v -63.803177 214.559433 -171.313461
v -58.895233 214.559433 -171.313461
v -53.987297 214.559433 -171.313461
v -49.079353 214.559433 -171.313461
v -44.171417 214.559433 -171.313461
v -39.263481 214.559433 -171.313461
v -34.355545 214.559433 -171.313461
v -29.447603 214.559433 -171.313461
v -24.539665 214.559433 -171.313461
v -19.631725 214.559433 -171.313461
v -14.723786 214.559433 -171.313461
v -9.815847 214.559433 -171.313461
v -4.907907 214.559433 -171.313461
v 0.000032 214.559433 -171.313461
v 4.907970 214.559433 -171.313461
v 9.815908 214.559433 -171.313461
v 14.723851 214.559433 -171.313461
v 19.631788 214.559433 -171.313461
v 24.539724 214.559433 -171.313461
v 29.447664 214.559433 -171.313461
v 34.355606 214.559433 -171.313461
v 39.263546 214.559433 -171.313461
v 44.171486 214.559433 -171.313461
v 49.079418 214.559433 -171.313461
v 53.987362 214.559433 -171.313461
v 58.895298 214.559433 -171.313461
v 63.803238 214.559433 -171.313461
v 68.711182 214.559433 -171.313461
v 73.619118 214.559433 -171.313461
v 78.527054 214.559433 -171.313461
v 83.435013 214.559433 -171.313461
v 88.342949 214.559433 -171.313461
v 93.250900 214.559433 -171.313461
v 98.158836 214.559433 -171.313461
v 103.066765 214.559433 -171.313461
v 107.974709 214.559433 -171.313461
v 112.882652 214.559433 -171.313461
v 119.426331 218.517715 156.186447
v 113.274071 218.517715 168.259583
v 103.691742 218.517715 177.840881
v 91.617310 218.517715 183.992447
v 138.769073 218.517715 211.435379
v 121.546227 218.517715 142.803268
v 91.663628 214.559464 183.992447
v 103.738068 214.559464 177.840881
v 113.320404 214.559464 168.259583
v 119.472633 214.559464 156.186447
v 121.592545 214.559464 142.803268
v 138.819290 214.559464 211.431473
v 78.279007 214.559464 186.112137
v -91.617249 218.517715 183.992447
v -103.691681 218.517715 177.840881
v -113.274010 218.517715 168.259583
v -119.426270 218.517715 156.186447
v -121.546165 218.517715 142.803268
v -138.769012 218.517715 211.435379
v -119.472572 214.559464 156.186447
v -113.320343 214.559464 168.259583
v -103.737999 214.559464 177.840881
v -91.663567 214.559464 183.992447
v -78.278938 214.559464 186.112137
v -138.819229 214.559464 211.431473
v -121.592484 214.559464 142.803268
v 121.546227 218.517685 -128.004593
v 138.769073 218.517685 -196.636703
v 78.232681 218.517685 -171.313461
v 91.617310 218.517685 -169.193771
v 103.691742 218.517685 -163.042206
v 113.274071 218.517685 -153.460907
v 119.426331 218.517685 -141.387772
v 119.472633 214.559433 -141.387772
v 113.320404 214.559433 -153.460907
v 103.738068 214.559433 -163.042206
v 91.663628 214.559433 -169.193771
v 78.279007 214.559433 -171.313461
v 138.819290 214.559433 -196.632797
v 121.592545 214.559433 -128.004593
v -121.546165 218.517685 -128.004593
v -119.426270 218.517685 -141.387772
v -113.274010 218.517685 -153.460907
v -103.691681 218.517685 -163.042206
v -91.617249 218.517685 -169.193771
v -78.232620 218.517685 -171.313461
v -138.769012 218.517685 -196.636703
v -91.663567 214.559433 -169.193771
v -103.737999 214.559433 -163.042206
v -113.320343 214.559433 -153.460907
v -119.472572 214.559433 -141.387772
v -121.592484 214.559433 -128.004593
v -138.819229 214.559433 -196.632797
v -78.278938 214.559433 -171.313461
v -175.588638 214.559448 -76.683929
v -175.068298 214.559448 -76.683929
v -175.068298 214.559448 91.482574
v -175.588638 214.559448 91.482574
v -175.465515 218.403198 263.783386
v -175.465515 218.007568 263.619629
v 175.465515 218.007568 263.619629
v 175.465515 218.403198 263.783386
v 175.465515 218.567047 264.178680
v 175.777481 218.403198 264.178680
v 175.720139 218.330460 263.856049
vn 0.1879 0.4003 0.8969
vn 0.2333 0.4936 0.8378
vn -0.2736 0.4109 0.8697
vn -0.1879 0.4003 0.8969
vn 0.9609 0.2465 0.1266
vn 0.8428 0.4367 0.3145
vn 0.8870 0.2474 0.3900
vn 0.9257 0.2675 0.2676
vn -0.0000 -0.0000 1.0000
vn -0.0000 1.0000 -0.0000
vn -0.0000 -1.0000 -0.0000
vn -0.0000 -0.0000 -1.0000
vn -0.9999 -0.0116 -0.0075
vn -0.9999 -0.0117 -0.0075
vn -0.9999 -0.0116 0.0075
vn -0.9999 -0.0117 0.0075
vn 0.9999 -0.0116 0.0075
vn 0.9999 -0.0117 0.0075
vn 0.9999 -0.0116 -0.0075
vn 0.9999 -0.0117 -0.0075
vn -0.0000 0.6231 0.7821
vn -0.1581 0.0040 -0.9874
vn -0.3106 -0.0007 -0.9505
vn -0.3108 -0.0007 -0.9505
vn -0.5878 -0.0069 -0.8090
vn -0.5877 -0.0069 -0.8090
vn -0.8089 -0.0095 -0.5879
vn -0.8090 -0.0095 -0.5878
vn -0.9510 -0.0111 -0.3091
vn 0.9510 -0.0111 -0.3090
vn 0.9510 -0.0111 -0.3091
vn 0.8089 -0.0095 -0.5878
vn 0.8090 -0.0095 -0.5877
vn 0.5876 -0.0069 -0.8091
vn 0.5877 -0.0069 -0.8090
vn 0.3106 -0.0007 -0.9505
vn 0.3111 -0.0007 -0.9504
vn 0.1581 0.0040 -0.9874
vn -0.9510 -0.0111 0.3090
vn -0.9510 -0.0111 0.3091
vn -0.8089 -0.0095 0.5879
vn -0.8090 -0.0095 0.5878
vn -0.5878 -0.0069 0.8090
vn -0.5877 -0.0069 0.8090
vn -0.3089 -0.0036 0.9511
vn -0.1564 -0.0018 0.9877
vn 0.1564 -0.0018 0.9877
vn 0.3089 -0.0036 0.9511
vn 0.3090 -0.0036 0.9510
vn 0.5876 -0.0069 0.8091
vn 0.5877 -0.0069 0.8090
vn 0.8089 -0.0095 0.5878
vn 0.8090 -0.0095 0.5877
vn 0.9510 -0.0111 0.3091
vn 0.2736 0.4108 -0.8697
vn 0.1880 0.4003 -0.8969
vn -0.1879 0.4003 -0.8969
vn -0.0583 0.5903 -0.8051
vn 0.3766 0.9140 -0.1510
vn 0.4983 0.7173 -0.4870
vn 0.3703 0.8109 -0.4531
vn 0.3998 0.8606 -0.3155
vn -0.0000 0.6232 0.7821
vt 0.375096 0.249711
vt 0.375314 0.249059
vt 0.624687 0.249059
vt 0.624904 0.249711
vt 0.749985 0.249059
vt 0.749974 0.250000
vt 0.625000 0.250000
vt 0.510000 0.250000
vt 0.505000 0.250000
vt 0.500000 0.250000
vt 0.495000 0.250000
vt 0.490000 0.250000
vt 0.485000 0.250000
vt 0.480000 0.250000
vt 0.475000 0.250000
vt 0.470000 0.250000
vt 0.465000 0.250000
vt 0.460000 0.250000
vt 0.455000 0.250000
vt 0.450000 0.250000
vt 0.445000 0.250000
vt 0.440000 0.250000
vt 0.435000 0.250000
vt 0.430000 0.250000
vt 0.425000 0.250000
vt 0.420000 0.250000
vt 0.415000 0.250000
vt 0.410000 0.250000
vt 0.405000 0.250000
vt 0.400000 0.250000
vt 0.395000 0.250000
vt 0.390000 0.250000
vt 0.385000 0.250000
vt 0.380000 0.250000
vt 0.380000 0.000000
vt 0.385000 0.000000
vt 0.390000 0.000000
vt 0.395000 0.000000
vt 0.400000 0.000000
vt 0.405000 0.000000
vt 0.410000 0.000000
vt 0.415000 0.000000
vt 0.420000 0.000000
vt 0.425000 0.000000
vt 0.430000 0.000000
vt 0.435000 0.000000
vt 0.440000 0.000000
vt 0.445000 0.000000
vt 0.450000 0.000000
vt 0.455000 0.000000
vt 0.460000 0.000000
vt 0.465000 0.000000
vt 0.470000 0.000000
vt 0.475000 0.000000
vt 0.480000 0.000000
vt 0.485000 0.000000
vt 0.490000 0.000000
vt 0.495000 0.000000
vt 0.500000 0.000000
vt 0.505000 0.000000
vt 0.510000 0.000000
vt 0.515000 0.000000
vt 0.520000 0.000000
vt 0.525000 0.000000
vt 0.530000 0.000000
vt 0.535000 0.000000
vt 0.540000 0.000000
vt 0.545000 0.000000
vt 0.550000 0.000000
vt 0.555000 0.000000
vt 0.560000 0.000000
vt 0.565000 0.000000
vt 0.570000 0.000000
vt 0.575000 0.000000
vt 0.580000 0.000000
vt 0.585000 0.000000
vt 0.590000 0.000000
vt 0.595000 0.000000
vt 0.600000 0.000000
vt 0.605000 0.000000
vt 0.610000 0.000000
vt 0.615000 0.000000
vt 0.620000 0.000000
vt 0.620000 0.250000
vt 0.615000 0.250000
vt 0.610000 0.250000
vt 0.605000 0.250000
vt 0.600000 0.250000
vt 0.595000 0.250000
vt 0.590000 0.250000
vt 0.585000 0.250000
vt 0.580000 0.250000
vt 0.575000 0.250000
vt 0.570000 0.250000
vt 0.565000 0.250000
vt 0.560000 0.250000
vt 0.555000 0.250000
vt 0.550000 0.250000
vt 0.545000 0.250000
vt 0.540000 0.250000
vt 0.535000 0.250000
vt 0.530000 0.250000
vt 0.525000 0.250000
vt 0.520000 0.250000
vt 0.515000 0.250000
vt 0.375000 0.250000
vt 0.380000 0.500000
vt 0.375000 0.500000
vt 0.625000 0.500000
vt 0.620000 0.500000
vt 0.380000 0.280293
vt 0.380000 0.469709
vt 0.380000 0.500001
vt 0.559558 0.247181
vt 0.565030 0.249726
vt 0.565325 0.167402
vt 0.572385 0.241090
vt 0.559688 0.166054
vt 0.555000 0.250003
vt 0.550000 0.250003
vt 0.545000 0.250003
vt 0.540000 0.250003
vt 0.535000 0.250003
vt 0.530000 0.250003
vt 0.525000 0.250003
vt 0.520000 0.250003
vt 0.515000 0.250003
vt 0.510000 0.250003
vt 0.505000 0.250003
vt 0.495000 0.250003
vt 0.490000 0.250003
vt 0.485000 0.250003
vt 0.480000 0.250003
vt 0.475000 0.250003
vt 0.470000 0.250003
vt 0.465000 0.250003
vt 0.460000 0.250003
vt 0.455000 0.250003
vt 0.450000 0.250003
vt 0.445000 0.250003
vt 0.440000 0.250003
vt 0.435000 0.250003
vt 0.430000 0.250003
vt 0.425000 0.250003
vt 0.439453 0.250005
vt 0.436502 0.253604
vt 0.411647 0.716072
vt 0.538290 0.492037
vt 0.390000 0.500000
vt 0.385000 0.500000
vt 0.420301 0.500000
vt 0.380000 1.000000
vt 0.380000 0.750000
vt 0.380000 0.780292
vt 0.380000 0.969708
vt 0.596773 0.645875
vt 0.600000 0.750000
vt 0.595000 0.750000
vt 0.590000 0.750000
vt 0.585000 0.750000
vt 0.580000 0.750000
vt 0.575000 0.750000
vt 0.570000 0.750000
vt 0.565000 0.750000
vt 0.560000 0.750000
vt 0.555000 0.750000
vt 0.550000 0.750000
vt 0.545000 0.750000
vt 0.540000 0.750000
vt 0.535000 0.750000
vt 0.530000 0.750000
vt 0.525000 0.750000
vt 0.520000 0.750000
vt 0.515000 0.750000
vt 0.510000 0.750000
vt 0.505000 0.750000
vt 0.500000 0.750000
vt 0.495000 0.750000
vt 0.490000 0.750000
vt 0.485000 0.750000
vt 0.480000 0.750000
vt 0.475000 0.750000
vt 0.470000 0.750000
vt 0.465000 0.750000
vt 0.460000 0.750000
vt 0.455000 0.750000
vt 0.450000 0.750000
vt 0.445000 0.750000
vt 0.440000 0.750000
vt 0.435000 0.750000
vt 0.430000 0.750000
vt 0.425000 0.750000
vt 0.420000 0.750000
vt 0.415000 0.750000
vt 0.410000 0.750000
vt 0.405000 0.750000
vt 0.400000 0.750000
vt 0.395000 0.750000
vt 0.390000 0.750000
vt 0.385000 0.750000
vt 0.420253 0.750000
vt 0.605000 0.750000
vt 0.610000 0.750000
vt 0.615000 0.750000
vt 0.620000 0.750000
vt 0.606651 0.547872
vt 0.620000 1.000000
vt 0.617648 0.996042
vt 0.620000 0.969707
vt 0.620000 0.780292
vt 0.445000 1.000000
vt 0.450000 1.000000
vt 0.455000 1.000000
vt 0.460000 1.000000
vt 0.465000 1.000000
vt 0.470000 1.000000
vt 0.475000 1.000000
vt 0.480000 1.000000
vt 0.485000 1.000000
vt 0.490000 1.000000
vt 0.495000 1.000000
vt 0.500000 1.000000
vt 0.505000 1.000000
vt 0.510000 1.000000
vt 0.515000 1.000000
vt 0.520000 1.000000
vt 0.525000 1.000000
vt 0.530000 1.000000
vt 0.535000 1.000000
vt 0.540000 1.000000
vt 0.545000 1.000000
vt 0.550000 1.000000
vt 0.555000 1.000000
vt 0.560000 1.000000
vt 0.565000 1.000000
vt 0.570000 1.000000
vt 0.575000 1.000000
vt 0.580000 1.000000
vt 0.585000 1.000000
vt 0.590000 1.000000
vt 0.595000 1.000000
vt 0.600000 1.000000
vt 0.605000 1.000000
vt 0.610000 1.000000
vt 0.615000 1.000000
vt 0.579745 1.000000
vt 0.440000 1.000000
vt 0.435000 1.000000
vt 0.430000 1.000000
vt 0.425000 1.000000
vt 0.420000 1.000000
vt 0.415000 1.000000
vt 0.410000 1.000000
vt 0.405000 1.000000
vt 0.400000 1.000000
vt 0.395000 1.000000
vt 0.390000 1.000000
vt 0.385000 1.000000
vt 0.404464 0.365302
vt 0.403041 0.432143
vt 0.599166 0.250011
vt 0.550632 0.503924
vt 0.553559 0.504550
vt 0.577897 0.541266
vt 0.615000 0.500000
vt 0.610000 0.500000
vt 0.605000 0.500000
vt 0.600000 0.500000
vt 0.595000 0.500000
vt 0.590000 0.500000
vt 0.585000 0.500000
vt 0.580000 0.500000
vt 0.575000 0.500000
vt 0.570000 0.500000
vt 0.565000 0.500000
vt 0.560000 0.500000
vt 0.555000 0.500000
vt 0.550000 0.500000
vt 0.545000 0.500000
vt 0.540000 0.500000
vt 0.535000 0.500000
vt 0.530000 0.500000
vt 0.525000 0.500000
vt 0.520000 0.500000
vt 0.515000 0.500000
vt 0.510000 0.500000
vt 0.505000 0.500000
vt 0.500000 0.500000
vt 0.495000 0.500000
vt 0.490000 0.500000
vt 0.485000 0.500000
vt 0.480000 0.500000
vt 0.475000 0.500000
vt 0.470000 0.500000
vt 0.465000 0.500000
vt 0.460000 0.500000
vt 0.455000 0.500000
vt 0.450000 0.500000
vt 0.445000 0.500000
vt 0.440000 0.500000
vt 0.435000 0.500000
vt 0.430000 0.500000
vt 0.425000 0.500000
vt 0.420000 0.500000
vt 0.415000 0.500000
vt 0.410000 0.500000
vt 0.405000 0.500000
vt 0.400000 0.500000
vt 0.395000 0.500000
vt 0.620000 0.280295
vt 0.441272 0.498109
vt 0.536648 0.498544
vt 0.433614 0.484166
vt 0.581430 0.544223
vt 0.620000 0.469708
vt 0.421125 0.498755
vt 0.590020 0.250100
vt 0.589524 0.257878
vt 0.589557 0.992126
vt 0.598872 0.265360
vt 0.598896 0.984645
vt 0.592017 0.320105
vt 0.607208 0.978468
vt 0.614247 0.276354
vt 0.614253 0.973650
vt 0.385752 0.276353
vt 0.385746 0.973650
vt 0.392806 0.271535
vt 0.392791 0.978469
vt 0.401128 0.265358
vt 0.399244 0.945589
vt 0.410477 0.257875
vt 0.410441 0.992126
vt 0.619991 0.480983
vt 0.614276 0.773684
vt 0.619989 0.493342
vt 0.607250 0.767047
vt 0.607130 0.496215
vt 0.598937 0.760500
vt 0.593334 0.498523
vt 0.589582 0.754579
vt 0.410477 0.495439
vt 0.410441 0.754561
vt 0.401128 0.489533
vt 0.401103 0.760468
vt 0.392806 0.482987
vt 0.392791 0.767014
vt 0.385753 0.476336
vt 0.385746 0.773665
vt 0.375000 0.750000
vt 0.375314 0.500941
vt 0.375096 0.500289
vt 0.624904 0.500289
vt 0.624686 0.500941
vt 0.624686 0.375015
vt 0.625000 0.375026
vt 0.553334 0.502453
s 1
usemtl initialShadingGroup
f 374/342/321 373/343/322 377/344/323 376/345/324
f 378/345/325 379/346/326 375/347/327 380/348/328
f 458/349/329 457/350/329 456/351/329 455/352/329 454/353/329 453/354/329 452/355/329 451/356/329 450/357/329 449/358/329 448/359/329 447/360/329 446/361/329 445/362/329 444/363/329 443/364/329 442/365/329 441/366/329 440/367/329 439/368/329 438/369/329 437/370/329 436/371/329 435/372/329 434/373/329 433/374/329 432/375/329 382/376/329 383/377/329 384/378/329 385/379/329 386/380/329 387/381/329 388/382/329 389/383/329 390/384/329 391/385/329 392/386/329 393/387/329 394/388/329 395/389/329 396/390/329 397/391/329 398/392/329 399/393/329 400/394/329 401/395/329 402/396/329 403/397/329 404/398/329 405/399/329 406/400/329 407/401/329 408/402/329 409/403/329 410/404/329 411/405/329 412/406/329 413/407/329 414/408/329 415/409/329 416/410/329 417/411/329 418/412/329 419/413/329 420/414/329 421/415/329 422/416/329 423/417/329 424/418/329 425/419/329 426/420/329 427/421/329 428/422/329 429/423/329 430/424/329 480/425/329 479/426/329 478/427/329 477/428/329 476/429/329 475/430/329 474/431/329 473/432/329 472/433/329 471/434/329 470/435/329 469/436/329 468/437/329 467/438/329 466/439/329 465/440/329 464/441/329 463/442/329 462/443/329 461/444/329 460/445/329 459/446/329
f 431/447/330 432/375/330 483/448/330 482/449/330
f 480/425/330 481/348/330 485/450/330 484/451/330
f 535/448/330 536/375/330 860/375/330 859/452/330 882/453/330 888/454/330
f 747/455/330 746/456/330 745/457/330 744/458/330 743/457/330 742/459/330 741/460/330 740/461/330 739/462/330 738/463/330 737/464/330 736/465/330 735/466/330 734/467/330 733/468/330 732/469/330 731/470/330 730/351/330 729/471/330 728/472/330 727/473/330 726/474/330 725/475/330 724/476/330 723/477/330 722/478/330 721/479/330 720/480/330 719/481/330 718/482/330 717/483/330 716/484/330 715/485/330 860/486/330 536/487/330 537/488/330 538/375/330 539/375/330 540/374/330 541/373/330 542/372/330 543/371/330 544/370/330 545/369/330 546/368/330 547/367/330 548/366/330 549/365/330 550/364/330 551/363/330 552/362/330 553/361/330 554/360/330 555/359/330 556/358/330 557/357/330 558/356/330 559/355/330 560/354/330 561/353/330 562/352/330 563/351/330 564/350/330 565/349/330 566/446/330 567/445/330 568/444/330 569/443/330 570/442/330 571/441/330 572/440/330 573/439/330 574/438/330 575/437/330 576/436/330 577/435/330 578/434/330 579/433/330 580/432/330 581/431/330 582/430/330 583/429/330 584/428/330 846/427/330
f 584/426/330 585/425/330 869/489/330 868/425/330 847/451/330 846/451/330
f 633/490/331 634/491/331 894/448/331 893/454/331 867/492/331 866/493/331
f 841/494/331 840/494/331 839/495/331 838/496/331 837/493/331 836/497/331 835/497/331 834/497/331 833/498/331 832/499/331 831/500/331 830/501/331 829/502/331 828/503/331 827/504/331 826/505/331 825/506/331 824/507/331 823/508/331 822/509/331 821/510/331 820/511/331 819/512/331 818/513/331 817/514/331 816/515/331 815/516/331 814/517/331 813/518/331 812/519/331 811/520/331 810/521/331 809/522/331 808/523/331 807/524/331 806/525/331 805/526/331 804/527/331 803/528/331 802/529/331 801/530/331 800/531/331 799/532/331 798/533/331 797/534/331 796/535/331 795/536/331 895/537/331 894/538/331 634/539/331 635/540/331 636/541/331 637/542/331 638/494/331 639/494/331 640/541/331 641/540/331 642/539/331 643/538/331 644/537/331 645/536/331 646/535/331 647/534/331 648/533/331 649/532/331 650/531/331 651/530/331 652/529/331 653/528/331 654/527/331 655/526/331 656/525/331 657/524/331 658/523/331 659/522/331 660/521/331 661/520/331 662/519/331 663/518/331 664/517/331 665/516/331 666/515/331 667/514/331 668/513/331 669/512/331 670/511/331 671/510/331 672/509/331 673/508/331 674/507/331 675/506/331 676/505/331 677/504/331 678/503/331 679/502/331 680/501/331 681/500/331 682/499/331 880/498/331 879/543/331
f 682/544/331 683/545/331 853/546/331 852/546/331 881/547/331 880/546/331
f 782/548/331 781/549/331 780/550/331 779/551/331 778/546/331 777/552/331 776/553/331 775/554/331 774/555/331 773/556/331 772/557/331 771/558/331 770/559/331 769/560/331 768/561/331 767/562/331 766/563/331 765/564/331 764/565/331 763/566/331 762/567/331 761/568/331 760/569/331 759/570/331 758/571/331 757/572/331 756/573/331 755/574/331 754/575/331 753/576/331 752/577/331 751/578/331 750/579/331 748/580/331 749/581/331 854/582/331 853/583/331 683/584/331 587/585/331 586/586/331 588/587/331 589/549/331 590/548/331 591/586/331 592/585/331 593/584/331 594/583/331 595/582/331 596/581/331 597/580/331 598/579/331 599/578/331 600/577/331 601/576/331 602/575/331 603/574/331 604/573/331 605/572/331 606/571/331 607/570/331 608/569/331 609/568/331 610/567/331 611/566/331 612/565/331 613/564/331 614/563/331 615/562/331 616/561/331 617/560/331 618/559/331 619/558/331 620/557/331 621/556/331 622/555/331 623/554/331 624/553/331 625/552/331 626/588/331 627/589/331 628/590/331 629/591/331 630/592/331 631/593/331 632/594/331 633/595/331 866/596/331 865/597/331 794/598/331 793/599/331 792/493/331 791/493/331 790/488/331 789/600/331 788/601/331 787/597/331 786/596/331 785/595/331 784/594/331 783/593/331
f 772/592/332 773/591/332 774/590/332 775/589/332 776/588/332 777/562/332 778/561/332 779/560/332 780/559/332 781/558/332 782/557/332 783/556/332 784/555/332 785/554/332 786/553/332 787/552/332 788/588/332 789/589/332 790/590/332 791/591/332 792/592/332 793/593/332 794/594/332 865/595/332 715/596/332 716/597/332 717/601/332 718/600/332 719/487/332 720/600/332 721/487/332 722/486/332 723/485/332 724/484/332 725/483/332 726/482/332 727/481/332 728/480/332 729/479/332 730/478/332 731/477/332 732/476/332 733/475/332 734/474/332 735/473/332 736/472/332 737/471/332 738/351/332 739/470/332 740/469/332 741/468/332 742/467/332 743/466/332 744/465/332 745/464/332 746/463/332 747/462/332 854/461/332 749/460/332 748/459/332 750/457/332 751/456/332 752/458/332 753/456/332 754/455/332 755/602/332 756/587/332 757/586/332 758/585/332 759/584/332 760/583/332 761/582/332 762/581/332 763/580/332 764/579/332 765/578/332 766/577/332 767/576/332 768/575/332 769/574/332 770/573/332 771/572/332
f 852/571/333 847/570/334 868/569/335 881/568/336
f 893/567/337 882/566/338 859/565/339 867/564/340
f 870/603/330 869/604/330 585/605/330 489/497/330 488/497/330 490/497/330 491/451/330 492/451/330 493/606/330 494/607/330 495/608/330 496/609/330 497/610/330 498/611/330 499/612/330 500/613/330 501/614/330 502/615/330 503/616/330 504/617/330 505/618/330 506/619/330 507/620/330 508/621/330 509/622/330 510/623/330 511/624/330 512/625/330 513/626/330 514/627/330 515/628/330 516/629/330 517/630/330 518/631/330 519/632/330 520/633/330 521/634/330 522/635/330 523/636/330 524/637/330 525/638/330 526/639/330 527/640/330 528/641/330 529/642/330 530/643/330 531/644/330 532/645/330 533/646/330 534/647/330 535/648/330 888/649/330 887/650/330 714/651/341 713/489/330 712/489/330 711/652/330 710/653/330 709/653/330 708/654/330 707/653/330 706/655/330 705/655/330 704/638/330 703/637/330 702/636/330 701/635/330 700/634/330 699/633/330 698/632/330 697/631/330 696/630/330 695/629/330 694/628/330 693/627/330 692/626/330 691/625/330 690/624/330 689/623/330 688/622/330 687/621/330 686/620/330 685/619/330 684/656/330
f 747/638/342 845/655/343 848/653/344 854/652/342
f 845/489/343 844/489/345 849/489/346 848/489/344
f 844/657/345 843/492/347 850/542/348 849/658/346
f 843/659/347 842/660/349 851/587/349 850/659/348
f 842/661/349 847/662/334 852/660/333 851/661/349
f 859/663/339 858/664/350 861/662/351 867/663/340
f 858/665/350 857/666/352 862/664/353 861/665/351
f 857/651/352 856/550/354 863/666/355 862/452/353
f 856/667/354 855/668/356 864/496/357 863/667/355
f 855/669/356 715/670/358 865/668/358 864/669/357
f 846/671/330 847/672/330 842/670/330
f 846/671/330 842/673/330 843/674/330
f 846/672/330 843/673/330 844/600/330
f 846/488/330 844/674/330 845/489/330
f 846/651/330 845/665/330 747/489/330
f 853/665/331 854/663/331 848/489/331
f 853/663/331 848/661/331 849/489/331
f 853/661/331 849/659/331 850/489/331
f 853/659/331 850/658/331 851/549/331
f 853/587/331 851/660/331 852/549/331
f 860/660/330 715/662/330 855/549/330
f 860/662/330 855/664/330 856/549/330
f 860/664/330 856/666/330 857/549/330
f 860/666/330 857/550/330 858/375/330
f 860/600/330 858/673/330 859/375/330
f 866/673/331 867/671/331 861/375/331
f 866/671/331 861/669/331 862/375/331
f 866/669/331 862/667/331 863/375/331
f 866/667/331 863/452/331 864/493/331
f 866/496/331 864/668/331 865/493/331
f 868/668/335 874/670/359 875/493/360 881/670/336
f 874/672/359 873/493/361 876/672/362 875/674/360
f 873/493/361 872/674/363 877/488/364 876/656/362
f 872/675/363 871/676/365 878/551/365 877/675/364
f 871/677/365 870/678/366 879/676/366 878/677/365
f 887/679/367 886/680/368 889/678/369 895/679/367
f 886/681/368 885/682/370 890/680/371 889/681/369
f 885/497/370 884/547/372 891/682/373 890/492/371
f 884/683/372 883/684/374 892/542/374 891/683/373
f 883/685/374 882/686/338 893/684/337 892/685/374
f 869/687/330 870/688/330 871/686/330
f 869/687/330 871/689/330 872/690/330
f 869/688/330 872/689/330 873/453/330
f 869/495/330 873/690/330 874/451/330
f 869/497/330 874/681/330 868/451/330
f 880/681/331 881/679/331 875/451/331
f 880/679/331 875/677/331 876/451/331
f 880/677/331 876/675/331 877/451/331
f 880/675/331 877/656/331 878/546/331
f 880/551/331 878/676/331 879/546/331
f 888/676/330 882/678/330 883/546/330
f 888/678/330 883/680/330 884/546/330
f 888/680/330 884/682/330 885/546/330
f 888/682/330 885/547/330 886/454/330
f 888/453/330 886/689/330 887/454/330
f 894/689/331 895/687/331 889/454/331
f 894/687/331 889/685/331 890/454/331
f 894/685/331 890/683/331 891/454/331
f 894/683/331 891/492/331 892/494/331
f 894/542/331 892/684/331 893/494/331
f 486/684/331 487/686/331 897/494/331 896/686/331
f 382/494/331 381/690/331 899/495/331 898/691/331
f 901/692/375 900/693/376 903/694/377 902/695/378
f 903/694/379 904/696/380 905/697/381 906/450/382
f 887/636/329 895/637/329 803/496/329 804/541/329 805/540/329 806/539/329 807/538/329 808/537/329 809/536/329 810/535/329 811/534/329 812/533/329 813/532/329 814/531/329 815/530/329 816/529/329 817/528/329 818/527/329 819/526/329 820/525/329 821/524/329 822/523/329 823/522/329 824/521/329 825/520/329 826/519/329 827/518/329 828/517/329 829/516/329 830/515/329 831/514/329 832/513/329 833/512/329 879/503/329 870/502/329 684/501/329 685/500/329 686/499/329 687/498/329 688/497/329 689/605/329 690/605/329 691/604/329 692/604/329 693/604/329 694/698/329 695/698/329 696/604/329 697/603/329 698/618/329 699/619/329 700/620/329 701/621/329 702/622/329 703/623/329 704/624/329 705/625/329 706/626/329 707/627/329 708/628/329 709/629/329 710/630/329 711/631/329 712/632/329 713/633/329 714/634/383
